<?xml version="1.0" encoding="utf-8"?>
<!-- Generator: Adobe Illustrator 24.3.0, SVG Export Plug-In . SVG Version: 6.00 Build 0)  -->
<svg version="1.1" id="Layer_1" xmlns="http://www.w3.org/2000/svg" xmlns:xlink="http://www.w3.org/1999/xlink" x="0px" y="0px"
	 viewBox="0 0 390 360" style="enable-background:new 0 0 390 360;" xml:space="preserve">
<style type="text/css">
	.st0{fill:#E3D291;}
</style>
<g id="Layer_4">
	<path class="st0" d="M150,73c30.6-18.6,31.9-30.3,59-45c12.7-6.9,50.6-27.4,85.6-12.9c16.4,6.8,25.7,18.6,34.7,29.8
		c17.8,22.3,23.4,44.6,29.6,69.4c5.3,21.2,6.6,36.9,8.4,59.8c2.5,31.4,0.4,43.9-1.4,51.6c-1.9,8.6-4.9,21.2-14.1,34
		c-8.9,12.2-18.8,18.2-26,22.5c-16.9,9.9-32,12.3-52.5,15.3c-3.3,0.5-15.2,1.5-38.8,3.3c-21.4,1.7-32.2,2.6-37,2.9
		c-14.7,0.9-31.6,1.8-50.7,1c-18.8-0.9-36.6-1.6-58.7-8.1c-22.5-6.5-42.9-12.5-58.3-32.3C18.3,249.5,15,234.4,13,224.2
		c-0.8-4-12.9-73,34-109.2c7.1-5.5,22.3-15.4,46.7-18.3C107.7,93,128.1,86.3,150,73z"/>
</g>
</svg>
