<svg xmlns="http://www.w3.org/2000/svg" viewBox="0 0 360 360"><defs><style>.cls-1{fill:#006838;}.cls-2{fill:#87b767;}</style></defs><title>Artboard 2leaf</title><g id="Layer_4" data-name="Layer 4"><path class="cls-1" d="M232.9,134.52a6.63,6.63,0,0,1,.63-1.85,6.35,6.35,0,0,0,.8-2.36,1.73,1.73,0,0,1,.18-.8,1.48,1.48,0,0,0,.13-.51,1.13,1.13,0,0,1,.29-.6,4.15,4.15,0,0,0,.6-1.5c.36-1.19.66-2.39,1-3.58.8-3,1.73-5.93,2.27-9a1.75,1.75,0,0,1,.19-.81,1.44,1.44,0,0,0,.14-.54c0-.23.13-.46.17-.69.05-.94.54-1.79.57-2.73a1.71,1.71,0,0,1,.23-.94,10.87,10.87,0,0,0,.24-2.55,1,1,0,0,1,.11-.75,1,1,0,0,0,.09-.52,1.84,1.84,0,0,1,.17-.77,55.61,55.61,0,0,0,1-7.6,1.55,1.55,0,0,1,.06-1.06,1.5,1.5,0,0,0,0-.84,1.25,1.25,0,0,1,.08-.93,6.35,6.35,0,0,0,.22-1.43,4.58,4.58,0,0,1,0-1.17c0-2.1.4-4.19.22-6.29-.08-1,.37-2.09,0-3.12,0-.45-.44-.89,0-1.35a17.41,17.41,0,0,0-.25-5.39c-.06-.24-.11-.48-.16-.72a1.57,1.57,0,0,1,.06-1,15.43,15.43,0,0,0-.42-4.12,11.53,11.53,0,0,1-.37-2.34q-1.42-6.64-2.87-13.3a5.29,5.29,0,0,0-.38-.89c-.47-1.08-1.46-1.34-2.46-1.6a34.28,34.28,0,0,0-4.48.94.93.93,0,0,1-.54.51c-.28.6-1.05.88-1.08,1.64a1.25,1.25,0,0,0-.23.65,4.54,4.54,0,0,0-.14,1.47A2.74,2.74,0,0,0,229,57.4a38.75,38.75,0,0,1,.77,4.56c.13,1.37.72,2.68.82,4a41.92,41.92,0,0,0,.54,4.2c-.09.53.22,1,0,1.58,0,.37.07.74.11,1.1-.09.63.2,1.25.05,1.89a13.12,13.12,0,0,1,.17,3.42c0,1.12.37,2.15.26,3.3-.2,2.09-.09,4.22-.1,6.33a2.14,2.14,0,0,1-.14,1l-.24,3.55c.11.25,0,.45-.13.66a23.36,23.36,0,0,1-.25,4.8,8,8,0,0,0-.15,1c-.06.49-.11,1-.17,1.46a1.3,1.3,0,0,0-.19.67c-.21,2.32-.78,4.59-1.14,6.89a1.23,1.23,0,0,1-.17.62,34,34,0,0,1-.49,3.61,1.62,1.62,0,0,0-.2.68l-.5,2a1.11,1.11,0,0,0-.19.66l-1.92,6.58a1.23,1.23,0,0,1-.21.67c-.81,2.76-1.72,5.48-2.63,8.21-1.44,4.31-3.43,8.38-5.14,12.57a99.22,99.22,0,0,1-4.4,9c-1.55,2.92-3.28,5.76-4.91,8.65-.67,1.18-1.51,2.25-2.23,3.4a134.36,134.36,0,0,1-9.92,13.9c-.11.46-.52.73-.74,1.12-1.79,2-3.31,4.19-5.1,6.19-3,3.42-6.31,6.65-9.51,9.92-2.09,2.14-4.4,4.05-6.6,6.07a2.45,2.45,0,0,0-.55.47l-.42.24a.94.94,0,0,1-.52.46v0a1,1,0,0,0-.53.45,30.47,30.47,0,0,0-3.64,3.07,3.68,3.68,0,0,0-.59.45l-4.68,3.16c-.26.2-.56.35-.83.55l-2.28,1.37a1.84,1.84,0,0,1-.82.5,1.54,1.54,0,0,0-.75.33c-1.13.64-2.05,1.64-3.36,2a3.13,3.13,0,0,0-.83.52l-.44.22c-.21.28-.6.27-.84.5l-4.69,1.89c-.43.32-1,.32-1.44.62-2,.23-3.66,1.46-5.65,1.75a4.36,4.36,0,0,0-3.34,2.84,1.16,1.16,0,0,0-.23.65c-.45,2.55,1,6.11,4.21,6.39.33,0,.64.17,1,.15s.79-.13,1.19-.18c2.61-.35,5-1.61,7.5-2.23.46-.25,1-.35,1.43-.64l.9-.21c.35-.25.8-.31,1.16-.57l3.75-1.7c.26-.2.59-.29.84-.5l.86-.47a5.63,5.63,0,0,1,.85-.51,4.68,4.68,0,0,1,1.28-.7c.3-.14.52-.41.82-.54,1.65-1,3.31-1.94,4.95-2.93,2.22-1.36,4.24-3,6.32-4.57a3.89,3.89,0,0,0,.53-.46c.94-.72,1.87-1.47,2.82-2.18s2-1.82,3.16-2.53a1.49,1.49,0,0,1,.54-.46c1.17-1.07,2.29-2.2,3.46-3.27A129.1,129.1,0,0,0,196.83,194l5.82-6.85c2-2.39,3.92-4.91,5.76-7.45,1.29-1.79,2.67-3.51,3.85-5.37,2.52-4,5.08-7.9,7.4-12,1.76-3.11,3.45-6.24,5-9.45.89-1.86,1.87-3.67,2.67-5.58a6.57,6.57,0,0,1,.74-1.53c1-3.84,2.92-6.78,4.85-10.63A1.18,1.18,0,0,1,232.9,134.52Z"/><path class="cls-2" d="M257.1,191.67c-.07-.53-.39-1-.19-1.59a1.69,1.69,0,0,0,0-.59,3.43,3.43,0,0,1-.05-1.56,6.75,6.75,0,0,0-.19-1.61,5.24,5.24,0,0,1-.21-2.12,8.34,8.34,0,0,0-.31-2.33c-.2-.91-.4-1.83-.57-2.76-.55-2.67-1.38-5.28-1.8-8a27.48,27.48,0,0,0-.88-3.82c-.89-2.21-1.7-4.46-2.61-6.67a91.53,91.53,0,0,0-4.7-9.78,2.48,2.48,0,0,1-.48-.87,1.08,1.08,0,0,0-.42-.56.84.84,0,0,1-.47-.61,11.11,11.11,0,0,0-.72-1.26,2.85,2.85,0,0,1-.43-.6,6.18,6.18,0,0,0-1.17-1.57,1.4,1.4,0,0,1-.59-.74,1.12,1.12,0,0,0-.3-.47,1.68,1.68,0,0,1-.49-.66,26.84,26.84,0,0,0-3.16-3.74,1.52,1.52,0,0,1-.47-.54,3.08,3.08,0,0,0-.78-.9c-1-.84-1.9-1.7-2.82-2.57a1.47,1.47,0,0,1-.41-.59C231,139,229.06,142,228.06,145.8c.3-.3.61.15,1.6,1.25a1.22,1.22,0,0,1,.46.52c1.56,1.59,2.69,3.52,4.18,5.17a.81.81,0,0,1,.44.53c.32,1,1.19,1.8,1.55,2.82a1,1,0,0,1,.4.57c.13.71.79,1.17.86,1.9.18.38.38.76.6,1.13a4.9,4.9,0,0,1,.83,1.88c.24.22.25.6.51.82.44,1.36,1.24,2.58,1.74,3.89a82.54,82.54,0,0,1,2.52,8.05c.71,2.59,1.23,5.23,1.84,7.84,0,1.05.36,2.05.33,3.1l.35,2.3c-.09.63.18,1.25.06,1.89.18,1.61-.06,3.25.24,4.86a6.32,6.32,0,0,0-.13,1c-.09,1.31-.12,2.62-.27,3.92-.22,1.87-.52,3.73-.79,5.6a2,2,0,0,0-.18.7c-.15.66-.33,1.31-.44,2a18.89,18.89,0,0,1-1.55,5.55,2.46,2.46,0,0,1-.21.7,10.28,10.28,0,0,1-1.1,2.9,1.8,1.8,0,0,1-.24.67,11.7,11.7,0,0,0-.56,1.12c-1.49,3.87-3.86,7.25-6.14,10.65-2,3.05-4.79,5.5-7.4,8.05a1,1,0,0,1-.51.46l0,0a1,1,0,0,0-.51.46l-.41.24a2.91,2.91,0,0,1-.58.47,19.68,19.68,0,0,1-4.17,3.5.89.89,0,0,0-.53.44l-.43.24a1.19,1.19,0,0,1-.55.44,28.1,28.1,0,0,1-2.44,1.64,25.59,25.59,0,0,1-3.73,2.15c-.2.12-.32.33-.51.46-.57.13-.92.64-1.41.89-.12.34-.47.38-.71.57-.74,0-1.17.74-1.86.89a2.45,2.45,0,0,1-.83.51c-.71.09-1.23.63-1.89.84a9.32,9.32,0,0,1-1.13.59l-.75.28a3.1,3.1,0,0,1-.85.48l-.59.15a2.41,2.41,0,0,1-.84.5,25.73,25.73,0,0,0-4.19,2,2.81,2.81,0,0,1-1.09.4,1.51,1.51,0,0,0-.65.31l-.46.2c-.29.38-.81.27-1.15.56-2.13.55-4.12,1.49-6.19,2.21-.4.41-1,.31-1.45.62-1.22.12-2.18.92-3.32,1.24-2.36.64-4.62,1.61-7,2.2-2.5.62-4.81,1.8-7.35,2.27-.5.44-1.16.38-1.75.56a7.76,7.76,0,0,0-2.11.57c-1.58.51-3.22.77-4.8,1.32-2.91,1-6,1.62-8.93,2.45-4,1.12-8.13,1.84-12.14,3-3.24,1-6.62,1.4-9.89,2.3-4.42,1.22-9,1.88-13.42,3-4.87,1.24-9.85,2-14.73,3.23-3.75.93-7.56,1.6-11.35,2.38a3.19,3.19,0,0,0-.94.26c-1,.56-1.45.25-1.65-.76a4.83,4.83,0,0,1,.06-1.26l0-.81c.16-.41-.06-.85.08-1.26a14.25,14.25,0,0,1-.15-3A5.93,5.93,0,0,1,87.8,276c0-.37-.07-.74-.1-1.11a6.4,6.4,0,0,0,.11-1c0-2.05-.09-4.09-.14-6.14,0-.42.06-.84.07-1.26l.06-4.14a3.36,3.36,0,0,1,.14-1l-.09-1.12c0-.32.12-.64.13-1,.06-1.9.13-3.8.19-5.71l.15-4a6.31,6.31,0,0,1,.15-1v-.49a3.15,3.15,0,0,0,.15-1,27.16,27.16,0,0,1,.23-3.25,2.38,2.38,0,0,0,.12-1,1.39,1.39,0,0,1,0-.73,11.5,11.5,0,0,0,.24-3.88.76.76,0,0,1,.18-.66c0-.17,0-.34,0-.51.05-.32.13-.63.15-1,.15-2.33.55-4.63.87-6.94.33-2.51.69-5,1-7.52a1.45,1.45,0,0,0,.2-.67c.46-2.64,1-5.25,1.55-7.87a41.26,41.26,0,0,0,1.25-6,.76.76,0,0,1,.21-.66l0-.48a2.42,2.42,0,0,0,.19-.7,3.37,3.37,0,0,0,.23-.6,86.46,86.46,0,0,1,2.72-9.19,1.31,1.31,0,0,1,.23-.66c.7-1.67.91-3.5,1.73-5.12a1.49,1.49,0,0,1,.23-.67,145,145,0,0,1,6.61-14.93A87.74,87.74,0,0,1,113.52,163a69.76,69.76,0,0,1,8.39-10.22,1.06,1.06,0,0,0,.5-.48,2.36,2.36,0,0,0,.75-1,2.85,2.85,0,0,0,.56-.48,72.3,72.3,0,0,1,8.86-7.52c.21-.12.32-.35.54-.44a11.61,11.61,0,0,0,1.95-1.3c.26-.21.56-.36.83-.55l.43-.24c.11-.22.34-.3.5-.46l1.14-.76c.26-.21.58-.33.85-.53l1.85-.9a1,1,0,0,1,.56-.42c1.31-.47,2.5-1.19,3.77-1.76a79.66,79.66,0,0,1,8-3.38c.54-.33,1.22-.3,1.75-.67l3.17-.78c2.52-.72,5.05-1.42,7.63-1.92a4.27,4.27,0,0,1,1.88-.21l1.71-.23a1.6,1.6,0,0,0,1-.09,5.4,5.4,0,0,1,1.5-.12c.78-.11,1.57-.29,2.36-.33,2.85-.13,5.7-.42,8.56-.33.32.08.66,0,1,.12l2.06,0c.33,0,.64.15,1,.14l1.09-.08c.21.1.41.23.65.12l5.81.43c.33,0,.65.12,1,.16a1.69,1.69,0,0,0,1.14.21.81.81,0,0,1,.67.19l2,.48a2,2,0,0,1,.71.19l.47.05a.88.88,0,0,0,.66.21c.5-.13,1,.15,1.42.2a4.68,4.68,0,0,0,.73.21,8.65,8.65,0,0,0,4.3,1.09c2.37,0,4.67-2.78,4.63-5.22a4.16,4.16,0,0,0-.52-2.42,5,5,0,0,0-3-2.63,31.81,31.81,0,0,0-5.4-1.5,53.6,53.6,0,0,0-8.35-1.44,1.39,1.39,0,0,0-.69-.15l-.3,0a.77.77,0,0,1-.67-.17c-1.08,0-2.13-.43-3.23-.26-.37-.14-.73.29-1.1,0a78.66,78.66,0,0,0-9.94-.37,33,33,0,0,0-6.64.54,2.11,2.11,0,0,0-1,0,3.37,3.37,0,0,1-1.48.12,98.65,98.65,0,0,0-18.31,4,4.22,4.22,0,0,1-1.46.46,4.72,4.72,0,0,0-1.21.43l-.75.26c-.39.4-1,.27-1.42.65l-5.12,2.13a2.44,2.44,0,0,1-.84.49,5.5,5.5,0,0,0-.92.3,62.62,62.62,0,0,0-8.17,4.73.62.62,0,0,1-.54.42l-.29.09a1.56,1.56,0,0,0-.56.42,20.1,20.1,0,0,0-3,2,40.24,40.24,0,0,0-5.07,3.94,1.54,1.54,0,0,0-.55.46L117,143a1.19,1.19,0,0,0-.5.47,82.32,82.32,0,0,0-7.67,8.49,106.93,106.93,0,0,0-6.57,9.16c-1.76,2.93-3.37,5.94-5,8.94-.92,1.67-1.9,3.32-2.66,5.06-1.43,3.28-2.73,6.62-4.08,9.94a1.41,1.41,0,0,1-.23.66q-.94,2.64-1.87,5.3a1.19,1.19,0,0,1-.22.66c-.68,2.3-1.38,4.59-2,6.89s-1.32,4.53-1.77,6.85a2.14,2.14,0,0,0-.19.7c-.27.33-.19.73-.23,1.11a2.55,2.55,0,0,0-.19.72,18.71,18.71,0,0,0-.83,4c-.32,2.31-.87,4.58-1.32,6.87a.79.79,0,0,1-.17.66.71.71,0,0,0-.08.18c0,.34-.15.65-.18,1-.14,1.7-.64,3.35-.68,5.06a1.51,1.51,0,0,1-.18.66l-.56,4.87a1,1,0,0,1-.16.68c-.2,1.63-.4,3.26-.59,4.89s-.32,3.1-.48,4.65c0,.36,0,.73,0,1.1a37.63,37.63,0,0,0-.32,5,7.68,7.68,0,0,1-.1,1.27A17.42,17.42,0,0,0,77.9,252c0,.33-.12.64-.12,1h0a6.51,6.51,0,0,1-.1,1c.19.85-.19,1.69-.08,2.54a5.78,5.78,0,0,0,0,1.1l0,.32c.11.25,0,.46-.1.67l.1,1.38c0,.33-.13.64-.12,1,0,.69,0,1.38,0,2.07-.05.42,0,.85-.1,1.28,0,.68,0,1.37,0,2.06a5.23,5.23,0,0,1-.09,1l.08,1.09c0,.43,0,.85-.09,1.28,0,1,.09,2,.1,3,0,1.63,0,3.27,0,4.91-.07.52,0,1,0,1.57a8.17,8.17,0,0,1,.13,1.19,58.31,58.31,0,0,0,.2,7.93,10.94,10.94,0,0,1,0,1.15c.33,1.59.66,3.19,1,4.79a3.55,3.55,0,0,0,3.07,2.17c3.69-.67,7.36-1.42,11-2.32,4.8-1.19,9.71-2,14.52-3.17,4.41-1.11,8.91-1.87,13.35-2.91,8.41-1.95,16.88-3.68,25.33-5.5a11.14,11.14,0,0,0,2.4-.68c1.53-.52,3.15-.65,4.68-1.18a5,5,0,0,0,1.9-.41,12.43,12.43,0,0,1,1.6-.27c2.45-.32,4.62-1.58,7-2,3.21-.52,6.2-1.86,9.38-2.53a21.67,21.67,0,0,0,4.64-1.56c.6-.59,1.43-.49,2.16-.69,2.13-.22,4-1.36,6.05-1.84a7.85,7.85,0,0,0,2.67-.88c1.65-1.1,3.64-1.21,5.38-2.05a13,13,0,0,1,1.92-.77,36,36,0,0,0,5.37-2.09c2.4-1.21,4.92-2.12,7.31-3.35a2.17,2.17,0,0,1,.89-.46,32.57,32.57,0,0,0,4.58-2.28,2.62,2.62,0,0,1,.85-.54c1.1-.56,2.17-1.17,3.27-1.73a2,2,0,0,1,.85-.51,3.56,3.56,0,0,0,1-.65,1.53,1.53,0,0,1,.84-.49,19.54,19.54,0,0,0,3.36-2.11,1.12,1.12,0,0,1,.61-.48,1.8,1.8,0,0,0,.38-.16c.19-.12.36-.27.54-.4l.21-.18a1.84,1.84,0,0,1,.55-.41,61.45,61.45,0,0,0,6.93-5.31,1.47,1.47,0,0,1,.54-.48,4.21,4.21,0,0,0,.94-.74,50.78,50.78,0,0,0,5.27-5.5c1.34-1.71,2.9-3.28,4.16-5a49.5,49.5,0,0,0,6.25-10.59c.14-.33.32-.64.47-1,.8-1.87,1.47-3.79,2.16-5.71a1.86,1.86,0,0,1,.25-.68c.57-1.52,1-3.1,1.39-4.66a1.94,1.94,0,0,1,.25-.94,40.07,40.07,0,0,0,1.11-5.11,2.56,2.56,0,0,1,.06-.87c.12-1.28.39-2.54.44-3.82a2.69,2.69,0,0,1,.1-1,3.29,3.29,0,0,0,0-.83,3.3,3.3,0,0,1,.11-.69,12.93,12.93,0,0,0,.15-1.76,1.57,1.57,0,0,1,.07-1,1.57,1.57,0,0,0,0-.86,1.1,1.1,0,0,1,.13-.95A7.21,7.21,0,0,0,257.1,191.67Z"/><path class="cls-1" d="M146,221.51a250.66,250.66,0,0,1-22.58-25.17c-.17-.23-.35-.45-.53-.68.57.73.1.12,0,0-.44-.58-.88-1.15-1.31-1.73-.87-1.15-1.73-2.32-2.58-3.49q-2.49-3.42-4.85-6.93-4.68-6.92-8.88-14.14-4.8-8.25-8.94-16.86a5,5,0,0,0-6.84-1.79,5.12,5.12,0,0,0-1.8,6.84,253.33,253.33,0,0,0,38.09,57.22q6.31,7.17,13.16,13.82a5,5,0,1,0,7.07-7.07Z"/></g></svg>