<?xml version="1.0" encoding="utf-8"?>
<!-- Generator: Adobe Illustrator 24.3.0, SVG Export Plug-In . SVG Version: 6.00 Build 0)  -->
<svg version="1.1" id="Layer_1" xmlns="http://www.w3.org/2000/svg" xmlns:xlink="http://www.w3.org/1999/xlink" x="0px" y="0px"
	 viewBox="0 0 360 360" style="enable-background:new 0 0 360 360;" xml:space="preserve">
<style type="text/css">
	.st0{fill:#87B767;}
	.st1{fill:#006D5B;}
</style>
<g>
	<path class="st0" d="M278.7,82.3v201.5H77.2V82.3H278.7 M278.7,67.3H77.2c-8.3,0-15,6.7-15,15v201.5c0,8.3,6.7,15,15,15h201.5
		c8.3,0,15-6.7,15-15V82.3C293.7,74,287,67.3,278.7,67.3L278.7,67.3z"/>
</g>
<g id="Layer_2_1_">
	<path class="st1" d="M241.6,109.4c13.4,4.5,22.6,12.2,25.8,15.2c2.6,2.4,7.8,7.3,11.6,13.3c10.6,16.6,8.3,36.1,6.4,49.3
		c-2.2,16.6-5.8,42.7-25.6,61.1c-11,10.1-27.1,13.6-59.5,20.3c-64.5,13.6-72.7,0.1-111,6.2c-3.1,0.4-11.6,1.9-15.5-2.5
		c-4.8-5.4-0.7-16.3,1.6-22c25.7-67.4,21.2-63.4,29.7-76.7c12.4-19.7,20.3-32.4,36.7-44.2c24.5-17.8,49.5-20.8,62-22.2
		C215,105.9,227.1,104.6,241.6,109.4z"/>
</g>
<g id="Layer_1_1_">
	<g id="Layer_4">
		<path class="st1" d="M277.3,132.3c0.2-0.7,0.7-1.3,1.1-2c0.7-0.7,1.1-1.5,1.5-2.5c0.1-0.3,0.2-0.6,0.4-0.9
			c0.1-0.2,0.2-0.3,0.2-0.6s0.2-0.4,0.4-0.6c0.4-0.4,0.8-1,1-1.6c0.8-1.2,1.3-2.5,2-3.8c1.7-3.1,3.4-6.2,4.8-9.6
			c0.1-0.3,0.2-0.7,0.4-0.9c0.1-0.2,0.2-0.4,0.2-0.7c0-0.2,0.2-0.4,0.4-0.8c0.3-1,1-1.9,1.3-2.9c0.1-0.3,0.3-0.8,0.4-1
			c0.4-0.9,0.8-1.8,0.9-2.9c0-0.3,0.1-0.6,0.3-0.9c0.1-0.2,0.2-0.3,0.2-0.6c0.1-0.3,0.2-0.6,0.4-0.9c1.2-2.7,2.1-5.4,3-8.3
			c0-0.3,0.1-0.8,0.3-1.2c0.2-0.3,0.2-0.7,0.2-0.9c0-0.3,0-0.7,0.3-1c0.2-0.6,0.4-1,0.6-1.6c0.1-0.4,0.2-0.9,0.3-1.3
			c0.6-2.4,1.5-4.6,1.8-7.1c0.1-1.1,1-2.2,0.8-3.5c0.1-0.4-0.2-1.1,0.3-1.5c0.7-2,1-4,1-6.2l0.1-0.8c0-0.3,0.1-0.8,0.3-1.1
			c0.3-1.6,0.6-3.1,0.6-4.7c0-0.9,0-1.8,0.1-2.7c0-5.2,0.1-10.4,0-15.7c0-0.3-0.1-0.7-0.2-1.1c-0.3-1.3-1.3-1.8-2.4-2.5
			c-1.7-0.1-3.5-0.2-5.3-0.1c-0.1,0.2-0.4,0.3-0.8,0.4c-0.4,0.6-1.3,0.8-1.7,1.6c-0.1,0.2-0.3,0.4-0.4,0.8c-0.2,0.6-0.4,1.1-0.4,1.7
			c-0.2,0.4-0.2,1-0.2,1.5c0,1.8-0.1,3.5-0.2,5.4c-0.2,1.6,0.1,3.3-0.1,4.7c-0.2,1.6-0.3,3.3-0.3,4.8c-0.2,0.6,0,1.2-0.4,1.8
			c-0.1,0.4-0.1,0.8-0.1,1.2c-0.2,0.7-0.1,1.3-0.3,2.1c0,1.2-0.2,2.7-0.7,3.8c-0.4,1.1-0.1,2.6-0.4,3.8c-0.8,2.4-1.1,4.7-1.7,7.1
			c-0.1,0.3-0.2,0.8-0.3,1.1l-1.1,4c0.1,0.2-0.1,0.4-0.3,0.8c-0.3,1.8-0.8,3.6-1.5,5.4c-0.2,0.3-0.3,0.8-0.3,1.1l-0.6,1.7
			c-0.1,0.2-0.3,0.4-0.4,0.8c-0.8,2.6-2,4.9-2.9,7.5c0,0.2-0.2,0.4-0.3,0.7c-0.4,1.3-0.9,2.6-1.5,3.9c-0.1,0.2-0.3,0.4-0.4,0.8
			l-1,2.1c-0.1,0.2-0.3,0.4-0.4,0.8l-3.8,7c0,0.2-0.2,0.6-0.4,0.8c-1.6,2.9-3.3,5.7-4.9,8.5c-2.7,4.5-6,8.7-8.9,12.9
			c-2.2,3.1-4.6,6.1-7.2,9c-2.6,2.9-5.2,5.7-7.6,8.4c-1.1,1.1-2.2,2.1-3.4,3.3c-4.6,4.6-9.4,9.1-14.6,13.1c-0.2,0.6-0.8,0.7-1.1,1
			c-2.5,1.8-4.7,3.9-7.3,5.7c-4.4,3-8.8,5.8-13.1,8.8c-2.9,1.8-6,3.4-9,5.2c-0.2,0.1-0.6,0.2-0.7,0.4l-0.4,0.1
			c-0.1,0.2-0.4,0.3-0.7,0.4l0,0c-0.2,0.1-0.4,0.1-0.7,0.3c-1.7,0.7-3.3,1.5-4.8,2.6c-0.2,0.1-0.6,0.2-0.8,0.3l-6.1,2.5
			c-0.3,0.1-0.8,0.3-1,0.4l-2.9,0.9c-0.2,0.2-0.7,0.3-1,0.3c-0.3-0.1-0.6,0-1,0.1c-1.3,0.4-2.7,1.3-4.3,1.3c-0.3,0-0.8,0.2-1,0.3
			l-0.4,0.1c-0.3,0.3-0.8,0.2-1,0.3l-5.7,1c-0.6,0.2-1.2,0.1-1.7,0.3c-2.2-0.2-4.4,0.8-6.7,0.7c-1.8,0-3.5,0.9-4.4,2.4
			c-0.1,0.2-0.3,0.4-0.3,0.7c-1.1,2.8-0.4,7.1,3.1,8.2c0.3,0.1,0.7,0.3,1.1,0.3l1.3,0.1c3,0.2,6.1-0.6,9-0.6
			c0.6-0.1,1.2-0.2,1.7-0.3h1c0.4-0.1,1-0.1,1.5-0.3l4.7-1c0.3-0.1,0.8-0.2,1-0.3l1.1-0.3c0.3-0.1,0.7-0.3,1-0.3
			c0.6-0.2,1-0.3,1.7-0.4c0.3,0,0.7-0.3,1-0.3c2-0.7,4.2-1.3,6.3-2c2.8-1,5.5-2.4,8.2-3.6c0.2-0.1,0.6-0.2,0.7-0.3
			c1.2-0.6,2.5-1.2,3.7-1.8s2.7-1.6,4.2-2c0.1-0.2,0.4-0.2,0.8-0.4c1.6-0.9,3.1-1.9,4.7-2.8c5.4-3,10.7-6.4,15.6-10
			c2.7-2.1,5.5-4.2,8.2-6.3s5.6-4.5,8.4-6.9c1.9-1.7,3.9-3.3,5.7-5.1c3.8-3.9,7.8-7.6,11.3-11.7c2.8-3,5.4-6.2,8-9.3
			c1.5-1.9,3-3.7,4.4-5.6c0.3-0.6,0.7-1.1,1.1-1.5c2-4,4.9-7,8.2-10.7C277.2,132.9,277.3,132.6,277.3,132.3z"/>
		<path class="st1" d="M291.8,174.4c-0.1-0.7-0.5-3.9-1.2-8.2c-0.7-4.2-1.6-8.2-2.8-12.2c-0.1-0.3-0.3-0.8-0.3-1.1
			c-0.1-0.2-0.1-0.4-0.3-0.8c-0.2-0.1-0.3-0.6-0.4-0.8c-0.1-0.4-0.2-1.1-0.4-1.7c-0.2-0.2-0.2-0.6-0.3-0.8c-0.2-0.8-0.6-1.5-0.9-2.1
			c-0.3-0.3-0.4-0.6-0.4-0.9c-0.1-0.2-0.1-0.3-0.2-0.7c-0.2-0.2-0.3-0.6-0.3-0.9c-0.7-1.7-1.6-3.4-2.7-4.9c-0.2-0.1-0.3-0.4-0.4-0.7
			c-0.1-0.4-0.3-0.9-0.7-1.2c-0.8-1.1-1.7-2.4-2.5-3.6c-0.2-0.2-0.2-0.6-0.3-0.8c-3.1,3.9-6.1,6.6-8.2,10.7c0.4-0.2,0.7,0.2,1.5,1.9
			c0.2,0.1,0.3,0.4,0.4,0.7c1.3,2.2,2.1,4.6,3.5,6.9c0.2,0.1,0.3,0.4,0.3,0.7c0.1,1.3,0.9,2.4,1.1,3.6c0.2,0.1,0.2,0.4,0.3,0.8
			c-0.1,0.8,0.6,1.6,0.6,2.4c0.1,0.4,0.2,1,0.4,1.3c0.3,0.8,0.4,1.6,0.4,2.4c0.2,0.2,0.2,0.8,0.3,1c0.1,1.7,0.7,3.3,0.9,4.8
			c0.4,3.1,0.7,6.4,0.8,9.7c0.1,3.1,0,6.2,0,9.3c-0.2,1.1,0,2.4-0.4,3.6l-0.1,2.7c-0.2,0.7-0.1,1.5-0.4,2.1c-0.2,1.8-0.8,3.6-1,5.6
			c-0.2,0.3-0.3,0.8-0.3,1.1c-0.4,1.5-0.8,2.9-1.3,4.3c-0.7,2.1-1.5,4-2.2,6.1c-0.1,0.2-0.3,0.6-0.4,0.8c-0.3,0.8-0.7,1.3-0.9,2.1
			c-0.7,2.1-1.8,4-3.1,6c0,0.2-0.2,0.6-0.4,0.8c-0.4,1.1-1.1,2.1-1.9,3c0,0.2-0.2,0.6-0.4,0.8c-0.3,0.4-0.7,0.7-0.9,1.1
			c-2.7,4-6.2,7.1-9.6,10.4c-3,3-6.7,4.9-10.3,7.3c-0.1,0.2-0.4,0.3-0.7,0.4c-0.2,0.1-0.4,0.1-0.7,0.4l-0.4,0.1
			c-0.2,0.2-0.6,0.2-0.8,0.4c-1.7,1.2-3.6,2.1-5.6,2.9c-0.2,0.1-0.4,0.1-0.7,0.3l-0.4,0.1c-0.1,0.2-0.4,0.3-0.7,0.3
			c-1,0.4-2,0.8-3.1,1.2c-1.6,0.6-3,1.1-4.7,1.5c-0.2,0.1-0.4,0.2-0.7,0.4c-0.7,0-1.1,0.4-1.8,0.7c-0.2,0.4-0.7,0.3-0.9,0.4
			c-0.9-0.2-1.6,0.4-2.4,0.6c-0.2,0.2-0.7,0.3-1,0.3c-0.8-0.1-1.5,0.3-2.4,0.6c-0.4,0.1-0.9,0.2-1.3,0.4l-1,0.1
			c-0.3,0.1-0.7,0.3-1,0.3h-0.7c-0.2,0.2-0.7,0.3-1,0.3c-1.8,0.2-3.6,0.7-5.2,1.1c-0.3,0.1-0.9,0.1-1.3,0.2
			c-0.2,0.1-0.6,0.1-0.8,0.2l-0.6,0.1c-0.4,0.3-1,0.1-1.3,0.4c-2.5,0-4.9,0.7-7.5,0.9c-0.6,0.3-1.2,0.1-1.7,0.3
			c-1.3-0.2-2.7,0.4-4,0.6c-2.8,0.1-5.6,0.7-8.4,0.8s-5.8,0.8-8.8,0.8c-0.7,0.3-1.5,0.1-2.1,0.2c-0.8-0.1-1.7,0-2.5,0.1
			c-1.9,0.1-3.8,0.1-5.7,0.2c-3.5,0.4-7.1,0.3-10.7,0.6c-4.8,0.2-9.6,0.1-14.4,0.3c-3.8,0.3-7.8-0.1-11.7,0.1
			c-5.3,0.2-10.6-0.1-15.8,0c-5.8,0.1-11.6-0.2-17.3-0.1c-4.5,0.1-9-0.1-13.4-0.1c-0.3-0.1-0.8-0.1-1.1,0c-1.2,0.4-1.7,0-1.7-1.3
			c0.1-0.4,0.2-0.9,0.4-1.5l0.2-0.9c0.3-0.4,0.1-1,0.4-1.5c0-1.1,0.2-2.2,0.6-3.4c0.1-0.4,0.2-0.9,0.4-1.3c0.1-0.4,0.1-0.9,0.1-1.2
			c0.2-0.3,0.3-0.8,0.3-1.1c0.4-2.2,0.9-4.6,1.5-6.9c0.1-0.4,0.3-1,0.4-1.5l1.1-4.6c0.1-0.3,0.1-0.7,0.3-1.1
			c0.1-0.4,0.1-0.9,0.1-1.2s0.2-0.7,0.3-1.1c0.6-2.1,1-4.3,1.7-6.4l1.2-4.5c0.1-0.3,0.3-0.8,0.3-1.1l0.1-0.6
			c0.2-0.3,0.3-0.8,0.4-1.1c0.2-1.2,0.7-2.5,1-3.6c0.2-0.3,0.3-0.7,0.3-1c-0.1-0.2,0-0.6,0.2-0.8c0.7-1.3,1.1-2.8,1.2-4.4
			c0-0.2,0.1-0.6,0.4-0.8c0-0.2,0.1-0.3,0.1-0.6c0.2-0.3,0.3-0.8,0.4-1.1c0.7-2.6,1.8-5.1,2.7-7.5c1-2.7,2-5.5,3-8.2
			c0.1-0.2,0.3-0.4,0.4-0.8c1.2-2.8,2.5-5.6,3.8-8.5c1.1-2.1,2.1-4.3,2.8-6.4c0-0.2,0.1-0.6,0.3-0.7l0.1-0.6
			c0.1-0.2,0.3-0.6,0.4-0.8c0.1-0.2,0.3-0.4,0.3-0.7c1.7-3.3,3.5-6.4,5.4-9.4c0-0.2,0.2-0.6,0.4-0.8c1.2-1.7,1.9-3.7,3.1-5.3
			c0-0.2,0.2-0.6,0.4-0.8c3.4-5.3,7.1-10.3,11.1-15.2c3.3-3.9,6.7-7.6,10.6-11c3.7-3.6,7.8-6.6,12-9.4c0.2-0.1,0.6-0.2,0.7-0.4
			c0.4-0.2,0.8-0.6,1.1-0.9c0.2-0.1,0.6-0.2,0.8-0.4c3.7-2.4,7.8-4.5,11.9-6.2c0.2-0.1,0.4-0.3,0.7-0.3c0.9-0.2,1.7-0.6,2.5-1
			c0.3-0.1,0.8-0.3,1-0.3l0.4-0.1c0.1-0.2,0.6-0.2,0.7-0.4l1.5-0.7c0.3-0.1,0.8-0.2,1.1-0.3l2.4-0.6c0.1-0.2,0.4-0.3,0.8-0.3
			c1.6-0.2,3.1-0.7,4.7-1.1c3.3-0.8,6.5-1.3,9.9-1.8c0.7-0.2,1.5,0,2.2-0.3l3.8-0.1c3-0.1,6-0.3,9-0.2c0.7-0.1,1.5,0,2.1,0.2
			l1.9,0.2c0.3,0.2,0.8,0.2,1.1,0.1c0.6,0,1.1,0.1,1.7,0.2c0.9,0.1,1.9,0.1,2.8,0.2c3.3,0.6,6.5,1,9.8,1.8c0.3,0.2,0.7,0.1,1.1,0.3
			l2.4,0.6c0.3,0.1,0.7,0.2,1.1,0.3l1.2,0.1c0.2,0.1,0.4,0.3,0.7,0.2l6.4,1.9c0.3,0.1,0.7,0.2,1.1,0.3c0.3,0.3,0.7,0.6,1.2,0.4
			c0.2,0,0.6,0.1,0.8,0.4l2.1,1c0.2,0,0.6,0.2,0.8,0.4l0.6,0.2c0.2,0.2,0.4,0.3,0.7,0.3c0.6,0,1.1,0.3,1.6,0.6
			c0.2,0.1,0.6,0.3,0.8,0.4c1.5,0.7,3,1.5,4.6,2.4c7.5,4.3,13.1,9.6,17.2,14.3c0.7-0.1,5.2-0.8,6.5-4c1.1-2.8-0.8-5.7-2.2-8.1
			c-3.7-5.6-8.8-7.8-17.6-13.4c-0.3-0.2-1.3-0.8-2.6-1.6c-1.5-0.8-2.7-1.3-3-1.5c-3.6-1.5-8.2-3.4-9.1-3.7c-0.2-0.1-0.6-0.3-0.8-0.4
			l-0.3-0.1c-0.2,0.1-0.6-0.1-0.8-0.4c-1.2-0.2-2.2-1-3.5-1.1c-0.4-0.2-0.9,0.1-1.2-0.2c-3.6-1.1-7.3-2.2-11-2.9
			c-2.5-0.6-4.9-1-7.5-1.1c-0.3-0.2-0.8-0.3-1.1-0.2c-0.6,0-1.1,0-1.7-0.2c-7.2-0.8-14.4-0.7-21.6-0.1c-0.6,0.1-1.1,0.2-1.8,0.2
			c-0.4,0-0.9,0-1.5,0.1h-0.9c-0.6,0.3-1.2,0.1-1.7,0.3l-6.3,1.1c-0.2,0.2-0.7,0.3-1,0.3c-0.3,0-0.7,0.1-1.1,0.1
			c-3.5,0.9-7.1,2-10.4,3.3c-0.1,0.2-0.4,0.3-0.8,0.3h-0.3c-0.2,0.1-0.4,0.1-0.8,0.3c-1.3,0.4-2.7,0.8-3.8,1.5
			c-2.4,0.9-4.6,1.9-6.7,3.1c-0.2,0.1-0.6,0.2-0.8,0.4l-5.7,3.5c-0.2,0.1-0.6,0.2-0.7,0.4c-3.7,2.4-7.3,4.8-10.8,7.6
			c-3.4,2.7-6.5,5.6-9.7,8.7c-2.7,2.8-5.3,6-7.9,8.8c-1.5,1.7-2.9,3.3-4.3,5.1c-2.4,3.4-4.7,6.7-7.1,10.1c0,0.2-0.2,0.6-0.4,0.8
			l-3.6,5.6c0,0.2-0.2,0.6-0.3,0.7c-1.3,2.4-2.7,4.8-3.9,7.3c-1.2,2.5-2.6,4.7-3.7,7.3c-0.1,0.2-0.3,0.6-0.4,0.8
			c-0.3,0.3-0.6,0.7-0.4,1.2c-0.1,0.2-0.3,0.6-0.4,0.8c-0.8,1.3-1.5,2.7-1.9,4.3c-0.9,2.5-2.1,4.9-3.1,7.4c0,0.2-0.1,0.6-0.4,0.8
			c0,0.1-0.1,0.1-0.1,0.2c-0.1,0.3-0.3,0.7-0.4,1.1c-0.6,1.9-1.5,3.6-2,5.6c0,0.2-0.2,0.6-0.4,0.8l-1.9,5.4c0,0.2-0.1,0.6-0.4,0.8
			c-0.7,1.8-1.2,3.6-1.9,5.4c-0.7,1.8-1.1,3.4-1.7,5.1c-0.1,0.4-0.2,0.8-0.2,1.2c-0.7,1.9-1.1,3.6-1.6,5.5c-0.1,0.4-0.2,0.9-0.4,1.5
			c-0.4,1.2-0.9,2.2-1.1,3.5c-0.2,0.3-0.3,0.8-0.3,1.1c-0.1,0.3-0.3,0.8-0.3,1.1c0,1-0.7,1.9-0.8,2.8c-0.1,0.4-0.2,0.8-0.2,1.2
			l-0.1,0.3c0.1,0.2-0.1,0.6-0.3,0.8l-0.2,1.6c-0.1,0.3-0.2,0.7-0.3,1.1l-0.6,2.4c-0.1,0.4-0.2,1-0.4,1.5c-0.2,0.8-0.3,1.6-0.6,2.4
			c-0.1,0.3-0.2,0.8-0.3,1.1l-0.1,1.2c-0.1,0.4-0.2,1-0.4,1.5c-0.2,1.1-0.3,2.2-0.7,3.4c-0.4,1.8-0.8,3.7-1.2,5.5
			c-0.2,0.6-0.2,1.1-0.4,1.8c0,0.4-0.1,0.9-0.2,1.3c-0.8,2.9-1.5,6-1.8,9c-0.1,0.4-0.2,0.9-0.2,1.2l-0.1,5.6
			c0.2,1.6,1.3,2.8,2.9,3.3c4.4,0.1,8.7,0.2,12.9,0.1c5.7-0.1,11.5,0.1,17.1,0c5.3-0.1,10.4,0.1,15.7,0c10-0.1,19.9,0,29.9,0.1
			c0.9,0.1,1.9,0,2.9-0.2c1.8-0.2,3.6,0.1,5.6-0.2c0.8,0.2,1.5,0.2,2.2,0c0.6,0,1.2,0,1.9,0.1c2.8,0.2,5.6-0.7,8.4-0.4
			c3.7,0.2,7.4-0.6,11.2-0.4c1.9,0.1,3.8-0.2,5.6-0.7c0.8-0.6,1.7-0.2,2.7-0.2c2.4,0.3,4.8-0.6,7.2-0.6c1,0.1,2.1,0,3.3-0.3
			c2-0.8,4.4-0.4,6.6-1c0.8-0.2,1.6-0.3,2.4-0.4c2.1-0.2,4.4-0.4,6.6-1c3-0.8,6.1-1.1,9-1.9c0.3-0.1,0.8-0.3,1.1-0.3
			c1.9-0.2,3.8-0.8,5.7-1.5c0.2-0.2,0.7-0.3,1.1-0.3c1.3-0.4,2.8-0.8,4.2-1.1c0.2-0.2,0.7-0.3,1.1-0.3c0.4-0.1,0.9-0.2,1.2-0.4
			c0.2-0.2,0.7-0.3,1-0.3c1.5-0.3,2.9-0.9,4.4-1.5c0.1-0.2,0.6-0.3,0.8-0.4c0.1,0,0.3,0,0.4,0c0.2-0.1,0.6-0.2,0.8-0.3
			c0.1-0.1,0.1-0.1,0.2-0.2c0.2-0.2,0.4-0.2,0.8-0.3c3.1-1.2,6.3-2.6,9.1-4.3c0.1-0.2,0.4-0.3,0.7-0.4c0.3-0.1,0.9-0.2,1.2-0.6
			c2.6-1.5,5.1-3,7.3-4.8c1.9-1.6,4-3,6-4.6c3.6-3.1,6.9-6.5,9.7-10.3c0.2-0.3,0.4-0.6,0.8-1c1.3-1.9,2.6-3.9,3.9-5.8
			c0-0.2,0.2-0.6,0.4-0.8c1-1.6,1.9-3.3,2.7-4.9c0.1-0.3,0.2-0.7,0.4-1c1-1.8,1.8-3.6,2.5-5.5c0.1-0.3,0.1-0.7,0.3-1
			c0.4-1.5,1.1-2.7,1.3-4.2c0.1-0.3,0.2-0.8,0.3-1.1c0.1-0.3,0.1-0.7,0.2-0.9c0-0.2,0.2-0.6,0.3-0.8c0.2-0.7,0.4-1.3,0.7-2
			c0.1-0.2,0.2-0.6,0.3-1.1C294.2,195,292.9,183.8,291.8,174.4z"/>
	</g>
	<path class="st1" d="M289.8,205.6"/>
	<path class="st1" d="M296.8,229.9"/>
</g>
<path class="st1" d="M250.8,119.2"/>
</svg>
