<?xml version="1.0" encoding="utf-8"?>
<!-- Generator: Adobe Illustrator 24.3.0, SVG Export Plug-In . SVG Version: 6.00 Build 0)  -->
<svg version="1.1" id="Layer_1" xmlns="http://www.w3.org/2000/svg" xmlns:xlink="http://www.w3.org/1999/xlink" x="0px" y="0px"
	 viewBox="0 0 360 360" style="enable-background:new 0 0 360 360;" xml:space="preserve">
<style type="text/css">
	.st0{fill:#2B6C5D;}
</style>
<g id="Layer_4">
	<path class="st0" d="M175.1,234.1c-0.1,0.6-0.2,1.3-0.5,1.9c-0.4,0.7-0.6,1.5-0.7,2.4c0,0.3-0.1,0.5-0.2,0.8
		c-0.1,0.2-0.1,0.3-0.1,0.5c0,0.2-0.1,0.4-0.3,0.6c-0.3,0.5-0.4,1-0.5,1.5c-0.2,1.2-0.6,2.4-0.8,3.7c-0.6,3-1.3,6-1.7,9.1
		c0,0.3-0.1,0.6-0.2,0.8s-0.1,0.4-0.1,0.6c0,0.2-0.1,0.5-0.2,0.7c0.1,0.9-0.4,1.8-0.4,2.7c0,0.3-0.1,0.7-0.1,0.9
		c-0.2,0.8-0.2,1.7,0,2.6c0.1,0.3,0,0.5-0.1,0.8c-0.1,0.2-0.1,0.3-0.1,0.5c0,0.3-0.1,0.5-0.2,0.8c-0.3,2.5-0.5,5-0.5,7.6
		c0.1,0.3,0.1,0.7,0,1.1c-0.1,0.3-0.1,0.6,0,0.8c0.1,0.3,0.1,0.6,0,0.9c-0.1,0.5-0.1,0.9-0.1,1.4c0,0.4,0,0.8,0.1,1.2
		c0.1,2.1-0.1,4.2,0.2,6.3c0.2,1-0.3,2.1,0.2,3.1c0,0.4,0.5,0.9,0.2,1.3c-0.1,1.8,0.1,3.6,0.6,5.4c0.1,0.2,0.1,0.5,0.2,0.7
		c0.1,0.3,0.1,0.7,0,1c0.1,1.4,0.3,2.8,0.6,4.1c0.2,0.8,0.4,1.5,0.5,2.3c1.3,4.3,2.4,8.8,3.7,13.1c0.1,0.3,0.2,0.6,0.5,0.9
		c0.6,1.1,1.6,1.2,2.6,1.4c1.5-0.3,3-0.7,4.4-1.3c0.1-0.2,0.3-0.4,0.5-0.5c0.3-0.6,0.9-1,1-1.7c0.1-0.2,0.2-0.4,0.2-0.7
		c0.1-0.5,0.1-1,0-1.5c0.1-0.4-0.1-0.9-0.2-1.3c-0.4-1.5-0.8-3-1.1-4.5c-0.2-1.4-0.9-2.7-1-3.9c-0.2-1.4-0.5-2.8-0.9-4.2
		c0.1-0.5-0.3-1-0.1-1.6c0-0.4-0.1-0.7-0.2-1.1c0.1-0.6-0.3-1.2-0.2-1.9c-0.3-1.1-0.4-2.3-0.4-3.4c-0.1-1.1-0.5-2.1-0.5-3.3
		c0.1-2.1-0.2-4.2-0.3-6.3c0-0.3,0-0.7,0-1l0-3.6c-0.1-0.2,0-0.5,0.1-0.7c-0.2-1.6-0.2-3.2-0.1-4.8c0.1-0.3,0.1-0.7,0-1
		c0.1-0.5,0-1,0.1-1.5c0.1-0.2,0.2-0.4,0.2-0.7c0.1-2.3,0.5-4.6,0.7-7c0-0.2,0.1-0.4,0.2-0.6c0-1.2,0.2-2.4,0.3-3.6
		c0.1-0.2,0.2-0.4,0.2-0.7l0.4-2c0.1-0.2,0.2-0.4,0.2-0.7l1.6-6.7c0-0.2,0.1-0.5,0.2-0.7c0.6-2.8,1.4-5.6,2.1-8.3
		c1.1-4.4,2.9-8.6,4.3-12.9c1.1-3.2,2.4-6.2,3.8-9.2s2.9-6,4.4-9c0.6-1.2,1.4-2.4,2-3.5c2.7-5,5.7-9.9,9-14.5
		c0.1-0.5,0.5-0.7,0.6-1.1c1.7-2.1,3-4.4,4.7-6.5c2.9-3.6,5.9-7.1,8.9-10.6c2-2.2,4.2-4.3,6.2-6.5c0.2-0.1,0.4-0.3,0.5-0.5l0.4-0.2
		c0.1-0.2,0.3-0.4,0.5-0.5l0,0c0.2-0.1,0.4-0.2,0.5-0.5c1.2-1,2.4-2,3.4-3.3c0.2-0.1,0.4-0.3,0.6-0.5l4.5-3.5
		c0.3-0.2,0.6-0.4,0.8-0.6l2.2-1.5c0.2-0.2,0.5-0.4,0.8-0.5c0.3,0,0.5-0.1,0.7-0.3c1.1-0.7,1.9-1.7,3.3-2.2c0.3-0.1,0.6-0.3,0.8-0.5
		l0.4-0.2c0.2-0.3,0.6-0.3,0.8-0.5l4.6-2.2c0.4-0.3,1-0.4,1.4-0.7c2-0.3,3.6-1.7,5.5-2.1c1.5-0.4,2.7-1.6,3.1-3
		c0.1-0.2,0.2-0.4,0.2-0.7c0.2-2.6-1.4-6-4.6-6.1c-0.3,0-0.6-0.2-1,0l-1.2,0.3c-2.6,0.6-4.9,1.9-7.4,2.6c-0.5,0.3-1,0.5-1.4,0.7
		l-0.9,0.3c-0.4,0.3-0.8,0.3-1.2,0.7l-3.6,1.9c-0.2,0.2-0.6,0.3-0.8,0.5l-0.9,0.6c-0.7,0.4-1.3,0.9-2,1.3c-0.3,0.1-0.5,0.4-0.8,0.5
		c-1.5,1.1-3.2,2.1-4.7,3.2c-2.1,1.5-4,3.2-6,5c-0.2,0.1-0.4,0.3-0.5,0.5c-0.9,0.8-1.8,1.6-2.7,2.4c-1,0.8-1.9,1.9-2.9,2.7
		c-0.1,0.2-0.3,0.3-0.5,0.5c-1.1,1.2-2.2,2.3-3.3,3.5c-3.8,3.8-7.3,7.9-10.6,12.2c-1.8,2.4-3.6,4.8-5.4,7.2
		c-1.9,2.5-3.6,5.1-5.2,7.8c-1.2,1.9-2.5,3.7-3.5,5.6c-2.3,4.1-4.6,8.2-6.7,12.4c-1.6,3.2-3,6.4-4.4,9.8c-0.8,2-1.7,3.8-2.4,5.8
		c-0.2,0.5-0.3,1.1-0.6,1.5c-0.8,3.9-2.5,7-4.2,10.9C175.2,233.7,175.2,233.9,175.1,234.1z"/>
	<path class="st0" d="M147.4,178.7c0.1,0.5,0.5,1,0.3,1.6c0,0.2,0,0.4,0,0.6c0.1,0.5,0.2,1,0.1,1.6c0,0.5,0.2,1.1,0.3,1.6
		c0.2,0.7,0.4,1.4,0.3,2.1c0,0.8,0.2,1.6,0.4,2.3c0.3,0.9,0.5,1.8,0.8,2.8c0.7,2.7,1.7,5.2,2.3,7.9c0.3,1.3,0.7,2.6,1.1,3.7
		c1,2.1,2,4.4,3,6.5c1.6,3.3,3.3,6.4,5.3,9.5c0.2,0.3,0.4,0.6,0.6,0.9c0.1,0.2,0.2,0.4,0.4,0.5c0.2,0.1,0.4,0.3,0.5,0.6
		c0.2,0.4,0.6,0.9,0.8,1.3c0.2,0.2,0.3,0.4,0.4,0.6c0.3,0.6,0.8,1.1,1.3,1.5c0.3,0.2,0.5,0.4,0.6,0.7c0.1,0.2,0.2,0.3,0.3,0.5
		c0.2,0.2,0.4,0.4,0.5,0.7c1,1.2,2.2,2.5,3.4,3.5c0.2,0.1,0.4,0.3,0.5,0.5c0.2,0.3,0.5,0.7,0.9,0.9c1,0.7,2,1.6,3,2.4
		c0.2,0.2,0.3,0.4,0.4,0.6c1.7-4,3.4-7,4.2-10.9c-0.3,0.3-0.6-0.1-1.7-1.2c-0.2-0.1-0.4-0.3-0.5-0.5c-1.7-1.5-2.9-3.3-4.5-4.8
		c-0.2-0.1-0.4-0.3-0.4-0.5c-0.4-1-1.3-1.7-1.8-2.7c-0.2-0.1-0.3-0.3-0.4-0.6c-0.1-0.7-0.9-1.1-1-1.8c-0.2-0.4-0.4-0.8-0.7-1.1
		c-0.4-0.6-0.8-1.2-0.9-1.8c-0.3-0.2-0.3-0.6-0.5-0.8c-0.5-1.4-1.4-2.5-1.9-3.8c-1.2-2.5-2.1-5.2-3-7.8c-0.9-2.7-1.5-5.1-2.3-7.7
		c-0.1-1-0.5-2-0.5-3.1l-0.5-2.3c0.1-0.6-0.3-1.3-0.2-1.9c-0.3-1.6-0.2-3.3-0.6-4.9c0.1-0.3,0.1-0.7,0-1c0-1.3-0.1-2.6,0.1-3.9
		c0.1-1.9,0.3-3.7,0.5-5.6c0.1-0.2,0.2-0.5,0.2-0.7c0.1-0.7,0.2-1.3,0.3-2c0.1-1.9,0.5-3.8,1.2-5.7c0-0.2,0.1-0.5,0.2-0.7
		c0.1-1,0.5-2,0.9-3c0-0.2,0.1-0.5,0.2-0.7c0.2-0.4,0.4-0.7,0.5-1.1c1.3-4,3.4-7.5,5.4-11c1.8-3.2,4.5-5.8,6.9-8.5
		c0.1-0.2,0.3-0.4,0.5-0.5l0,0c0.2-0.1,0.4-0.2,0.5-0.5l0.4-0.2c0.2-0.2,0.4-0.3,0.6-0.5c1.1-1.5,2.4-2.7,4-3.7
		c0.2-0.1,0.4-0.2,0.5-0.4l0.4-0.2c0.1-0.2,0.3-0.3,0.5-0.4c0.8-0.6,1.5-1.3,2.3-1.7c1.1-0.9,2.3-1.6,3.6-2.4
		c0.2-0.1,0.3-0.3,0.5-0.5c0.6-0.1,0.9-0.7,1.3-1c0.1-0.4,0.5-0.4,0.7-0.6c0.7,0,1.2-0.8,1.8-1c0.2-0.2,0.5-0.4,0.8-0.5
		c0.7-0.1,1.2-0.7,1.8-1c0.4-0.2,0.7-0.4,1.1-0.7l0.8-0.3c0.3-0.2,0.5-0.4,0.8-0.5l0.6-0.1c0.2-0.2,0.5-0.4,0.8-0.5
		c1.5-0.6,2.8-1.4,4.1-2.2c0.3-0.2,0.7-0.3,1.1-0.5c0.2-0.1,0.5-0.2,0.7-0.3l0.5-0.2c0.3-0.4,0.8-0.3,1.1-0.7c2.1-0.7,4-1.7,6.1-2.6
		c0.4-0.4,1-0.4,1.5-0.7c1.2-0.2,2.1-1,3.2-1.4c2.3-0.7,4.5-1.9,6.9-2.6c2.4-0.7,4.7-2.1,7.1-2.7c0.5-0.4,1.2-0.5,1.8-0.7
		c0.7-0.1,1.4-0.4,2.1-0.7c1.6-0.6,3.1-1,4.7-1.6c2.8-1.2,5.9-2,8.7-3c3.9-1.3,8-2.4,11.9-3.7c3.1-1.2,6.5-1.8,9.7-2.9
		c4.3-1.5,8.9-2.4,13.2-3.8c4.8-1.6,9.7-2.6,14.5-4.2c3.6-1.1,7.5-2.1,11.1-3.1c0.3,0,0.6-0.1,0.9-0.4c1-0.7,1.4-0.4,1.7,0.7
		c0,0.4,0,0.8,0,1.3l0,0.8c-0.2,0.4,0.2,0.9,0,1.3c0.3,1,0.3,2,0.4,3c0,0.4,0,0.8,0,1.3c0,0.4,0.1,0.7,0.2,1.1c-0.1,0.3-0.1,0.7,0,1
		c0.1,2,0.3,4.1,0.6,6.1c0,0.4,0,0.9,0,1.3l0.1,4.1c0,0.3-0.1,0.6,0,1s0.1,0.7,0.2,1.1c0,0.4-0.1,0.6,0,1c0,1.9,0.1,3.8,0.1,5.7
		c0.1,1.3,0.1,2.7,0.1,4c0,0.3-0.1,0.7,0,1l0,0.5c-0.1,0.3-0.1,0.7,0,1c0.1,1.1,0,2.2,0,3.3c-0.1,0.3-0.1,0.6,0,1
		c0.1,0.2,0.1,0.5,0,0.7c-0.2,1.3-0.2,2.6,0,3.9c0,0.2,0,0.5-0.2,0.7c0,0.2,0,0.3,0,0.5c0,0.3-0.1,0.6,0,1c0,2.3-0.2,4.6-0.5,6.9
		c-0.1,2.5-0.4,5-0.5,7.5c-0.1,0.2-0.2,0.4-0.2,0.7c-0.3,2.6-0.7,5.4-1,8c-0.3,2-0.9,4-0.8,6.1c0,0.2,0,0.5-0.2,0.7l0,0.5
		c-0.1,0.2-0.2,0.5-0.2,0.7c-0.1,0.2-0.2,0.4-0.2,0.6c-0.5,3-1.3,6.1-2.2,9.1c0,0.2-0.1,0.5-0.2,0.7c-0.6,1.7-0.7,3.5-1.4,5.2
		c0,0.2-0.1,0.5-0.2,0.7c-1.6,5.2-3.5,10.3-5.7,15.3c-1.8,4-3.8,7.9-6.2,11.7c-2.3,3.8-4.9,7.4-7.8,10.7c-0.2,0.1-0.4,0.3-0.5,0.5
		c-0.3,0.3-0.6,0.6-0.6,1c-0.2,0.1-0.4,0.3-0.6,0.5c-2.5,2.9-5.4,5.6-8.3,8c-0.2,0.1-0.3,0.4-0.5,0.5c-0.7,0.4-1.2,0.9-1.8,1.4
		c-0.3,0.2-0.6,0.4-0.8,0.5l-0.4,0.3c-0.1,0.2-0.3,0.3-0.5,0.5l-1,0.9c-0.3,0.2-0.6,0.3-0.9,0.6l-1.7,1c-0.1,0.2-0.3,0.4-0.5,0.4
		c-1.3,0.6-2.4,1.3-3.7,2c-2.5,1.5-5.1,2.7-7.8,3.9c-0.5,0.3-1.2,0.4-1.8,0.8l-3.1,1c-2.5,0.8-4.9,1.7-7.5,2.4
		c-0.6,0.2-1.2,0.4-1.9,0.3l-1.7,0.3c-0.3-0.1-0.7,0-1,0.2c-0.5,0.1-1,0.2-1.5,0.2c-0.8,0.1-1.6,0.4-2.4,0.4
		c-2.9,0.3-5.7,0.7-8.6,0.9c-0.3-0.1-0.6,0-1,0l-2.1,0.1c-0.3,0-0.6-0.1-1,0l-1.1,0.2c-0.2-0.1-0.4-0.2-0.7-0.1l-5.8,0
		c-0.3,0-0.7-0.1-1,0c-0.3-0.2-0.7-0.3-1.1-0.1c-0.2,0-0.5,0-0.7-0.2l-2-0.4c-0.2,0-0.5-0.1-0.7-0.2l-0.5,0
		c-0.2-0.2-0.4-0.2-0.7-0.2c-0.5,0.1-1,0-1.4-0.1c-0.2-0.1-0.5-0.2-0.7-0.2c-1.3-0.6-2.9-0.9-4.4-0.8c-2.4,0.1-4.5,3.1-4.3,5.5
		c-0.1,0.8,0.2,1.7,0.6,2.4c0.7,1.3,1.8,2.1,3.2,2.4c1.8,0.5,3.7,0.9,5.5,1.2c2.7,0.5,5.6,0.9,8.5,0.9c0.2,0.1,0.5,0.2,0.7,0.1
		l0.3,0c0.2-0.1,0.5,0,0.7,0.2c1.1-0.1,2.1,0.3,3.2,0.1c0.4,0.1,0.7-0.3,1.1-0.1c3.3,0.1,6.6,0,9.9-0.2c2.2-0.1,4.5-0.4,6.6-1
		c0.3,0.1,0.7,0.1,1-0.1c0.5-0.1,1-0.3,1.5-0.2c6.1-1.2,12.2-2.8,18-5.1c0.5-0.2,0.9-0.5,1.5-0.6c0.4-0.1,0.8-0.2,1.2-0.5l0.8-0.3
		c0.4-0.4,1-0.4,1.4-0.8l5-2.4c0.2-0.2,0.5-0.4,0.8-0.5c0.3-0.1,0.6-0.2,0.9-0.4c2.7-1.6,5.4-3.3,7.9-5.3c0.1-0.2,0.3-0.4,0.5-0.4
		l0.3-0.1c0.2-0.1,0.4-0.2,0.6-0.4c1.1-0.7,2-1.3,2.9-2.2c1.7-1.3,3.3-2.7,4.8-4.3c0.2-0.1,0.4-0.3,0.5-0.5l4-4.2
		c0.2-0.1,0.4-0.3,0.5-0.5c2.5-2.9,5-5.8,7.1-8.9c2.1-3,4.1-6.3,6-9.6c1.6-3,2.9-6.2,4.4-9.3c0.8-1.8,1.7-3.4,2.4-5.3
		c1.2-3.4,2.3-6.8,3.5-10.1c0-0.2,0.1-0.5,0.2-0.7l1.5-5.4c0-0.2,0.1-0.5,0.2-0.7c0.6-2.3,1.1-4.7,1.6-7c0.5-2.3,1-4.6,1.4-7
		c0.1-0.2,0.2-0.5,0.2-0.7c0.2-0.3,0.3-0.7,0.1-1.1c0.1-0.2,0.2-0.5,0.2-0.7c0.3-1.3,0.5-2.6,0.6-4c0.2-2.3,0.6-4.6,0.9-7
		c0-0.2,0-0.5,0.2-0.7c0-0.1,0.1-0.1,0.1-0.2c0-0.3,0.1-0.6,0.1-1c0-1.7,0.4-3.3,0.4-5.1c0-0.2,0.1-0.5,0.2-0.7l0.4-5
		c0-0.2,0-0.5,0.2-0.7c0.1-1.6,0.2-3.3,0.3-4.9s0.1-3.1,0.2-4.7c0-0.4,0-0.7-0.1-1.1c0.1-1.7,0.1-3.3,0-5c0-0.4-0.1-0.9,0-1.3
		c0.1-1.1,0.2-2.1,0-3.2c0.1-0.3,0.1-0.7,0-1l0,0c0-0.3,0.1-0.7,0-1c-0.2-0.8,0.1-1.7-0.1-2.5c0-0.4,0-0.7-0.1-1.1l0-0.3
		c-0.1-0.2,0-0.5,0.1-0.7l-0.2-1.4c0-0.3,0.1-0.6,0-1c0-0.7-0.1-1.4-0.1-2.1c0-0.4,0-0.8,0-1.3l-0.1-2.1c0-0.3,0-0.7,0-1l-0.2-1.1
		c0-0.4-0.1-0.9,0-1.3c-0.1-1-0.2-2-0.3-3c-0.1-1.6-0.2-3.3-0.3-4.9c0.1-0.5-0.1-1-0.1-1.6c-0.1-0.4-0.1-0.8-0.2-1.2
		c-0.1-2.6-0.3-5.3-0.7-7.9c0-0.4,0-0.8-0.1-1.1l-1.3-4.7c-0.7-1.2-1.9-1.9-3.2-1.8c-3.7,0.9-7.3,1.8-10.8,3
		c-4.7,1.5-9.6,2.6-14.3,4.1c-4.3,1.4-8.8,2.4-13.1,3.7c-8.3,2.5-16.6,4.7-24.9,7.1c-0.8,0.1-1.6,0.5-2.4,0.8
		c-1.5,0.6-3.2,0.9-4.6,1.5c-0.7,0-1.3,0.2-1.9,0.5c-0.5,0.1-1.1,0.3-1.6,0.4c-2.4,0.4-4.5,1.9-6.9,2.4c-3.2,0.7-6.1,2.3-9.2,3.2
		c-1.6,0.4-3.1,1.1-4.5,1.9c-0.6,0.6-1.4,0.6-2.2,0.8c-2.1,0.3-3.9,1.6-5.9,2.2c-0.9,0.2-1.8,0.5-2.6,1.1c-1.5,1.2-3.5,1.4-5.3,2.4
		c-0.6,0.3-1.3,0.6-1.9,0.8c-1.8,0.7-3.5,1.5-5.3,2.4c-2.3,1.3-4.8,2.4-7.1,3.8c-0.3,0.2-0.6,0.4-0.9,0.6c-1.6,0.7-3,1.6-4.5,2.6
		c-0.2,0.2-0.5,0.4-0.8,0.5c-1.1,0.7-2.1,1.3-3.2,1.9c-0.2,0.2-0.5,0.4-0.8,0.5c-0.4,0.2-0.7,0.4-1,0.8c-0.2,0.3-0.5,0.4-0.8,0.5
		c-1.2,0.7-2.2,1.4-3.3,2.3c-0.1,0.2-0.4,0.4-0.6,0.5c-0.1,0-0.3,0.1-0.4,0.2c-0.2,0.1-0.4,0.3-0.5,0.4c-0.1,0-0.1,0.1-0.2,0.2
		c-0.2,0.2-0.3,0.3-0.5,0.4c-2.3,1.7-4.5,3.7-6.6,5.7c-0.1,0.2-0.3,0.4-0.5,0.5c-0.3,0.2-0.7,0.4-0.9,0.8c-1.8,1.8-3.4,3.7-5,5.8
		c-1.2,1.8-2.7,3.5-3.8,5.2c-2.3,3.4-4.2,7.1-5.5,11c-0.1,0.3-0.3,0.6-0.4,1c-0.7,1.9-1.3,3.9-1.8,5.8c0,0.2-0.1,0.5-0.2,0.7
		c-0.5,1.5-0.8,3.2-1.1,4.8c0,0.3-0.1,0.7-0.1,0.9c-0.4,1.7-0.6,3.4-0.8,5.2c0,0.3,0,0.6,0,0.9c0,1.3-0.2,2.5-0.2,3.8
		c0,0.3,0,0.7,0,1c0,0.3,0,0.6,0,0.8c0,0.2-0.1,0.5-0.1,0.7c-0.1,0.6,0,1.2,0,1.8c0.1,0.3,0.1,0.7,0,1c-0.1,0.3-0.1,0.6,0.1,0.9
		c0.1,0.3,0.1,0.7,0,1C147.1,176.9,147.1,177.8,147.4,178.7z"/>
</g>
</svg>
