<svg xmlns="http://www.w3.org/2000/svg" viewBox="0 0 360 360"><defs><style>.cls-1{fill:#2b6c5d;}</style></defs><title>leaf_</title><g id="Layer_4" data-name="Layer 4"><path class="cls-1" d="M230.16,140.89a6.84,6.84,0,0,1,.62-1.85,6.35,6.35,0,0,0,.8-2.36,1.79,1.79,0,0,1,.18-.79,1.59,1.59,0,0,0,.13-.52,1.13,1.13,0,0,1,.29-.6,4.28,4.28,0,0,0,.61-1.5c.35-1.19.66-2.38,1-3.58.8-3,1.74-5.92,2.27-9a1.69,1.69,0,0,1,.19-.8,1.49,1.49,0,0,0,.14-.55c0-.23.13-.45.17-.69.05-.94.55-1.79.57-2.73a1.82,1.82,0,0,1,.23-.94,10.87,10.87,0,0,0,.24-2.55,1,1,0,0,1,.12-.75,1.33,1.33,0,0,0,.09-.52,1.83,1.83,0,0,1,.16-.77,54.1,54.1,0,0,0,1-7.6,1.49,1.49,0,0,1,.07-1.06,1.56,1.56,0,0,0,0-.83,1.27,1.27,0,0,1,.08-.94,5.83,5.83,0,0,0,.22-1.43,5.09,5.09,0,0,1,0-1.17c0-2.1.4-4.19.23-6.29-.09-1,.36-2.09,0-3.12,0-.45-.44-.89-.05-1.35a17.41,17.41,0,0,0-.25-5.39q-.09-.36-.15-.72a1.5,1.5,0,0,1,.06-1,15.86,15.86,0,0,0-.43-4.12,11.53,11.53,0,0,1-.37-2.34q-1.42-6.64-2.87-13.3a4.58,4.58,0,0,0-.38-.89c-.46-1.08-1.46-1.34-2.46-1.6a34.28,34.28,0,0,0-4.48.94.93.93,0,0,1-.54.51c-.28.6-1.05.88-1.08,1.64a1.15,1.15,0,0,0-.22.65,4.54,4.54,0,0,0-.15,1.47,2.61,2.61,0,0,0,.12,1.27,39.07,39.07,0,0,1,.76,4.56c.13,1.38.72,2.68.82,4a42.3,42.3,0,0,0,.54,4.2c-.09.52.22,1.05,0,1.58,0,.36.07.73.11,1.1-.09.63.2,1.25.05,1.88a13.12,13.12,0,0,1,.17,3.42c0,1.12.37,2.15.26,3.3-.2,2.09-.09,4.22-.1,6.33a2.14,2.14,0,0,1-.14,1l-.24,3.55c.11.25,0,.45-.12.66a23.5,23.5,0,0,1-.26,4.81,7.52,7.52,0,0,0-.15,1c-.06.49-.11,1-.17,1.46a1.33,1.33,0,0,0-.19.67c-.21,2.32-.77,4.59-1.14,6.89a1.33,1.33,0,0,1-.16.62,31.64,31.64,0,0,1-.5,3.61,1.62,1.62,0,0,0-.2.68l-.5,2a1.12,1.12,0,0,0-.19.67L223,128.3a1.31,1.31,0,0,1-.2.67c-.81,2.76-1.73,5.48-2.64,8.21-1.44,4.32-3.43,8.38-5.14,12.57-1.26,3.07-2.83,6-4.39,9s-3.29,5.76-4.92,8.65c-.67,1.18-1.51,2.25-2.23,3.4a135.79,135.79,0,0,1-9.91,13.9c-.12.47-.53.73-.75,1.12-1.79,2-3.31,4.19-5.09,6.19-3.06,3.43-6.32,6.65-9.52,9.93-2.08,2.13-4.39,4-6.6,6.06a2.45,2.45,0,0,0-.55.47l-.42.24a.94.94,0,0,1-.52.46v0a.92.92,0,0,0-.52.45,29.58,29.58,0,0,0-3.65,3.06,3.21,3.21,0,0,0-.58.45l-4.68,3.16c-.27.2-.57.35-.84.55l-2.28,1.37a1.84,1.84,0,0,1-.82.51,1.44,1.44,0,0,0-.75.32c-1.13.64-2.05,1.64-3.36,2a2.81,2.81,0,0,0-.82.51l-.45.22c-.21.28-.6.27-.84.5l-4.69,1.89c-.43.33-1,.32-1.44.62-2,.23-3.66,1.46-5.64,1.75a4.38,4.38,0,0,0-3.35,2.84,1.28,1.28,0,0,0-.23.65c-.45,2.55,1,6.11,4.21,6.4.34,0,.64.16,1,.14l1.19-.18c2.62-.35,5-1.61,7.5-2.23.46-.25,1-.35,1.43-.64l.9-.21c.36-.25.81-.31,1.16-.57L156.3,231c.25-.21.58-.3.84-.51L158,230a40.05,40.05,0,0,1,2.12-1.21c.3-.14.52-.41.82-.54,1.65-1,3.31-1.93,4.95-2.93,2.23-1.36,4.24-3,6.32-4.57a4.65,4.65,0,0,0,.53-.45c.94-.73,1.87-1.47,2.83-2.19s2-1.82,3.15-2.53a1.6,1.6,0,0,1,.54-.46c1.17-1.07,2.3-2.19,3.46-3.27a130.59,130.59,0,0,0,11.37-11.44q2.9-3.44,5.82-6.85c2-2.39,3.91-4.91,5.75-7.45,1.29-1.79,2.67-3.51,3.85-5.36,2.52-4,5.09-7.91,7.4-12,1.76-3.1,3.45-6.24,5-9.45.9-1.86,1.87-3.67,2.67-5.58a6.57,6.57,0,0,1,.74-1.53c1-3.84,2.92-6.78,4.85-10.63A1.1,1.1,0,0,1,230.16,140.89Z"/><path class="cls-1" d="M254.36,198c-.08-.53-.4-1-.2-1.59a1.47,1.47,0,0,0,0-.59,3.29,3.29,0,0,1,0-1.56,7.15,7.15,0,0,0-.2-1.6,5.49,5.49,0,0,1-.21-2.13,8.22,8.22,0,0,0-.31-2.32c-.2-.92-.4-1.84-.57-2.76-.54-2.68-1.38-5.29-1.8-8a26.12,26.12,0,0,0-.88-3.82c-.89-2.21-1.7-4.46-2.61-6.67a87.85,87.85,0,0,0-4.7-9.78,2.65,2.65,0,0,1-.48-.87,1,1,0,0,0-.42-.55.87.87,0,0,1-.47-.62,10.49,10.49,0,0,0-.72-1.26,2.85,2.85,0,0,1-.43-.6,6,6,0,0,0-1.17-1.57,1.3,1.3,0,0,1-.58-.74,1.14,1.14,0,0,0-.31-.47,1.68,1.68,0,0,1-.49-.66,26.84,26.84,0,0,0-3.16-3.74,1.52,1.52,0,0,1-.47-.54,2.94,2.94,0,0,0-.78-.9c-1-.84-1.89-1.7-2.81-2.57a1.41,1.41,0,0,1-.42-.59c-1.93,3.85-3.85,6.79-4.85,10.63.3-.3.62.15,1.6,1.26a1.11,1.11,0,0,1,.46.52c1.56,1.58,2.7,3.51,4.18,5.16a.81.81,0,0,1,.44.53c.33,1.05,1.19,1.8,1.56,2.82a1,1,0,0,1,.39.57c.13.71.79,1.17.86,1.9.19.38.38.76.6,1.13a4.9,4.9,0,0,1,.83,1.88c.25.23.25.6.51.82.44,1.36,1.24,2.58,1.74,3.89,1,2.62,1.79,5.33,2.53,8s1.22,5.23,1.83,7.85c0,1,.36,2,.33,3.09l.35,2.3c-.09.64.18,1.26.06,1.89.18,1.62-.05,3.25.25,4.86a5.28,5.28,0,0,0-.14,1c-.08,1.3-.12,2.61-.27,3.91-.22,1.87-.52,3.74-.79,5.6a2.49,2.49,0,0,0-.18.7c-.14.66-.33,1.31-.44,2a18.81,18.81,0,0,1-1.55,5.55,2.46,2.46,0,0,1-.21.7,10.46,10.46,0,0,1-1.1,2.91,1.55,1.55,0,0,1-.24.66,11.7,11.7,0,0,0-.56,1.12c-1.49,3.87-3.85,7.25-6.14,10.65-2,3.05-4.78,5.5-7.4,8.05a.94.94,0,0,1-.51.47l0,0a.92.92,0,0,0-.51.46l-.41.24a2.35,2.35,0,0,1-.58.46,19.43,19.43,0,0,1-4.17,3.5.89.89,0,0,0-.53.44l-.43.24a1.22,1.22,0,0,1-.54.44c-.81.55-1.59,1.18-2.44,1.64a25.69,25.69,0,0,1-3.74,2.15c-.2.12-.32.33-.51.46-.57.13-.91.64-1.41.89-.12.35-.47.38-.71.57-.74,0-1.17.74-1.86.89a2.45,2.45,0,0,1-.83.51c-.71.1-1.23.63-1.88.85-.37.21-.74.41-1.13.59l-.76.27a3.36,3.36,0,0,1-.84.49l-.6.14a2.6,2.6,0,0,1-.84.51,25.68,25.68,0,0,0-4.19,1.94,2.67,2.67,0,0,1-1.08.4,1.82,1.82,0,0,0-.66.31l-.46.2c-.28.38-.81.27-1.15.56-2.13.55-4.12,1.49-6.18,2.22-.4.4-1,.31-1.46.61-1.21.12-2.18.93-3.32,1.24-2.35.64-4.61,1.61-7,2.2s-4.81,1.8-7.34,2.27c-.51.44-1.17.38-1.76.56a7.29,7.29,0,0,0-2.1.58c-1.58.51-3.23.76-4.81,1.31-2.91,1-6,1.62-8.93,2.45-4,1.12-8.13,1.85-12.14,3-3.24,1-6.61,1.4-9.88,2.3-4.43,1.22-9,1.88-13.43,3-4.87,1.25-9.84,2-14.73,3.24-3.75.92-7.56,1.59-11.34,2.38a3,3,0,0,0-.95.25c-1,.56-1.45.26-1.65-.76a5.3,5.3,0,0,1,.06-1.26l0-.8c.16-.42-.06-.86.09-1.27a14.25,14.25,0,0,1-.16-3,6.51,6.51,0,0,1,.08-1.25c0-.38-.07-.75-.1-1.12a6.26,6.26,0,0,0,.11-1c0-2-.09-4.09-.14-6.13,0-.43.07-.85.07-1.27l.06-4.14a3.43,3.43,0,0,1,.15-.95c0-.37-.07-.75-.1-1.12s.12-.64.13-1c.06-1.9.13-3.8.2-5.71,0-1.33.1-2.67.15-4a6.3,6.3,0,0,1,.14-1l0-.49a3.48,3.48,0,0,0,.14-1,27.16,27.16,0,0,1,.23-3.25,2.35,2.35,0,0,0,.12-.95,1.33,1.33,0,0,1,0-.74,11.75,11.75,0,0,0,.23-3.88.8.8,0,0,1,.18-.66c0-.17,0-.34,0-.51.05-.32.13-.63.15-1,.15-2.33.56-4.63.87-6.94.34-2.51.69-5,1-7.52a1.44,1.44,0,0,0,.19-.67c.46-2.64,1-5.25,1.56-7.87.39-2,1.15-3.94,1.24-6a.74.74,0,0,1,.21-.65l0-.49a2.34,2.34,0,0,0,.19-.7,4.42,4.42,0,0,0,.24-.6A84.14,84.14,0,0,1,95.08,202a1.41,1.41,0,0,1,.23-.66c.7-1.66.91-3.49,1.73-5.12a1.49,1.49,0,0,1,.23-.67,145,145,0,0,1,6.61-14.93,86.7,86.7,0,0,1,6.9-11.29,69,69,0,0,1,8.39-10.22,1.11,1.11,0,0,0,.49-.47,2.45,2.45,0,0,0,.75-1,2.9,2.9,0,0,0,.57-.48,71.26,71.26,0,0,1,8.85-7.51c.21-.12.32-.36.55-.45a11,11,0,0,0,1.94-1.3c.26-.21.56-.35.84-.54l.42-.25c.11-.22.35-.3.51-.46l1.13-.76c.26-.21.58-.33.86-.53l1.85-.9a.91.91,0,0,1,.55-.41c1.31-.48,2.51-1.19,3.77-1.77a79.66,79.66,0,0,1,8-3.38c.55-.33,1.23-.3,1.76-.66l3.16-.79c2.53-.71,5.05-1.42,7.63-1.91a4.15,4.15,0,0,1,1.88-.21l1.71-.24a1.63,1.63,0,0,0,1-.09,5.7,5.7,0,0,1,1.49-.12c.79-.11,1.57-.29,2.36-.33,2.86-.12,5.7-.42,8.57-.33.31.08.65,0,1,.12l2.06,0c.33,0,.64.15,1,.15l1.09-.08c.21.09.41.22.66.11l5.8.44c.33,0,.65.11,1,.15a1.63,1.63,0,0,0,1.14.21.8.8,0,0,1,.66.19l2,.48a1.92,1.92,0,0,1,.7.19l.47.05a.84.84,0,0,0,.66.21c.51-.13,1,.15,1.43.21a4.52,4.52,0,0,0,.72.2,8.68,8.68,0,0,0,4.3,1.09c2.37,0,4.68-2.78,4.63-5.22a4.11,4.11,0,0,0-.51-2.41,5.07,5.07,0,0,0-3-2.64,32.66,32.66,0,0,0-5.39-1.5,55.14,55.14,0,0,0-8.36-1.44,1.37,1.37,0,0,0-.69-.15l-.3,0a.74.74,0,0,1-.67-.17c-1.08,0-2.13-.43-3.23-.26-.37-.14-.73.29-1.1,0a78.59,78.59,0,0,0-9.94-.38,33,33,0,0,0-6.64.54,2.12,2.12,0,0,0-1,0,3.53,3.53,0,0,1-1.48.13,97.83,97.83,0,0,0-18.31,4,4,4,0,0,1-1.46.46,4.67,4.67,0,0,0-1.2.44l-.76.25c-.39.41-1,.27-1.42.65l-5.11,2.13a2.58,2.58,0,0,1-.85.49,5.82,5.82,0,0,0-.92.3,62.21,62.21,0,0,0-8.17,4.74.62.62,0,0,1-.54.41l-.28.09a1.6,1.6,0,0,0-.57.42,19.51,19.51,0,0,0-3,2,39.63,39.63,0,0,0-5.08,3.94,1.73,1.73,0,0,0-.55.46l-4.23,4a1.22,1.22,0,0,0-.51.47,80.2,80.2,0,0,0-7.66,8.5,105.35,105.35,0,0,0-6.58,9.15c-1.76,2.93-3.36,6-5,8.94-.92,1.67-1.91,3.32-2.67,5.06-1.43,3.28-2.73,6.62-4.08,9.94a1.2,1.2,0,0,1-.23.66l-1.86,5.31a1.12,1.12,0,0,1-.23.65c-.68,2.3-1.38,4.59-2,6.89s-1.33,4.53-1.78,6.85a2.42,2.42,0,0,0-.19.7,2,2,0,0,0-.23,1.12,2.74,2.74,0,0,0-.18.71,18.12,18.12,0,0,0-.83,4c-.33,2.31-.87,4.58-1.32,6.87a.82.82,0,0,1-.18.67.49.49,0,0,0-.08.18c0,.33-.15.64-.17,1-.14,1.69-.65,3.34-.69,5.05a1.39,1.39,0,0,1-.18.66L77,237.55a1,1,0,0,1-.16.68c-.19,1.63-.4,3.26-.58,4.89s-.32,3.1-.48,4.65c0,.36,0,.73,0,1.1a37.78,37.78,0,0,0-.32,5,6.8,6.8,0,0,1-.1,1.27,16.42,16.42,0,0,0-.25,3.21,8,8,0,0,0-.12,1h0a8.16,8.16,0,0,1-.11,1c.19.85-.19,1.69-.08,2.54a5.06,5.06,0,0,0,0,1.1l0,.32c.11.25,0,.46-.1.68l.1,1.37c0,.33-.13.64-.12,1,0,.69,0,1.38,0,2.07-.05.43,0,.85-.1,1.28l0,2.06a5.43,5.43,0,0,1-.1,1l.08,1.08c0,.43,0,.86-.09,1.28,0,1,.1,2,.1,3,0,1.64,0,3.27,0,4.91-.07.52,0,1,0,1.58a5.92,5.92,0,0,1,.13,1.18,56.74,56.74,0,0,0,.21,7.93,11,11,0,0,1,0,1.15l1,4.79A3.51,3.51,0,0,0,79,302.71c3.69-.67,7.36-1.42,11-2.32,4.81-1.19,9.71-1.95,14.52-3.17,4.41-1.11,8.91-1.87,13.35-2.9,8.41-2,16.88-3.69,25.33-5.51a11.14,11.14,0,0,0,2.4-.68c1.53-.51,3.16-.65,4.68-1.18a4.77,4.77,0,0,0,1.9-.41,12.43,12.43,0,0,1,1.6-.27c2.45-.32,4.62-1.58,7-2,3.22-.52,6.2-1.86,9.38-2.53a21.67,21.67,0,0,0,4.64-1.56c.61-.59,1.43-.49,2.16-.69,2.13-.22,4-1.36,6.05-1.83a8.31,8.31,0,0,0,2.67-.88c1.65-1.11,3.65-1.22,5.38-2.06A14,14,0,0,1,193,274a35.57,35.57,0,0,0,5.37-2.09c2.4-1.2,4.92-2.12,7.31-3.34a2.19,2.19,0,0,1,.89-.47,34.33,34.33,0,0,0,4.59-2.27,2.24,2.24,0,0,1,.85-.54c1.09-.57,2.17-1.18,3.26-1.74a2.06,2.06,0,0,1,.85-.51,3.42,3.42,0,0,0,1-.65,1.53,1.53,0,0,1,.84-.49,19.54,19.54,0,0,0,3.36-2.11,1.14,1.14,0,0,1,.62-.48,2.87,2.87,0,0,0,.37-.15c.19-.13.36-.28.54-.41a.91.91,0,0,0,.21-.18,1.84,1.84,0,0,1,.55-.41,61.45,61.45,0,0,0,6.93-5.31,1.55,1.55,0,0,1,.54-.48,4,4,0,0,0,.94-.74,49.83,49.83,0,0,0,5.27-5.5c1.34-1.71,2.9-3.28,4.16-5a49.71,49.71,0,0,0,6.26-10.59c.13-.33.31-.64.47-1,.8-1.87,1.46-3.79,2.16-5.71a1.91,1.91,0,0,1,.24-.68c.57-1.52,1-3.09,1.4-4.66a1.69,1.69,0,0,1,.25-.93,40.56,40.56,0,0,0,1.1-5.12,2.48,2.48,0,0,1,.06-.86c.12-1.28.4-2.54.44-3.83a2.63,2.63,0,0,1,.1-1,3.37,3.37,0,0,0,0-.84,3.86,3.86,0,0,1,.11-.68,13.21,13.21,0,0,0,.15-1.77,1.57,1.57,0,0,1,.07-1,1.57,1.57,0,0,0,0-.86,1.11,1.11,0,0,1,.13-1A7.21,7.21,0,0,0,254.36,198Z"/></g></svg>