<?xml version="1.0" encoding="utf-8"?>
<!-- Generator: Adobe Illustrator 24.3.0, SVG Export Plug-In . SVG Version: 6.00 Build 0)  -->
<svg version="1.1" id="Layer_1" xmlns="http://www.w3.org/2000/svg" xmlns:xlink="http://www.w3.org/1999/xlink" x="0px" y="0px"
	 viewBox="0 0 360 360" style="enable-background:new 0 0 360 360;" xml:space="preserve">
<style type="text/css">
	.st0{fill:#CC7070;}
</style>
<g id="Layer_4">
	<path class="st0" d="M257.1,170.9c-0.1-0.5-0.4-1-0.2-1.6c0-0.2,0-0.4,0-0.6c-0.1-0.5-0.2-1,0-1.6c0-0.5-0.1-1.1-0.2-1.6
		c-0.2-0.7-0.3-1.4-0.2-2.1c0-0.8-0.1-1.6-0.3-2.3c-0.2-0.9-0.4-1.8-0.6-2.8c-0.6-2.7-1.4-5.3-1.8-8c-0.2-1.3-0.5-2.6-0.9-3.8
		c-0.9-2.2-1.7-4.5-2.6-6.7c-1.4-3.4-2.9-6.6-4.7-9.8c-0.2-0.3-0.4-0.6-0.5-0.9c-0.1-0.2-0.2-0.4-0.4-0.6c-0.2-0.1-0.4-0.4-0.5-0.6
		c-0.2-0.4-0.5-0.9-0.7-1.3c-0.2-0.2-0.3-0.4-0.4-0.6c-0.3-0.6-0.7-1.1-1.2-1.6c-0.3-0.2-0.5-0.4-0.6-0.8c-0.1-0.2-0.2-0.3-0.3-0.5
		c-0.2-0.2-0.4-0.4-0.5-0.7c-0.9-1.3-2-2.6-3.2-3.7c-0.2-0.1-0.4-0.3-0.5-0.5c-0.2-0.3-0.5-0.7-0.8-0.9c-1-0.8-1.9-1.7-2.8-2.6
		c-0.2-0.2-0.3-0.4-0.4-0.6c-1.9,3.8-3.9,6.8-4.9,10.6c0.3-0.3,0.6,0.2,1.6,1.3c0.2,0.1,0.4,0.3,0.5,0.5c1.6,1.6,2.7,3.5,4.2,5.2
		c0.2,0.1,0.4,0.3,0.4,0.5c0.3,1.1,1.2,1.8,1.6,2.8c0.2,0.1,0.3,0.3,0.4,0.6c0.1,0.7,0.8,1.2,0.9,1.9c0.2,0.4,0.4,0.8,0.6,1.1
		c0.4,0.6,0.7,1.2,0.8,1.9c0.2,0.2,0.2,0.6,0.5,0.8c0.4,1.4,1.2,2.6,1.7,3.9c1,2.6,1.8,5.3,2.5,8.1c0.7,2.6,1.2,5.2,1.8,7.9
		c0,1,0.4,2.1,0.3,3.1l0.4,2.3c-0.1,0.6,0.2,1.2,0.1,1.9c0.2,1.6-0.1,3.3,0.2,4.9c-0.1,0.3-0.1,0.7-0.1,1c-0.1,1.3-0.1,2.6-0.3,3.9
		c-0.2,1.9-0.5,3.7-0.8,5.6c-0.1,0.2-0.2,0.5-0.2,0.7c-0.1,0.7-0.3,1.3-0.4,2c-0.2,1.9-0.8,3.8-1.6,5.6c0,0.2-0.1,0.5-0.2,0.7
		c-0.2,1-0.6,2-1.1,2.9c0,0.2-0.1,0.5-0.2,0.7c-0.2,0.4-0.4,0.7-0.6,1.1c-1.5,3.9-3.9,7.2-6.1,10.6c-2,3-4.8,5.5-7.4,8
		c-0.1,0.2-0.3,0.4-0.5,0.5l0,0c-0.2,0.1-0.4,0.2-0.5,0.5l-0.4,0.2c-0.2,0.2-0.4,0.3-0.6,0.5c-1.2,1.4-2.6,2.5-4.2,3.5
		c-0.2,0.1-0.4,0.2-0.5,0.4l-0.4,0.2c-0.1,0.2-0.3,0.4-0.6,0.4c-0.8,0.6-1.6,1.2-2.4,1.6c-1.2,0.8-2.4,1.5-3.7,2.1
		c-0.2,0.1-0.3,0.3-0.5,0.4c-0.6,0.1-0.9,0.6-1.4,0.9c-0.1,0.3-0.5,0.4-0.7,0.6c-0.7,0-1.2,0.7-1.9,0.9c-0.2,0.2-0.5,0.4-0.8,0.5
		c-0.7,0.1-1.2,0.6-1.9,0.9c-0.4,0.2-0.7,0.4-1.1,0.6l-0.8,0.3c-0.3,0.2-0.5,0.4-0.9,0.5l-0.6,0.1c-0.2,0.2-0.5,0.4-0.8,0.5
		c-1.5,0.5-2.9,1.2-4.2,1.9c-0.3,0.2-0.7,0.3-1.1,0.4c-0.2,0-0.5,0.2-0.6,0.3l-0.5,0.2c-0.3,0.4-0.8,0.3-1.1,0.6
		c-2.1,0.6-4.1,1.5-6.2,2.2c-0.4,0.4-1,0.3-1.4,0.6c-1.2,0.1-2.2,0.9-3.3,1.2c-2.4,0.6-4.6,1.6-7,2.2c-2.5,0.6-4.8,1.8-7.4,2.3
		c-0.5,0.4-1.2,0.4-1.8,0.6c-0.7,0.1-1.4,0.3-2.1,0.6c-1.6,0.5-3.2,0.8-4.8,1.3c-2.9,1-6,1.6-8.9,2.4c-4,1.1-8.1,1.8-12.1,3
		c-3.2,1-6.6,1.4-9.9,2.3c-4.4,1.2-9,1.9-13.4,3c-4.9,1.2-9.8,2-14.7,3.2c-3.8,0.9-7.6,1.6-11.3,2.4c-0.3,0-0.6,0.1-0.9,0.2
		c-1,0.6-1.4,0.3-1.7-0.8c0-0.4,0-0.8,0.1-1.3v-0.8c0.2-0.4-0.1-0.9,0.1-1.3c-0.2-1-0.2-2-0.2-3c0-0.4,0-0.8,0.1-1.3
		c0-0.4-0.1-0.7-0.1-1.1c0.1-0.3,0.1-0.7,0.1-1c0-2.1-0.1-4.1-0.1-6.1c0-0.4,0.1-0.8,0.1-1.3l0.1-4.1c0-0.3,0-0.7,0.1-1l-0.1-1.1
		c0-0.3,0.1-0.6,0.1-1c0.1-1.9,0.1-3.8,0.2-5.7l0.2-4c0-0.3,0.1-0.7,0.2-1v-0.5c0.1-0.3,0.2-0.7,0.2-1c0-1.1,0.1-2.2,0.2-3.2
		c0.1-0.3,0.2-0.7,0.1-1c-0.1-0.2-0.1-0.5,0-0.7c0.3-1.3,0.4-2.6,0.2-3.9c0-0.2,0-0.5,0.2-0.7c0-0.2,0-0.3,0-0.5
		c0.1-0.3,0.1-0.6,0.2-1c0.2-2.3,0.6-4.6,0.9-6.9c0.3-2.5,0.7-5,1-7.5c0.1-0.2,0.2-0.4,0.2-0.7c0.5-2.6,1-5.2,1.6-7.9
		c0.6-2,1-4,1.2-6c0-0.2,0-0.5,0.2-0.6v-0.5c0.1-0.2,0.2-0.5,0.2-0.7c0.1-0.2,0.2-0.4,0.2-0.6c0.7-3.1,1.6-6.2,2.7-9.2
		c0-0.2,0.1-0.5,0.2-0.7c0.7-1.7,0.9-3.5,1.7-5.1c0-0.2,0.1-0.5,0.2-0.7c1.9-5.1,4.1-10.1,6.6-14.9c2-3.9,4.3-7.7,6.9-11.3
		c2.5-3.6,5.3-6.9,8.4-10c0.2-0.1,0.4-0.3,0.5-0.5c0.3-0.3,0.6-0.6,0.8-1c0.2-0.1,0.4-0.3,0.6-0.5c2.7-2.7,5.7-5.3,8.9-7.5
		c0.2-0.1,0.3-0.3,0.5-0.4c0.7-0.4,1.3-0.8,1.9-1.3c0.3-0.2,0.6-0.4,0.8-0.6l0.4-0.2c0.1-0.2,0.3-0.3,0.5-0.5l1.1-0.8
		c0.3-0.2,0.6-0.3,0.9-0.5l1.9-0.9c0.1-0.2,0.3-0.4,0.6-0.4c1.3-0.5,2.5-1.2,3.8-1.8c2.6-1.3,5.3-2.4,8-3.4c0.5-0.3,1.2-0.3,1.8-0.7
		l3.2-0.8c2.5-0.7,5.1-1.4,7.6-1.9c0.6-0.2,1.2-0.3,1.9-0.2l1.7-0.2c0.3,0.1,0.7,0.1,1-0.1c0.5-0.1,1-0.1,1.5-0.1
		c0.8-0.2,1.6-0.3,2.4-0.3c2.9-0.1,5.7-0.4,8.6-0.3c0.3,0.1,0.7,0,1,0.1h2.1c0.3,0,0.6,0.2,1,0.2l1.1-0.1c0.2,0.1,0.4,0.2,0.6,0.1
		l5.8,0.4c0.3,0,0.6,0.1,1,0.2c0.3,0.2,0.7,0.3,1.1,0.2c0.2,0,0.5,0,0.7,0.2l2,0.5c0.2,0,0.5,0.1,0.7,0.2h0.5
		c0.2,0.2,0.4,0.2,0.7,0.2c0.5-0.1,1,0.2,1.4,0.2c0.2,0.1,0.5,0.2,0.7,0.2c1.3,0.7,2.8,1.1,4.3,1.1c2.4,0,4.7-2.8,4.6-5.2
		c0.1-0.8-0.1-1.7-0.5-2.4c-0.6-1.3-1.7-2.2-3-2.6c-1.8-0.6-3.6-1.2-5.4-1.5c-2.7-0.7-5.5-1.2-8.4-1.4c-0.2-0.1-0.5-0.2-0.7-0.1
		h-0.3c-0.2,0.1-0.5,0-0.7-0.2c-1.1-0.2-2.1-0.2-3.2-0.2c-0.4-0.1-0.7,0.3-1.1,0c-3.3-0.3-6.6-0.5-9.9-0.4c-2.2,0-4.5,0.1-6.6,0.6
		c-0.3-0.1-0.7-0.1-1,0c-0.5,0.1-1,0.2-1.5,0.1c-6.2,0.7-12.3,2.1-18.3,4c-0.5,0.2-0.9,0.4-1.5,0.4c-0.4,0.1-0.8,0.2-1.2,0.4
		l-0.8,0.3c-0.4,0.4-1,0.3-1.4,0.6l-5.1,2.1c-0.2,0.2-0.5,0.4-0.8,0.5c-0.3,0.1-0.6,0.2-0.9,0.3c-2.8,1.4-5.6,2.9-8.2,4.7
		c-0.1,0.2-0.3,0.4-0.5,0.4l-0.3,0.1c-0.2,0.1-0.4,0.2-0.6,0.4c-1.1,0.6-2.1,1.2-3,2c-1.8,1.2-3.5,2.5-5.1,4
		c-0.2,0.1-0.4,0.3-0.6,0.4l-4.2,4c-0.2,0.1-0.4,0.3-0.5,0.5c-2.8,2.6-5.3,5.5-7.7,8.5c-2.4,2.9-4.5,6-6.6,9.2
		c-1.8,2.9-3.4,5.9-5,8.9c-0.9,1.7-1.9,3.3-2.7,5.1c-1.4,3.3-2.7,6.6-4.1,9.9c0,0.2-0.1,0.5-0.2,0.6c-0.6,1.8-1.2,3.5-1.9,5.3
		c0,0.2-0.1,0.5-0.2,0.7c-0.7,2.3-1.4,4.6-2,6.9s-1.3,4.5-1.8,6.9c-0.1,0.2-0.2,0.5-0.2,0.7c-0.3,0.3-0.2,0.7-0.2,1.1
		c-0.1,0.2-0.2,0.5-0.2,0.7c-0.4,1.3-0.7,2.6-0.8,4c-0.3,2.3-0.9,4.6-1.3,6.9c0,0.2,0,0.5-0.2,0.7c0,0.1-0.1,0.1-0.1,0.2
		c0,0.3-0.2,0.6-0.2,1c-0.1,1.7-0.6,3.3-0.7,5c0,0.2-0.1,0.5-0.2,0.7l-0.6,4.9c0,0.2,0,0.5-0.2,0.7c-0.2,1.6-0.4,3.3-0.6,4.9
		s-0.3,3.1-0.5,4.6c0,0.4,0,0.7,0,1.1c-0.2,1.7-0.3,3.3-0.3,5c0,0.4,0,0.9-0.1,1.3c-0.2,1.1-0.3,2.1-0.3,3.2c0,0.3-0.1,0.6-0.1,1
		l0,0c0,0.3,0,0.7-0.1,1c0.2,0.9-0.2,1.7-0.1,2.5c0,0.4,0,0.7,0,1.1v0.3c0.1,0.2,0,0.4-0.1,0.7l0.1,1.4c0,0.3-0.1,0.6-0.1,1
		c0,0.7,0,1.4,0,2.1c-0.1,0.4,0,0.9-0.1,1.3c0,0.7,0,1.4,0,2.1c0,0.3,0,0.7-0.1,1l0.1,1.1c0,0.4,0,0.9-0.1,1.3c0,1,0.1,2,0.1,3
		c0,1.6,0,3.3,0,4.9c-0.1,0.5,0,1.1,0,1.6c0.1,0.4,0.1,0.8,0.1,1.2c-0.1,2.6,0,5.3,0.2,7.9c0,0.4,0,0.8,0,1.1c0.3,1.6,0.7,3.2,1,4.8
		c0.5,1.3,1.7,2.1,3.1,2.2c3.7-0.7,7.4-1.4,11-2.3c4.8-1.2,9.7-2,14.5-3.2c4.4-1.1,8.9-1.9,13.3-2.9c8.4-2,16.9-3.7,25.3-5.5
		c0.8-0.1,1.6-0.4,2.4-0.7c1.5-0.5,3.1-0.7,4.7-1.2c0.7,0,1.3-0.2,1.9-0.4c0.5-0.1,1.1-0.2,1.6-0.3c2.4-0.3,4.6-1.6,7-2
		c3.2-0.5,6.2-1.9,9.4-2.5c1.6-0.3,3.2-0.9,4.6-1.6c0.6-0.6,1.4-0.5,2.2-0.7c2.1-0.2,4-1.4,6.1-1.8c0.9-0.1,1.8-0.4,2.7-0.9
		c1.6-1.1,3.6-1.2,5.4-2c0.6-0.3,1.3-0.6,1.9-0.8c1.8-0.5,3.6-1.2,5.4-2.1c2.4-1.2,4.9-2.1,7.3-3.3c0.3-0.2,0.6-0.4,0.9-0.5
		c1.6-0.6,3.1-1.4,4.6-2.3c0.2-0.2,0.5-0.4,0.9-0.5c1.1-0.6,2.2-1.2,3.3-1.7c0.2-0.2,0.5-0.4,0.9-0.5c0.4-0.2,0.7-0.4,1-0.6
		c0.2-0.3,0.5-0.4,0.8-0.5c1.2-0.6,2.3-1.3,3.4-2.1c0.1-0.2,0.4-0.4,0.6-0.5c0.1,0,0.3-0.1,0.4-0.2c0.2-0.1,0.4-0.3,0.5-0.4l0.2-0.2
		c0.2-0.2,0.3-0.3,0.6-0.4c2.4-1.6,4.7-3.4,6.9-5.3c0.1-0.2,0.3-0.4,0.5-0.5c0.3-0.2,0.7-0.4,0.9-0.7c1.8-1.7,3.5-3.6,5.1-5.5
		c1.3-1.7,2.9-3.3,4.2-5c2.5-3.3,4.6-6.8,6.2-10.6c0.1-0.3,0.3-0.6,0.5-1c0.8-1.9,1.5-3.8,2.2-5.7c0-0.2,0.1-0.5,0.2-0.7
		c0.6-1.5,1-3.1,1.4-4.7c0-0.3,0.1-0.6,0.2-0.9c0.5-1.7,0.8-3.4,1.1-5.1c0-0.3,0-0.6,0.1-0.9c0.1-1.3,0.4-2.5,0.4-3.8
		c0-0.3,0-0.7,0.1-1c0-0.3,0-0.6,0-0.8c0-0.2,0-0.5,0.1-0.7c0.1-0.6,0.1-1.2,0.1-1.8c-0.1-0.3-0.1-0.7,0.1-1c0.1-0.3,0.1-0.6,0-0.9
		c-0.1-0.3-0.1-0.7,0.1-1C257.3,172.6,257.3,171.8,257.1,170.9z"/>
	<path class="st0" d="M233.2,116.7l-0.3-0.1l1.2,0.5c-0.2-0.1-0.3-0.1-0.4-0.2l1,0.8c-0.1-0.1-0.3-0.3-0.4-0.4l0.8,1
		c-0.1-0.2-0.2-0.3-0.3-0.5l0.5,1.2c-0.1-0.2-0.1-0.4-0.1-0.6l0.2,1.3c0-0.2,0-0.4,0-0.5l-0.2,1.3c0-0.1,0-0.2,0.1-0.3l-8.4,2.2
		l2.5,2.5c0.4,0.5,1,0.8,1.6,1c1.2,0.6,2.6,0.6,3.9,0c0.6-0.2,1.2-0.5,1.6-1l0.8-1c0.4-0.8,0.7-1.6,0.7-2.5l-0.2-1.3
		c-0.2-0.8-0.7-1.6-1.3-2.2l-2.5-2.5c-1.3-1.3-3.1-1.8-4.9-1.3c-0.8,0.2-1.6,0.7-2.2,1.3c-0.6,0.6-1.1,1.4-1.3,2.2
		c-0.2,0.6-0.2,1.2-0.3,1.7c0,0.2,0,0.3,0,0.5c0,0.6,0.1,1.2,0.3,1.7c0.2,0.5,0.4,1.1,0.7,1.6l0.1,0.2l0.1,0.1
		c0.3,0.3,0.6,0.7,0.8,1.1c0.1,0.1,0.2,0.2,0.3,0.3c0.4,0.4,0.9,0.7,1.4,1h0.1c0.4,0.2,0.9,0.4,1.3,0.5l0.2,0.1
		c0.6,0.2,1.3,0.2,2,0.1c0.7,0,1.3-0.2,1.9-0.6c0.6-0.3,1.1-0.7,1.4-1.3c0.4-0.5,0.7-1.1,0.9-1.7l0.2-1.3c0-0.9-0.2-1.8-0.7-2.5
		l-0.8-1C234.7,117.3,234,116.9,233.2,116.7L233.2,116.7z"/>
</g>
</svg>
