<svg xmlns="http://www.w3.org/2000/svg" viewBox="0 0 360 360"><defs><style>.cls-1{fill:#87b767;}</style></defs><title>Artboard 4leaf_empty</title><g id="Layer_4" data-name="Layer 4"><path class="cls-1" d="M257.1,170.94c-.07-.53-.39-1-.19-1.6a1.67,1.67,0,0,0,0-.59,3.38,3.38,0,0,1-.05-1.55,6.69,6.69,0,0,0-.19-1.61,5.29,5.29,0,0,1-.21-2.13,8.32,8.32,0,0,0-.31-2.32c-.2-.92-.4-1.84-.57-2.76-.55-2.68-1.38-5.29-1.8-8a27.15,27.15,0,0,0-.88-3.82c-.89-2.22-1.7-4.46-2.61-6.67a91.69,91.69,0,0,0-4.7-9.79,2.48,2.48,0,0,1-.48-.87,1.09,1.09,0,0,0-.42-.55.87.87,0,0,1-.47-.62,12.05,12.05,0,0,0-.72-1.26,2.79,2.79,0,0,1-.43-.59,6.18,6.18,0,0,0-1.17-1.57,1.42,1.42,0,0,1-.59-.75,1.08,1.08,0,0,0-.3-.46,1.71,1.71,0,0,1-.49-.67,26.84,26.84,0,0,0-3.16-3.74,1.41,1.41,0,0,1-.47-.53,3.25,3.25,0,0,0-.78-.91c-1-.83-1.9-1.69-2.82-2.57a1.45,1.45,0,0,1-.41-.58c-1.93,3.84-3.85,6.79-4.85,10.62.3-.3.61.16,1.6,1.26a1.22,1.22,0,0,1,.46.52c1.56,1.59,2.69,3.52,4.18,5.17a.81.81,0,0,1,.44.53c.32,1.05,1.19,1.79,1.55,2.82a1,1,0,0,1,.4.57c.13.7.79,1.17.86,1.89a11.05,11.05,0,0,0,.6,1.13,5,5,0,0,1,.83,1.88c.24.23.25.61.51.83.44,1.36,1.24,2.57,1.74,3.88a84.29,84.29,0,0,1,2.52,8.05c.71,2.59,1.23,5.23,1.84,7.85,0,1,.36,2.05.33,3.09l.35,2.31c-.09.63.18,1.25.06,1.88.18,1.62-.06,3.26.24,4.87a6.16,6.16,0,0,0-.13,1c-.09,1.3-.12,2.62-.27,3.91-.22,1.88-.52,3.74-.79,5.61a1.86,1.86,0,0,0-.18.7c-.15.66-.33,1.31-.44,2a18.81,18.81,0,0,1-1.55,5.55,2.52,2.52,0,0,1-.21.71,10.4,10.4,0,0,1-1.1,2.9,1.69,1.69,0,0,1-.24.66c-.19.38-.41.74-.56,1.13-1.49,3.87-3.86,7.24-6.14,10.65-2,3-4.79,5.5-7.4,8a1,1,0,0,1-.51.47l0,0a.92.92,0,0,0-.51.46l-.41.24a2.56,2.56,0,0,1-.58.46,19.73,19.73,0,0,1-4.17,3.51.86.86,0,0,0-.53.44l-.43.23a1.28,1.28,0,0,1-.55.45c-.81.55-1.58,1.17-2.44,1.64a25.59,25.59,0,0,1-3.73,2.15c-.2.12-.32.32-.51.45-.57.14-.92.64-1.41.9-.12.34-.47.38-.71.57-.74,0-1.17.73-1.86.88a2.3,2.3,0,0,1-.83.51c-.71.1-1.23.63-1.89.85a9.32,9.32,0,0,1-1.13.59l-.75.27a2.9,2.9,0,0,1-.85.49l-.59.14a2.29,2.29,0,0,1-.84.51,25.73,25.73,0,0,0-4.19,1.95,3,3,0,0,1-1.09.4,1.61,1.61,0,0,0-.65.3l-.46.21c-.29.38-.81.27-1.15.55-2.13.56-4.12,1.49-6.19,2.22-.4.41-1,.31-1.45.62-1.22.12-2.18.92-3.32,1.23-2.36.65-4.62,1.62-7,2.2-2.5.62-4.81,1.8-7.35,2.28-.5.43-1.16.37-1.75.56a7.42,7.42,0,0,0-2.11.57c-1.58.51-3.22.76-4.8,1.32-2.91,1-6,1.62-8.93,2.45-4,1.12-8.13,1.84-12.14,3-3.24,1-6.62,1.4-9.89,2.3-4.42,1.21-9,1.88-13.42,3-4.87,1.24-9.85,2-14.73,3.23-3.75.93-7.56,1.59-11.35,2.38a3.18,3.18,0,0,0-.94.25c-1,.57-1.45.26-1.65-.76a4.85,4.85,0,0,1,.06-1.26l0-.8c.16-.41-.06-.85.08-1.27a14.16,14.16,0,0,1-.15-3,5.89,5.89,0,0,1,.08-1.26c0-.37-.07-.74-.1-1.11a6.4,6.4,0,0,0,.11-1c0-2.05-.09-4.09-.14-6.14,0-.42.06-.84.07-1.27l.06-4.13a3.48,3.48,0,0,1,.14-1l-.09-1.11c0-.33.12-.64.13-1,.06-1.91.13-3.81.19-5.71l.15-4a6.64,6.64,0,0,1,.15-1v-.49a3.11,3.11,0,0,0,.15-1,27,27,0,0,1,.23-3.24,2.42,2.42,0,0,0,.12-1,1.39,1.39,0,0,1,0-.73,11.52,11.52,0,0,0,.24-3.88.78.78,0,0,1,.18-.67c0-.17,0-.34,0-.5.05-.32.13-.64.15-1,.15-2.33.55-4.63.87-6.94.33-2.51.69-5,1-7.53a1.42,1.42,0,0,0,.2-.67c.46-2.63,1-5.24,1.55-7.87a40.71,40.71,0,0,0,1.25-6,.74.74,0,0,1,.21-.65l0-.48a2.42,2.42,0,0,0,.19-.7,3.47,3.47,0,0,0,.23-.61,86.29,86.29,0,0,1,2.72-9.18,1.35,1.35,0,0,1,.23-.67c.7-1.66.91-3.49,1.73-5.11a1.45,1.45,0,0,1,.23-.67,145.18,145.18,0,0,1,6.61-14.94,88.43,88.43,0,0,1,6.89-11.29A70.83,70.83,0,0,1,121.91,132a1,1,0,0,0,.5-.47,2.48,2.48,0,0,0,.75-1,3.72,3.72,0,0,0,.56-.48,70.58,70.58,0,0,1,8.86-7.52c.21-.12.32-.35.54-.45a11,11,0,0,0,1.95-1.29c.26-.21.56-.36.83-.55l.43-.25c.11-.22.34-.29.5-.46l1.14-.75c.26-.22.58-.34.85-.54l1.85-.89a.94.94,0,0,1,.56-.42c1.31-.47,2.5-1.19,3.77-1.76a77.39,77.39,0,0,1,8-3.38c.54-.34,1.22-.31,1.75-.67l3.17-.79c2.52-.71,5.05-1.41,7.63-1.91a4.27,4.27,0,0,1,1.88-.21l1.71-.24a1.47,1.47,0,0,0,1-.09,5.81,5.81,0,0,1,1.5-.11,20.93,20.93,0,0,1,2.36-.33c2.85-.13,5.7-.42,8.56-.34.32.09.66,0,1,.13l2.06,0c.33,0,.64.16,1,.15l1.09-.08c.21.1.41.23.65.12l5.81.43c.33,0,.65.11,1,.16a1.69,1.69,0,0,0,1.14.21.81.81,0,0,1,.67.19l2,.47a2.2,2.2,0,0,1,.71.19l.47,0a.84.84,0,0,0,.66.21c.5-.13,1,.16,1.42.21a4.64,4.64,0,0,0,.73.2,8.66,8.66,0,0,0,4.3,1.1c2.37,0,4.67-2.78,4.63-5.23a4.15,4.15,0,0,0-.52-2.41,5.05,5.05,0,0,0-3-2.64,33.78,33.78,0,0,0-5.4-1.5,54.8,54.8,0,0,0-8.35-1.44,1.38,1.38,0,0,0-.69-.14l-.3,0a.71.71,0,0,1-.67-.17,21.75,21.75,0,0,0-3.23-.25c-.37-.14-.73.29-1.1,0a78.67,78.67,0,0,0-9.94-.38,32.25,32.25,0,0,0-6.64.55,2.11,2.11,0,0,0-1,0,3.53,3.53,0,0,1-1.48.13,97.06,97.06,0,0,0-18.31,4,4,4,0,0,1-1.46.45,5.15,5.15,0,0,0-1.21.44l-.75.26c-.39.4-1,.27-1.42.64l-5.12,2.14a2.42,2.42,0,0,1-.84.48,5.53,5.53,0,0,0-.92.31,61.5,61.5,0,0,0-8.17,4.73.64.64,0,0,1-.54.42l-.29.09a1.45,1.45,0,0,0-.56.42,20,20,0,0,0-3,2,39.41,39.41,0,0,0-5.07,4,1.52,1.52,0,0,0-.55.45l-4.24,4a1.28,1.28,0,0,0-.5.48,82.32,82.32,0,0,0-7.67,8.49,105.39,105.39,0,0,0-6.57,9.16c-1.76,2.92-3.37,5.94-5,8.93-.92,1.67-1.9,3.32-2.66,5.06-1.43,3.29-2.73,6.63-4.08,9.95a1.38,1.38,0,0,1-.23.65q-.94,2.66-1.87,5.31a1.19,1.19,0,0,1-.22.66c-.68,2.29-1.38,4.58-2,6.88s-1.32,4.54-1.77,6.86a2.09,2.09,0,0,0-.19.69c-.27.34-.19.74-.23,1.12a2.58,2.58,0,0,0-.19.71,18.8,18.8,0,0,0-.83,4c-.32,2.3-.87,4.58-1.32,6.87a.79.79,0,0,1-.17.66.71.71,0,0,0-.08.18c0,.33-.15.64-.18,1-.14,1.7-.64,3.34-.68,5a1.56,1.56,0,0,1-.18.67l-.56,4.87a1,1,0,0,1-.16.68c-.2,1.63-.4,3.26-.59,4.89s-.32,3.09-.48,4.64c0,.37,0,.74,0,1.1a37.89,37.89,0,0,0-.32,5,7.68,7.68,0,0,1-.1,1.27,17.42,17.42,0,0,0-.26,3.22c0,.32-.12.64-.12,1h0a6.51,6.51,0,0,1-.1,1c.19.85-.19,1.69-.08,2.54a5.67,5.67,0,0,0,0,1.09l0,.33c.11.25,0,.45-.1.67l.1,1.38c0,.32-.13.64-.12,1,0,.7,0,1.39,0,2.08-.05.42,0,.85-.1,1.27,0,.69,0,1.38,0,2.06a5.41,5.41,0,0,1-.09,1l.08,1.09c0,.42,0,.85-.09,1.28,0,1,.09,2,.1,3,0,1.64,0,3.28,0,4.91-.07.53,0,1.06,0,1.58a8.17,8.17,0,0,1,.13,1.19,58.31,58.31,0,0,0,.2,7.93,10.87,10.87,0,0,1,0,1.14c.33,1.6.66,3.2,1,4.79a3.55,3.55,0,0,0,3.07,2.18c3.69-.67,7.36-1.42,11-2.32,4.8-1.2,9.71-2,14.52-3.17,4.41-1.12,8.91-1.88,13.35-2.91,8.41-2,16.88-3.69,25.33-5.51a10.57,10.57,0,0,0,2.4-.67c1.53-.52,3.15-.66,4.68-1.18a5,5,0,0,0,1.9-.42,12.43,12.43,0,0,1,1.6-.27c2.45-.32,4.62-1.58,7-2,3.21-.52,6.2-1.86,9.38-2.53a21.67,21.67,0,0,0,4.64-1.56c.6-.59,1.43-.49,2.16-.7,2.13-.21,4-1.36,6.05-1.83a8.07,8.07,0,0,0,2.67-.88c1.65-1.1,3.64-1.21,5.38-2a13.07,13.07,0,0,1,1.92-.78,34.93,34.93,0,0,0,5.37-2.09c2.4-1.2,4.92-2.12,7.31-3.34a2.17,2.17,0,0,1,.89-.46,34.89,34.89,0,0,0,4.58-2.28,2.46,2.46,0,0,1,.85-.54c1.1-.56,2.17-1.17,3.27-1.74a2.06,2.06,0,0,1,.85-.51,3.53,3.53,0,0,0,1-.64,1.49,1.49,0,0,1,.84-.5,19.54,19.54,0,0,0,3.36-2.11,1.14,1.14,0,0,1,.61-.47,1.8,1.8,0,0,0,.38-.16c.19-.12.36-.27.54-.4l.21-.18a1.84,1.84,0,0,1,.55-.41,61.53,61.53,0,0,0,6.93-5.32,1.56,1.56,0,0,1,.54-.48,3.94,3.94,0,0,0,.94-.74A49.87,49.87,0,0,0,240,219c1.34-1.71,2.9-3.28,4.16-5a49.26,49.26,0,0,0,6.25-10.59c.14-.33.32-.63.47-1,.8-1.87,1.47-3.8,2.16-5.71a1.8,1.8,0,0,1,.25-.68c.57-1.53,1-3.1,1.39-4.67a1.88,1.88,0,0,1,.25-.93,40.83,40.83,0,0,0,1.11-5.11,2.53,2.53,0,0,1,.06-.87c.12-1.28.39-2.54.44-3.83a2.66,2.66,0,0,1,.1-1,3.29,3.29,0,0,0,0-.83,3.2,3.2,0,0,1,.11-.69,13.07,13.07,0,0,0,.15-1.77,1.58,1.58,0,0,1,.07-1,1.54,1.54,0,0,0,0-.85,1.12,1.12,0,0,1,.13-1A7.16,7.16,0,0,0,257.1,170.94Z"/><path class="cls-1" d="M233.16,116.68l-.27-.09,1.2.5a2.09,2.09,0,0,1-.43-.25l1,.79a2.52,2.52,0,0,1-.4-.4l.78,1a2.43,2.43,0,0,1-.3-.52l.5,1.19a2.18,2.18,0,0,1-.15-.57l.17,1.33a2.35,2.35,0,0,1,0-.53l-.17,1.33a1.3,1.3,0,0,1,.08-.34l-8.36,2.2,2.52,2.52a3.69,3.69,0,0,0,1.61,1,4.43,4.43,0,0,0,3.85,0,3.69,3.69,0,0,0,1.61-1l.78-1a5,5,0,0,0,.68-2.52l-.17-1.33a5,5,0,0,0-1.29-2.21l-2.52-2.52A5,5,0,0,0,229,114a4.89,4.89,0,0,0-2.21,1.28,5.05,5.05,0,0,0-1.29,2.21,8,8,0,0,0-.26,1.74,2.36,2.36,0,0,0,0,.46,9.08,9.08,0,0,0,.28,1.74,9.84,9.84,0,0,0,.66,1.57l.12.19.06.09c.26.35.55.73.83,1.07a1.94,1.94,0,0,0,.32.32,8.62,8.62,0,0,0,1.36,1l.1,0c.39.18.85.38,1.26.53l.23.08a3.78,3.78,0,0,0,2,.09,3.74,3.74,0,0,0,1.85-.59,3.89,3.89,0,0,0,1.41-1.29,3.72,3.72,0,0,0,.89-1.7l.18-1.33a5,5,0,0,0-.68-2.52l-.78-1a5,5,0,0,0-2.21-1.28Z"/></g></svg>