<?xml version="1.0" encoding="utf-8"?>
<!-- Generator: Adobe Illustrator 25.4.1, SVG Export Plug-In . SVG Version: 6.00 Build 0)  -->
<svg version="1.1" id="Layer_5" xmlns="http://www.w3.org/2000/svg" xmlns:xlink="http://www.w3.org/1999/xlink" x="0px" y="0px"
	 viewBox="0 0 506 261.1" style="enable-background:new 0 0 506 261.1;" xml:space="preserve">
<style type="text/css">
	.st0{fill:#45857A;stroke:#45857A;stroke-miterlimit:10;}
	.st1{fill:#57A16F;stroke:#57A16F;stroke-miterlimit:10;}
	.st2{fill:#CEA084;}
	.st3{fill:none;}
	.st4{fill:#006D5B;}
	.st5{font-family:'Raleway-Medium';}
	.st6{font-size:32px;}
	.st7{font-family:'Raleway-Bold';}
	.st8{font-size:52px;}
	.st9{font-family:'Raleway-BoldItalic';}
</style>
<g id="Layer_2_1_">
	<path class="st0" d="M152.6,117.3l0.2-0.7c2.4-6.8,9.9-27.7,29-44.7c9.5-8.5,19.2-14.2,19.9-11.5c0.3,1.1,0,1.8,0.6,4.4
		c1.4,5.6,17.2,10.4,28.7,5.6c12.2-5.1,7.8-16.1,24.5-32c5-4.8,15.3-14.7,30.4-16.8c6.8-1,11.2,0.1,11.5-1.2
		c0.7-2.7-16.6-13.3-35.8-12.9c-10.4,0.2-20.3,5.8-40.1,16.8c-14.7,8.2-22.4,14.6-21.9,21c0.2,2.9,2,4.9,1,8.2c-1.1,3.5-4.4,5-9.3,8
		c-4.4,2.7-8.8,5.6-12.4,9.2c-6.2,6.4-20.4,23.3-26.1,45.9"/>
</g>
<g id="Layer_3">
	<path class="st1" d="M152.8,116.6c0.2-0.6,0.6-1.4,1-2.4c1.1-2.4,3-6.8,5.6-12c1.9-3.8,3.1-6.2,5.1-9.5c1.6-2.8,3.4-5.4,5.3-8
		c1.8-2.4,3.3-4,4.4-5.3c3.3-3.7,6.8-7,10.6-10.1c5.6-4.5,9.4-6.3,14.4-9.3c4.7-2.8,15-10.9,35.6-27.1c2.9-2.3,6-4.4,9.2-6.3
		c2.7-1.6,5.1-2.8,5.8-3.2c0,0,2.2-1.1,4.3-2c12-5.2,21.4-5.1,21.4-5.1c11.8,0.2,20.2,6.4,21.7,4.3c0.8-1.1-1.3-1.6-3.4-2.6
		c-1.8-0.6-3.6-1.2-5.4-1.5c-3.2-1-2.1-0.6-6.7-2.1c-3.3-1.1-6.8-1.5-10.3-1.3c-2.9,0.2-5.1,0.9-9.1,2.1c-2.2,0.7-3.2,1.3-6.7,2.1
		c-4.3,1-3.6,0.8-5,1.4c-5.6,2.3-6.9,4.3-14.5,9.7c-3.5,2.5-3.1,1.6-6.5,4.2c-6.1,4.8-6.8,5.8-15,12.5c-4.2,3.5-8.6,6.8-13.2,9.9
		c-0.8,0.5-2.2,1.4-4.9,3.1c-8.9,5.6-10.2,6.2-13.1,8.5c-2.2,1.8-4.3,3.7-6.3,5.8c-2.5,2.6-4.8,5.4-6.9,8.4
		C166.2,86.5,156.2,99.6,152.8,116.6z"/>
</g>
<path class="st2" d="M176.6,116.2c1.1-3.8,0.6-6.2,0.7-10c0.1-4.5,0.8-3.4,1.4-9.8c0.4-5.1,0.1-7.4,1.3-11.4c0.4-1.4,1-2.8,1.6-4.2
	c-0.2-1.3-1-2.5-2.1-3.2c-2.1-1.2-4.4,0-4.9,0.3c-1.7,1-2.9,2.8-3.2,4.7c0-3.1-2.5-5.7-5.7-5.7c-0.3,0-0.7,0-1,0.1
	c-1.8,0.2-2.5,1.1-7.1,5.4c-4.1,3.9-5.6,5-7.6,6.1c-1.6,0.9-1.6,0.7-3,1.5c-3.1,1.8-4.6,3.8-6.5,5.9c-2.9,3.2-6.2,6-10,8.1
	c-2.3,1.1-4.7,2-7.2,2.5c-8.6,2.3-14.6,3.9-18.7,5.2c-4.3,1.4-9,3.6-18.4,8c-7.1,3.3-12.4,6-12.9,6.2c-8.2,4.1-27.4,11-72.9,23.3
	C-33,192-45.8,218.3-37.9,228.1c4.3,5.3,14.7,5.8,31.2,1.4c47.3-34.8,82.1-60,88.2-63.8c1-0.6,3.4-2.1,5.9-3.5
	c8.2-4.7,10.4-5.4,11.5-5.6c2.6-0.7,4.6-0.7,8.9-0.7c5.5,0,6.4,0.6,13.4,1.1c9.1,0.6,9-0.3,13.6,0.7c3.3,0.7,4.9,1.6,8.5,1.6
	c2.5,0,4.9-0.3,7.3-1c2.9-0.7,4.4-1.1,5.7-2.4c1.6-1.5,1.9-3.3,2.4-5c1.2-4.4,3.2-7.8,7.1-14.7c1-1.8,2.2-3.6,4.4-7.1
	c2-2.9,3.7-5.9,5.1-9C175.7,118.8,176.2,117.5,176.6,116.2z M156.7,117.9c-1.6,2.6-2.9,5.3-3.9,8.1c-1.1,1.5-2.5,2.7-4,3.7
	c-0.9,0.6-4.9,3.2-6.5,1.9c-0.8-0.7-0.3-1.9,0.2-7.5c0.5-5,0.2-4.7,0.6-5.9c0.9-2.6,2.6-4.2,6.1-7.5c1.4-1.4,2.9-2.6,4.5-3.8
	c1.4-1.1,2.9-2.1,4.4-3c2.3-1.4,5.5-4.3,9.1-10.9c-0.2,1.4-0.4,2.7-0.6,4.1c-0.8,1.7-1.7,3.6-2.4,5.7c-1,2.8-1.9,5.6-2.5,8.5
	C159.8,113.3,158.1,115.5,156.7,117.9z"/>
<rect x="247.7" y="91.3" class="st3" width="185.3" height="68"/>
<text transform="matrix(1 0 0 1 266.2394 115.3003)" class="st4 st5 st6">welcome to</text>
<rect x="228.3" y="138.6" class="st3" width="248.5" height="111.1"/>
<text transform="matrix(1 0 0 1 202.7879 175.7834)" class="st4 st7 st8">sustain</text>
<rect x="404.1" y="137.8" class="st3" width="71.4" height="111.1"/>
<text transform="matrix(1 0 0 1 377.7122 176.3021)" class="st4 st9 st8">ed</text>
<rect x="-54" y="-33" class="st3" width="1120" height="432"/>
<rect x="-99" y="563" class="st3" width="135" height="152"/>
<rect x="-110" y="-138" class="st3" width="77" height="174"/>
<rect x="-230" y="556" class="st3" width="345" height="121"/>
<rect x="538" y="95" class="st3" width="21" height="1"/>
</svg>
