<?xml version="1.0" encoding="utf-8"?>
<!-- Generator: Adobe Illustrator 24.3.0, SVG Export Plug-In . SVG Version: 6.00 Build 0)  -->
<svg version="1.1" id="Layer_5" xmlns="http://www.w3.org/2000/svg" xmlns:xlink="http://www.w3.org/1999/xlink" x="0px" y="0px"
	 viewBox="0 0 509 311.4" style="enable-background:new 0 0 509 311.4;" xml:space="preserve">
<style type="text/css">
	.st0{fill:#45857A;stroke:#45857A;stroke-width:1.2778;stroke-miterlimit:10;}
	.st1{fill:#57A16F;stroke:#57A16F;stroke-width:1.2778;stroke-miterlimit:10;}
	.st2{fill:#CEA084;}
</style>
<g id="Layer_2_1_">
	<path class="st0" d="M192.1,157l0.3-0.9c3-8.7,12.7-35.4,37.1-57.1c12.2-10.9,24.6-18.2,25.4-14.7c0.3,1.5,0,2.4,0.8,5.7
		c1.8,7.2,21.9,13.3,36.7,7.1c15.6-6.6,10-20.5,31.3-40.9c6.4-6.2,19.6-18.8,38.9-21.5c8.7-1.3,14.3,0.1,14.7-1.5
		c0.8-3.4-21.2-17-45.8-16.5c-13.3,0.3-25.9,7.4-51.3,21.5c-18.7,10.5-28.6,18.6-28,26.8c0.3,3.7,2.6,6.2,1.3,10.4
		c-1.4,4.5-5.7,6.4-11.8,10.2c-5.6,3.5-11.2,7.1-15.8,11.8c-8,8.1-26,29.8-33.3,58.7"/>
</g>
<g id="Layer_3">
	<path class="st1" d="M192.4,156.1c0.3-0.7,0.8-1.8,1.3-3.1c1.4-3.1,3.8-8.7,7.2-15.3c2.4-4.8,4-7.9,6.5-12.1
		c2.1-3.5,4.4-6.9,6.8-10.2c2.3-3,4.2-5.1,5.6-6.8c4.2-4.7,8.7-9,13.5-13c7.1-5.7,12-8.1,18.5-11.9c6-3.6,19.2-13.9,45.6-34.6
		c3.7-2.9,7.6-5.6,11.7-8.1c3.5-2.1,6.5-3.6,7.4-4.1c0,0,2.8-1.4,5.5-2.6c15.3-6.6,27.3-6.5,27.3-6.5c15,0.2,25.9,8.2,27.8,5.5
		c1-1.4-1.7-2-4.4-3.3c-2.2-0.8-4.5-1.5-6.9-2c-4.2-1.3-2.7-0.8-8.5-2.6c-4.2-1.4-8.7-1.9-13.1-1.7c-3.6,0.3-6.6,1.1-11.7,2.6
		c-2.8,0.8-4.1,1.6-8.6,2.7c-5.5,1.3-4.6,1-6.5,1.8c-7.2,3-8.8,5.5-18.5,12.4c-4.5,3.2-4,2-8.3,5.4c-7.8,6.2-8.7,7.5-19.2,16
		c-5.4,4.5-11,8.7-16.9,12.6c-1,0.7-2.8,1.8-6.2,4c-11.4,7.2-13,8-16.7,10.9c-2.8,2.3-5.5,4.8-8,7.4c-3.2,3.4-6.1,6.9-8.8,10.7
		C209.6,117.6,196.8,134.3,192.4,156.1z"/>
</g>
<path class="st2" d="M222.8,155.5c1.4-4.9,0.8-7.9,0.9-12.8c0.2-5.8,1-4.3,1.7-12.5c0.5-6.6,0.1-9.5,1.6-14.6c0.5-1.8,1.2-3.6,2-5.3
	c-0.3-1.7-1.3-3.2-2.7-4.1c-2.7-1.6-5.6,0-6.2,0.3c-2.2,1.3-3.7,3.5-4.1,6c0-4-3.2-7.3-7.2-7.3c0,0,0,0,0,0c-0.4,0-0.9,0-1.3,0.1
	c-2.3,0.3-3.2,1.4-9,6.9c-5.3,4.9-7.2,6.4-9.7,7.9c-2,1.1-2,0.9-3.8,1.9c-4,2.3-5.8,4.8-8.4,7.5c-3.7,4.1-8,7.6-12.8,10.3
	c-2.9,1.4-6,2.5-9.1,3.2c-11,2.9-18.6,5-23.9,6.7c-5.5,1.8-11.5,4.6-23.5,10.2c-9.1,4.3-15.8,7.7-16.4,7.9
	c-10.4,5.2-35,14.1-93.2,29.8c-42.7,54.7-59,88.2-48.9,100.8c5.5,6.8,18.8,7.4,39.9,1.7c60.4-44.5,104.9-76.7,112.7-81.5
	c1.3-0.8,4.4-2.6,7.5-4.4c10.5-6,13.3-6.8,14.7-7.2c3.3-0.8,5.9-0.8,11.3-0.8c7.1,0,8.1,0.8,17.2,1.4c11.6,0.8,11.5-0.4,17.4,0.9
	c4.2,0.9,6.3,2,10.8,2c3.2,0,6.3-0.4,9.3-1.3c3.7-0.9,5.6-1.4,7.3-3c2-1.9,2.5-4.2,3.1-6.4c1.5-5.6,4-10,9-18.8
	c1.3-2.3,2.8-4.6,5.6-9.1c2.5-3.6,4.7-7.5,6.6-11.5C221.7,158.8,222.3,157.2,222.8,155.5z M197.4,157.7c-2,3.3-3.7,6.7-4.9,10.3
	c-1.4,1.9-3.1,3.5-5.1,4.8c-1.1,0.7-6.3,4.1-8.3,2.5c-1.1-0.9-0.4-2.4,0.2-9.6c0.6-6.4,0.2-6,0.7-7.6c1.1-3.3,3.3-5.4,7.7-9.6
	c1.8-1.7,3.8-3.4,5.8-4.8c1.8-1.4,3.7-2.7,5.7-3.8c3-1.8,7-5.5,11.6-13.9c-0.3,1.7-0.5,3.5-0.7,5.2c-1.1,2.2-2.1,4.6-3.1,7.3
	c-1.3,3.5-2.4,7.2-3.2,10.8C201.3,151.9,199.2,154.7,197.4,157.7z"/>
</svg>
