<svg id="Layer_5" data-name="Layer 5" xmlns="http://www.w3.org/2000/svg" viewBox="0 0 286.84 329.23"><defs><style>.cls-1{fill:#cea084;}</style></defs><title>hand</title><path class="cls-1" d="M323.42,72.12c0-6.34-1.76-9.7-3.3-15.59-1.82-7-.23-5.52-2.24-15.5-1.62-8.05-3.13-11.36-3.1-18.07a44.69,44.69,0,0,1,.61-7.07,7.61,7.61,0,0,0-4.65-4c-3.73-.94-6.69,1.94-7.34,2.58-3.4,3.3-2.95,8-2.88,8.65a9.65,9.65,0,0,0-4.85-5.75,9.69,9.69,0,0,0-7.83,0c-2.64,1.14-3.31,2.8-8.45,11.39C274.76,36.59,273,39,270.47,41.62c-2,2-2.12,1.75-3.87,3.59-3.92,4.16-5.31,7.75-7.41,11.83-1.8,3.5-5.6,10.9-11.76,16.81-3.05,2.92-5.54,4.39-9.85,7C225.5,88.13,217,93.25,211.27,97.12c-6,4-12.19,9.45-24.62,20.3-9.46,8.25-16.26,14.58-16.92,15.2-10.65,9.87-37,28.94-101.2,67.91Q20.33,320.77,44.84,338.08q13.35,9.42,48.31-11.74c56.93-74.12,99-128,106.68-136.55,1.2-1.34,4.31-4.68,7.44-7.92,10.43-10.78,13.57-12.79,15-13.67,3.6-2.14,6.81-3.07,13.24-4.93,8.46-2.45,10-1.86,21-4.26,14.17-3.09,13.57-4.48,21.07-5,5.39-.35,8.19.19,13.65-1.33A43.71,43.71,0,0,0,302,147.92c4.06-2.36,6.17-3.61,7.64-6.12,1.76-3,1.5-5.87,1.46-8.77-.11-7.25,1.36-13.38,4.32-25.63.78-3.24,1.71-6.45,3.58-12.87,1.82-6.23,3.07-10.13,3.86-16A42.21,42.21,0,0,0,323.42,72.12Zm-29.7,11.41a66.39,66.39,0,0,0-2.3,14.08,25.29,25.29,0,0,1-4.48,7.5c-1.09,1.25-6.13,7-9.1,5.81-1.57-.65-1.36-2.76-3-11.61C273.32,91.51,273,92,273,90c.18-4.28,2.1-7.56,6-14.14a79.36,79.36,0,0,1,5.24-7.79,84.56,84.56,0,0,1,5.49-6.49c2.93-3.21,6.5-9.05,9.08-20.65.31,2.16.61,4.33.92,6.49-.52,3-.94,6.27-1.2,9.78a102.76,102.76,0,0,0-.1,14.09A66.05,66.05,0,0,0,293.72,83.53Z" transform="translate(-36.58 -11.75)"/></svg>