<svg xmlns="http://www.w3.org/2000/svg" viewBox="0 0 678.01 523.83"><defs><style>.cls-1{fill:#458479;stroke:#458479;}.cls-1,.cls-2{stroke-miterlimit:10;}.cls-2{fill:#58a16e;stroke:#58a16e;}</style></defs><g id="Layer_2" data-name="Layer 2"><path class="cls-1" d="M290.5,714.73c.24-.71.62-1.85,1.09-3.23,10.87-32.11,45.56-130.86,134.19-211.6,44.36-40.41,89.82-67.73,93-55,1.35,5.39-.08,8.67,3,20.86,6.72,26.41,81.19,48.3,135.38,24.84,57.24-24.78,36-76,113.75-151.87,23.44-22.88,71.43-69.73,142.33-80.53,31.82-4.84,52.73-.06,54.2-6.14,3-12.5-78.59-61.81-169.12-59.18-48.83,1.43-95.2,28-187.93,81-68.6,39.24-104.77,69.65-102.11,99.8,1.18,13.44,9.74,22.9,5,38.4-5.1,16.74-20.57,23.74-43.21,38.23-20.43,13.09-41.12,26.58-57.94,44.06-29.11,30.23-94.75,110.48-120.58,217.15" transform="translate(-290.03 -192.25)"/></g><g id="Layer_3" data-name="Layer 3"><path class="cls-2" d="M291.59,711.5c1.12-2.67,2.77-6.58,4.79-11.29,4.88-11.34,13.9-32.26,25.84-56.68,8.7-17.78,14.29-29.23,23.45-44.91a410.87,410.87,0,0,1,24.75-38c8.34-11.21,15.19-19.06,20.47-25.08a437.22,437.22,0,0,1,49.24-48.18c25.9-21.28,43.94-30.19,67.51-44.46C529.55,429.6,577.73,391,674.08,313.92a432.21,432.21,0,0,1,42.8-30.19c12.71-7.82,23.78-13.58,27.09-15.28,0,0,10.41-5.36,20.21-9.72,56.27-25,100.23-24.77,100.23-24.77,55.38.3,95.54,29.36,102.39,19.27,3.48-5.15-6.26-7.53-16.23-11.95-9.34-4.14-18.58-4.88-25.34-6.95-15.35-4.7-9.85-2.71-31.54-9.38a133.44,133.44,0,0,0-48.42-5.64c-13.39,1.13-24.15,4.42-42.8,10.14-10.33,3.17-15.15,6.07-31.54,10.14-20.06,5-16.85,3.87-23.65,6.75-26.45,11.24-32.18,20.61-67.57,46.18-16.51,11.93-14.61,7.58-30.41,20.27-28.63,23-31.81,27.81-69.83,59.69-32.06,26.9-54,41.93-61.94,47.31-3.76,2.53-10.09,6.62-22.75,14.8-41.83,27-47.68,29.78-61,40.58a318.44,318.44,0,0,0-29.36,27.44,395.6,395.6,0,0,0-32.15,39.68C353.5,569,306.92,631,291.59,711.5Z" transform="translate(-290.03 -192.25)"/></g></svg>