<?xml version="1.0" encoding="utf-8"?>
<!-- Generator: Adobe Illustrator 24.3.0, SVG Export Plug-In . SVG Version: 6.00 Build 0)  -->
<svg version="1.1" id="Layer_1" xmlns="http://www.w3.org/2000/svg" xmlns:xlink="http://www.w3.org/1999/xlink" x="0px" y="0px"
	 viewBox="0 0 313.3 212.3" style="enable-background:new 0 0 313.3 212.3;" xml:space="preserve">
<style type="text/css">
	.st0{fill:#006D5B;}
	.st1{fill:#87B767;}
	.st2{fill:#05634C;}
</style>
<g>
	<g>
		
			<image style="overflow:visible;opacity:0.46;" width="340" height="239" xlink:href="E388E6B91667A97D.png"  transform="matrix(1 0 0 1 -19.0079 -9.7079)">
		</image>
		<g>
			<g>
				<g id="Layer_1_11_">
					<g id="Layer_4_10_">
						<path class="st0" d="M253,121.1c-4.3-2.8-8-4.7-11.3-8.1c-0.5-0.2-1.1-0.7-1.6-1.1c-1.9-1.5-4-2.8-6.1-4.2
							c-3.5-2.4-7-4.6-10.7-6.8c-4.8-2.9-9.7-5.4-14.6-8.1c-2.3-1.3-4.8-2.2-7.2-3.3c-3.4-1.5-7-3-10.3-4.3s-6.7-2.5-10-3.7
							c-6-2-12.1-3.7-18.3-5.1c-1.9-0.4-3.6-0.9-5.5-1.4c-0.4,0-0.7,0-0.9-0.2c-1.5-0.1-3.3-0.6-4.6-0.8c-1.3-0.2-2.8-0.4-4.1-0.6
							c-0.2,0-0.5-0.1-0.7-0.1c-3.1-0.4-6.1-0.9-9.1-1.1c-2.2-0.1-4.5,0-6.7-0.1c-0.4,0.1-0.7-0.1-1.1,0c-0.6,0.1-1.2,0.1-1.7,0
							c-0.4,0.1-0.7,0-1.1,0h-1.2c-0.3-0.1-0.7,0-1.1,0l-4.9,0.5c-0.6-0.1-1,0.1-1.6,0.1l-1,0.3c-0.5,0-1.2,0.1-1.8,0.2
							c-2.9,0.8-6,1-8.9,2.1l-1.3,0.5c-0.5,0.1-0.7,0.5-1,0.7c-3.1,2.2-2.4,6.6-0.5,9.1c0.1,0.2,0.3,0.4,0.6,0.5
							c1.3,1.2,3.3,1.5,5,1c2.2-0.9,4.6-0.4,6.8-1.4c0.6,0.1,1.2-0.3,1.8-0.2l5.9-0.8c0.3,0.1,0.7-0.1,1.1,0h0.5
							c0.3,0.1,0.7,0.1,1.1,0c1.7-0.4,3.2,0.1,4.6,0.1c0.4,0,0.7,0,1-0.2c0.4-0.1,0.8,0,1.1,0h3.1c0.3,0.1,0.7,0.1,1.2,0.2l6.7,0.6
							c0.3,0,0.6,0.1,0.8,0.1c1.8,0.6,3.6,0.9,5.5,1.1c0.2,0.1,0.5,0.1,0.7,0.1l0,0c0.3,0,0.6,0.1,0.8,0.2h0.5
							c0.2,0.1,0.5,0.2,0.8,0.2c3.5,0.9,6.9,1.5,10.3,2.4c5.2,1.5,10.4,3,15.5,4.7c3,1,5.8,2.4,8.9,3.4c0.5,0.2,1.1,0.2,1.5,0.7
							c6.3,2.4,12.4,5.4,18.3,8.6c1.4,0.8,2.8,1.4,4.3,2.2c3.3,2,6.7,3.9,10.1,6c3.4,2.2,6.7,4.3,9.8,6.7c4.2,3.3,8.7,6.4,12.7,10
							c2.5,2.3,5,4.5,7.5,7c0.2,0.1,0.5,0.4,0.6,0.6l5.9,5.7c0.2,0.3,0.4,0.5,0.6,0.6l1.7,1.8c0.2,0.3,0.4,0.5,0.6,0.6
							c0.9,1.1,1.8,2.2,2.6,3.4c0.2,0.1,0.4,0.3,0.6,0.5c1.7,2.2,3.6,4.2,5.2,6.5c0.2,0.3,0.4,0.5,0.6,0.6l1.1,1.4
							c0.2,0.3,0.4,0.7,0.7,1c1.2,1.5,2.2,3.1,3.1,4.8c0.3,0.3,0.5,0.4,0.5,0.7l2.3,3.6c0.3,0.3,0.5,0.7,0.7,1
							c1.2,2.2,2.4,4.4,3.8,6.5c0.8,1.1,0.9,2.5,1.7,3.6c0.8,1.1,1.4,2.4,1.8,3.6c0.5,0.7,0.6,1.5,1,2c0.2,0.4,0.3,0.8,0.6,1.2
							c0.5,0.4,0.6,1.2,1,1.7c0.5,1.6,1.2,3.2,1.9,4.7c0.7,1.4,0.8,3.1,1.6,4.6c0.7,1.8,1.3,3.5,1.9,5.2c0.1,0.5,0.3,1,0.7,1.4
							c0.2,0.6,0.6,1,1,1.5c0.2,0.3,0.4,0.5,0.6,0.6c0.5,0.7,1.4,0.6,2.1,1c0.4-0.1,0.7,0,0.9,0.2c1.8-0.5,3.5-1,5.1-1.7
							c0.8-0.9,1.7-1.7,1.6-3.1c0-0.4-0.1-0.8-0.1-1.2c-1.6-5.1-3.4-10.3-5-15.4c-0.4-0.9-0.7-1.7-1-2.6c-0.5-1.5-1.2-3-2-4.5
							c-0.4-0.2-0.6-0.6-0.7-1l-0.3-0.8c-0.7-2.1-1.6-4-2.9-5.8c-0.6-0.2-0.5-0.9-0.8-1.3c-0.2-1.3-1.4-2.1-1.8-3.2
							c-1-2.3-2.7-4.2-3.9-6.4c-0.2-0.4-0.5-0.8-0.7-1.2c-0.3-0.5-0.6-0.9-1-1.3c-0.4-0.2-0.6-0.5-0.6-0.9c0-0.3-0.2-0.6-0.5-0.8
							c-0.4-0.3-0.7-0.7-0.8-1.1c-1.7-2.6-3.5-5-5.5-7.3c-0.3-0.3-0.5-0.4-0.7-0.7c-0.1-0.2-0.2-0.3-0.4-0.5
							c-0.3-0.3-0.5-0.4-0.6-0.8c-0.4-1-1.1-1.9-1.7-2.6c-0.2-0.1-0.6-0.5-0.7-0.8c-0.6-0.9-1.6-1.6-2.2-2.4
							c-0.3-0.3-0.5-0.4-0.6-0.6c-0.1-0.2-0.2-0.4-0.5-0.6c-0.2-0.1-0.5-0.4-0.7-0.7c-2.5-2.9-5.1-5.3-7.7-8c-1-1.1-2-2.1-3.2-3.1
							c-0.4-0.5-0.9-0.9-1.5-1.2c-0.3-0.1-0.5-0.2-0.7-0.4s-0.2-0.3-0.4-0.5c-0.3-0.3-0.5-0.4-0.7-0.7c-0.6-0.9-1.4-1.5-2.2-2
							c-0.7-0.4-1.3-1.1-1.7-1.6C252.5,122.4,252.3,122.1,253,121.1z"/>
						<path class="st0" d="M242.3,47.8c-0.1-0.2-0.3-0.6-0.6-1.1c-0.4-0.2-0.6-0.6-0.7-1c-0.1-0.4-0.3-0.7-0.5-0.9
							c-0.4-0.2-0.6-0.6-0.7-1c-0.5-0.6-0.8-1.2-1.3-1.7c-0.1-0.2-0.4-0.5-0.5-0.7s-0.3-0.5-0.5-0.8c-0.3-0.3-0.5-0.7-0.7-1
							c-0.8-1.3-1.8-2.4-2.7-3.7c-0.3-0.3-0.5-0.6-0.6-0.9c-1.3-1.6-2.6-3.2-4.1-4.6c-0.3-0.3-0.6-0.5-0.7-0.8
							c-1.4-1.4-2.7-2.8-4.2-4c-0.2-0.1-0.5-0.4-0.6-0.6c-1.8-1.6-3.7-3.1-5.6-4.6c-0.4-0.3-0.8-0.5-1.1-0.7
							c-3.9-3-8.1-5.4-12.6-7.3c-2.3-1-4.9-1.7-7.2-2.7c-2.8-1.1-5.7-1.9-8.6-2.6c-0.4-0.2-0.9-0.2-1.3-0.2c-0.3,0-0.6-0.1-0.8-0.2
							c-3.3-0.7-6.8-1.2-10.2-1.4c-0.4,0.1-0.5,0-0.8-0.1c-0.2,0-0.2,0-0.3-0.1c-0.3,0-0.6-0.1-0.8-0.1c-0.4,0-0.6,0-0.7,0
							c-0.3,0-0.7,0-0.9-0.2c-1.6-0.2-3.1-0.3-4.7-0.2c-0.4,0.1-0.8,0-1.1,0c-0.4,0-0.8-0.1-1.4,0c-0.5,0.1-0.9,0.1-1.2,0
							c-1.4,0.1-2.9,0.1-4.4,0.2c-0.5,0.1-0.9,0.1-1.2,0c-2.1-0.1-4.1,0-6,0.3c-0.4,0.1-0.8,0-1.2,0c-3.1,0.2-6.2,0.7-9.4,0.9
							c-2.4,0.1-4.5,0.6-6.7,1c-0.7,0.1-1.6,0.2-2.4,0.3c-2.4,0.1-4.5,1.2-6.7,1c-1.2,0-2.3,0.2-3.3,0.6c-2.3,0.8-4.9,0.6-7.2,1.6
							c-0.9,0.3-1.7,0.8-2.6,0.6c-1.8,0.1-3.8,0.4-5.6,1c-3.6,1.2-7.5,1.6-11,2.9c-2.7,1-5.7,0.9-8.3,2c-0.6,0.2-1.2,0.4-1.8,0.6
							c-0.8,0-1.5,0.3-2.2,0.7c-2,0.3-3.7,1.1-5.5,1.5c-1,0.2-2,0.3-2.9,0.7c-9.6,3-19.2,6.3-28.9,9.1C42.2,31.2,37.2,33,32,34.4
							C26.5,36,21,38,15.4,39.6c-4.2,1.2-8.4,2.6-12.5,4c-1.4,0.9-2.1,2.4-1.8,4.1l1.8,5.5c0.2,0.3,0.4,0.7,0.7,1.1
							C4.8,57.2,6.4,60,8,62.6c0.2,0.4,0.5,0.8,0.6,1.3c0.4,0.6,0.6,1.2,1,1.7c1,1.7,2,3.4,2.9,5.1c0.6,1,1.1,2.1,1.7,3.2
							c0.3,0.4,0.6,0.9,0.9,1.3l0.6,1.2c0.3,0.3,0.5,0.7,0.7,1c0.4,0.7,0.8,1.4,1.2,2.2c0.3,0.4,0.6,0.9,0.9,1.3l1.2,2.2
							c0.2,0.4,0.5,0.7,0.7,1l0.7,1.5c0.2,0.1,0.5,0.4,0.5,0.7l0.2,0.3c0.2,0.4,0.4,0.7,0.7,1.1c0.4,0.9,1.3,1.5,1.6,2.5
							c0.2,0.3,0.5,0.7,0.7,1s0.4,0.7,0.7,1c0.7,1.1,1.4,2.1,2.2,3.1c0.4,0.5,0.6,0.9,0.9,1.3c1,1.8,2.1,3.4,3.3,5
							c0.2,0.4,0.4,0.7,0.7,1.1c1.1,1.4,2.1,2.9,3.2,4.5c1.2,1.5,2.4,3.2,3.5,4.7c0.3,0.1,0.5,0.4,0.6,0.6l3.5,4.7
							c0.2,0.1,0.5,0.4,0.6,0.6c1.2,1.8,2.6,3.2,3.7,4.9c0.2,0.4,0.6,0.6,0.8,0.9c0.1,0.1,0.2,0,0.2,0.1c0.3,0.1,0.5,0.4,0.6,0.6
							c1.8,2.1,3.8,4.2,5.4,6.4c0.9,1.4,2,2.6,3.2,3.7c0.1,0.2,0.4,0.5,0.6,0.6c0.1,0.5,0.5,0.8,0.9,1c0.1,0.2,0.4,0.5,0.6,0.6
							c1.9,2.2,4,4.1,5.9,6.1c2,2,4.1,4,6.1,6c0.2,0,0.4,0.3,0.6,0.5l5.2,4.4c0.2,0.1,0.5,0.4,0.6,0.6c3.4,2.6,6.7,5.2,10,7.8
							c1.9,1.4,3.8,2.5,5.8,3.7c3.3,2.1,6.8,4.3,10.4,6.3c4,2,7.9,4,12.1,5.5c4.2,1.7,8.5,3.1,12.9,4.3c0.2,0.1,0.5,0.2,0.8,0.2
							l6.6,1.7c0.3,0.1,0.6,0.2,0.9,0.2c2.5,0.5,5,0.9,7.5,1.1c1.4,0.3,2.8,0.3,4.2,0.3c0.3,0.1,0.6,0.1,0.8,0.1l0.4-0.1
							c0.3-0.2,0.6-0.1,0.8,0.1c3.6,0.2,7.4,0.3,11.1,0.1c0.4-0.1,0.7-0.1,1.1-0.2c0.4-0.1,0.8,0,1.1,0l6.4-0.8
							c0.6,0.1,1.1-0.4,1.8-0.2l0.9-0.3c0.5,0,1-0.2,1.5-0.3c0.7-0.2,1.2-0.3,1.8-0.4c7.2-1.5,14.2-3.7,20.9-6.6
							c0.4-0.4,1-0.6,1.6-0.8c0.4-0.1,0.8-0.3,1-0.6c2.5-0.9,4.8-2.1,7-3.3c3.4-1.8,6.6-4,9.8-6.2c0.2-0.5,0.8-0.3,1.1-0.6
							c1.2-0.5,2-1.5,3.1-2.2c0.1-0.3,0.3-0.6,0.6-0.6l0.3-0.2c0.2-0.1,0.4-0.4,0.6-0.6c0.8-0.6,4.7-3.8,7.7-6.4
							c0.3-0.3,1.3-1.2,2.5-2.4c1-1,1.5-1.7,2.1-2.3c1.1-1.2,1.7-2.7,1.5-4.4c0-1-0.3-2-0.9-2.8c-1.3-2.5-5.3-4.1-7.8-2.7
							c-1.5,0.9-2.8,2.2-3.7,3.6c-0.2,0.1-0.4,0.4-0.6,0.6c-0.3,0.3-0.7,0.8-1.3,1c-0.2,0.1-0.4,0.2-0.5,0.6l-0.4,0.4
							c-0.1,0.2-0.4,0.5-0.6,0.6l-1.7,1.7c-0.1,0.3-0.4,0.5-0.6,0.6c-0.5,0.1-0.8,0.5-1,0.8c-0.4,0.2-0.7,0.5-1,0.7l-5.6,3.8
							c-0.3,0-0.4,0.2-0.5,0.5l-1.2,0.5c-0.4,0.2-0.7,0.5-1,0.7l-2.1,1.2c-0.3,0.3-0.7,0.4-1,0.7c-2.9,1.8-5.9,3.1-8.9,4.7
							c-0.8,0.5-1.7,0.7-2.6,1.1c-0.5,0.3-1,0.6-1.6,0.8c-0.4,0.1-0.8,0.2-1.1,0.5l-1.8,0.8c-0.7,0.5-1.3,0.8-2,0.9
							c-2.9,1-5.9,1.7-8.8,2.5l-3.7,1c-0.8-0.1-1.6,0.3-2.2,0.3c-3.3,0.5-6.7,1-10.1,1.2c-1.7,0.1-3.3,0.1-4.9,0.4
							c-0.3,0.2-0.6,0.1-0.8-0.1l-2.5,0.2c-0.4,0-0.8,0-1.2,0l-1.6-0.2c-0.2-0.1-0.6-0.1-0.8-0.2h-0.5c-0.3,0-0.7,0-1.1,0
							c-0.9-0.2-1.8-0.2-2.7-0.2c-0.2,0.1-0.5-0.1-0.7-0.1c-4.6-0.4-9.1-1.3-13.5-2.6c-0.3-0.1-0.6-0.2-0.9-0.2
							c-0.4-0.3-0.9-0.4-1.4-0.6c-0.2-0.1-0.5-0.2-0.8-0.2c-5-1.4-9.9-3.3-14.6-5.6c-4.8-2.2-9.4-4.8-13.7-7.6
							c-5.4-3.5-10.6-7.4-15.6-11.5c-0.2-0.1-0.5-0.4-0.6-0.6c-1.8-1.2-3-2.9-4.8-4.3c-0.2-0.1-0.5-0.4-0.6-0.6
							c-2.8-2.4-5.5-4.9-8.2-7.7c-0.1-0.2-0.3-0.4-0.6-0.5c-0.1-0.2-0.4-0.5-0.6-0.6l-0.3-0.5c-0.3,0-0.4-0.3-0.6-0.5
							c-1.4-1.9-3-3.8-4.8-5.5c-2.2-2.4-4.3-4.8-6.3-7.2c-0.2-0.3-0.4-0.5-0.6-0.6c-1.8-2.4-3.7-4.8-5.5-7.2c-1.7-2.2-3.5-4.3-5-6.6
							c-0.3-0.3-0.5-0.7-0.8-0.9c-0.1-0.2-0.2-0.3-0.3-0.5c-0.3-0.1-0.5-0.4-0.6-0.6c-0.6-1.5-1.4-2.7-2.5-3.9
							c-0.2-0.1-0.4-0.5-0.4-0.7c-0.1-0.4-0.4-0.6-0.6-0.9c-0.7-1-1.5-2.1-2.1-3.2c-0.3-0.3-0.5-0.7-0.8-0.9l-0.3-0.5
							c-0.2-0.3-0.5-0.7-0.7-1l-2.6-4c-1.2-1.9-2.4-3.9-3.6-5.8c-0.2-0.4-0.5-0.7-0.7-1s-0.3-0.8-0.6-1.2c-0.3-0.4-0.5-0.7-0.7-1
							L27.2,71c-0.2-0.4-0.6-0.9-0.9-1.3c-1.2-2.1-2.3-4.3-3.5-6.4c-0.2-0.3-0.4-0.7-0.7-1c-0.2-0.3-0.3-0.8-0.6-1.2
							c-0.3-0.4-0.6-0.8-0.8-1.2c-0.6-1-1.2-2.1-1.6-3.2c-0.4-0.3-0.4-1-0.9-1.3l-0.5-0.8c-0.4-0.5-0.6-0.9-0.9-1.3
							c-0.3-1.3-0.1-1.9,1.2-1.8c0.4-0.1,0.8-0.2,1.1-0.4c4.2-1.3,8.5-2.8,12.9-4.1c5.7-1.6,11.1-3.7,16.8-5.3
							c5.1-1.4,10.2-3.4,15.4-4.7c3.9-1,7.6-2.6,11.4-3.4c4.7-1.2,9.3-2.8,14.1-4c3.6-0.8,7-2,10.5-2.6c1.9-0.4,3.7-1,5.6-1.5
							c0.9-0.1,1.7-0.3,2.5-0.6c0.7-0.1,1.4-0.6,2.2-0.4c2.8-0.9,6-1.1,8.8-1.9s5.6-1,8.4-1.8c1.3-0.3,2.8-0.1,4.1-0.7
							c0.6,0.1,1.1-0.4,1.8-0.2c2.5-0.5,5.2-0.6,7.6-1.3c0.5,0.1,0.9-0.3,1.5,0l0.6-0.1c0.2,0,0.5,0,0.8,0c0.5-0.1,0.9-0.3,1.4-0.2
							c1.7,0,3.6-0.1,5.4-0.5c0.4-0.1,0.8,0,1.1,0l0.7-0.2c0.4-0.1,0.7,0,1.1,0l1-0.2c0.5,0,0.9,0,1.5,0c0.9-0.1,1.7,0.1,2.5-0.2
							c0.4-0.1,0.8,0,1.1,0c0.8-0.2,1.7,0.3,2.5-0.2c0.3,0.1,0.7-0.1,1.1,0.2c0.7,0,1.3,0.4,2,0.1c0.3,0.1,0.5,0.2,0.8,0.2
							c1.7-0.1,3.3-0.1,5,0c1.1,0,2.2,0.1,3.4,0.3c0.2-0.1,0.5,0,0.7,0.1h0.5c0.2,0.1,0.5,0.1,0.7,0.1c2.2,0.1,4.3,0.4,6.3,1.2
							c0.3,0.1,0.6,0.1,0.9,0.2h0.5c0.3,0.3,0.5,0.2,0.8,0.2s0.6,0.1,0.8,0.2c4.2,1.2,8.5,2,12.3,4c4.3,2.2,8.7,4.2,12.5,7.4
							c0.4,0.3,0.8,0.5,1.3,0.8c0.2,0.1,0.5,0.4,0.6,0.6c1,0.6,2,1.4,2.8,2.4c0.2,0.1,0.5,0.4,0.6,0.6c1.9,1.4,3.6,3,5,4.9
							c0.5,0.7,1.1,1.2,1.6,1.8c0.1,0.2,0.4,0.5,0.6,0.6c1.4,1.8,2.8,3.5,4.1,5.3c1,1.2,1.7,2.6,2.6,3.9c0.2,0.3,0.4,0.7,0.7,1
							c0.8,1.9,2,3.4,2.7,5.2c0.6,0.5,0.7,1.4,1.1,2l1,2.6c0.8,1.1,0.9,2.3,1.5,3.4c1,3.1,2,6.1,2.9,9.2c0.9,3.2,1.7,6.5,2.2,9.7
							c0.3,1.6,0.2,3.3,0.6,5c-0.1,0.3,0.1,0.8,0,1.1c0.3,0.8,0.4,1.6,0.3,2.4c0,0.4,0,1,0,1.5c0.3,0.8-0.1,1.7,0.2,2.5
							c0.1,0.4,0.1,0.6,0,0.9c0.2,1.3-0.3,2.5,0,3.8c0.1,0.2,0,0.5-0.1,0.8c-0.5,2.6-0.5,5.2-1.2,7.8c0,0.3-0.1,0.6-0.2,0.8
							c-0.3,1.8-0.4,2.4-0.9,2.3c3.3,3.3,7,5.2,11.3,8.1c0-0.3,0-0.5,0-0.9c0.4-1.5,0.9-3,1.3-4.3c0.2-0.4,0.3-0.9,0.3-1.4
							c0-0.3,0.1-0.6,0.2-0.8c0.6-1.8,0.9-3.8,1-5.7c-0.1-0.4,0-0.7,0.1-1c0-0.3,0-0.4,0-0.7c-0.1-0.4,0-0.7,0.2-1.1
							c0.2-0.8,0.3-1.6,0.3-2.4c0-0.3,0-0.5,0-0.9c0.1-0.6,0-1.2-0.1-1.8c0-0.3,0-0.7,0.2-0.9c0.1-0.3,0.1-0.6,0-0.9
							c-0.1-0.4-0.1-0.8,0-1.2c-0.1-4.4-0.5-8.5-1.1-12.9c-0.4-2.8-1-5.6-1.3-8.4c-0.3-1.5-0.8-3-1.3-4.5c-1.2-3-1.9-6.2-2.9-9.3
							c-0.4-1.2-0.7-2.2-1.1-3.2c-0.2-0.8-0.6-1.7-1.1-2.6c-0.5-0.7-0.8-1.4-1-2.3c-0.2-0.6-0.5-1.3-0.7-1.8c-0.5-0.6-0.8-1.1-1-1.7
							c-0.1-0.2-0.2-0.4-0.4-0.6c-0.3-0.3-0.4-0.6-0.5-0.9c-0.1-0.4-0.1-0.5-0.2-0.9C243.1,49,243,48.9,242.3,47.8z"/>
					</g>
				</g>
				<g id="Layer_2_11_">
					<path class="st0" d="M189,173.8c-12.6,2.3-37.9,6.8-67.3-3.2c-19.6-6.8-31.3-16.8-49.5-32.5c-12.3-10.6-6.8-8.1-52.8-66.7
						C15.5,66.5,8,57,11,50.2c2.5-5.6,11-6.6,14.3-7.1c39.1-5.5,42.9-21.2,109.8-27.3c33.6-3.1,50.4-4.5,64.2,2.1
						c25,12.2,36.6,36.8,44,52.5c6,12.5,14.3,31,9.2,50.5c-1.8,7.1-5.3,13.5-7.1,16.6c-2.2,3.9-8.7,14.2-20.3,22.7
						C212.6,169.4,200.4,171.7,189,173.8z"/>
				</g>
			</g>
		</g>
	</g>
	<g>
		<g id="Layer_1_1_">
			<g id="Layer_4">
				<path class="st1" d="M257.5,113.9c-4.2-2.7-7.7-4.6-10.9-7.8c-0.5-0.2-1.1-0.7-1.6-1.1c-1.9-1.5-3.9-2.7-5.9-4.1
					c-3.4-2.3-6.8-4.5-10.3-6.6c-4.6-2.8-9.4-5.2-14.2-7.8c-2.3-1.2-4.6-2.1-6.9-3.2c-3.3-1.4-6.8-2.9-10-4.1s-6.5-2.4-9.7-3.6
					c-5.8-2-11.8-3.6-17.8-5c-1.8-0.4-3.5-0.9-5.3-1.3c-0.4,0-0.7,0-0.9-0.2c-1.5-0.1-3.2-0.6-4.5-0.8c-1.3-0.2-2.7-0.4-4-0.6
					c-0.2,0-0.5-0.1-0.7-0.1c-3-0.4-5.9-0.9-8.8-1c-2.1-0.1-4.3,0-6.5-0.1c-0.4,0.1-0.7-0.1-1.1,0c-0.6,0.1-1.1,0.1-1.7,0
					c-0.4,0.1-0.7,0-1.1,0h-1.2c-0.3-0.1-0.7,0-1.1,0l-4.7,0.4c-0.6-0.1-1,0.1-1.5,0.1l-1,0.3c-0.5,0-1.1,0.1-1.7,0.2
					c-2.8,0.8-5.8,1-8.6,2l-1.3,0.5c-0.5,0.1-0.6,0.5-0.9,0.7c-3,2.1-2.3,6.4-0.4,8.8c0.1,0.2,0.3,0.3,0.5,0.5
					c1.3,1.1,3.2,1.5,4.9,0.9c2.1-0.8,4.5-0.4,6.5-1.4c0.6,0.1,1.2-0.3,1.7-0.2l5.7-0.8c0.3,0.1,0.7-0.1,1.1,0h0.5
					c0.3,0.1,0.7,0.1,1.1,0c1.6-0.4,3.1,0.1,4.5,0.1c0.4,0,0.7,0,1-0.2c0.4-0.1,0.8,0,1.1,0h3c0.3,0.1,0.7,0.1,1.1,0.1l6.5,0.5
					c0.3,0,0.6,0.1,0.8,0.1c1.8,0.6,3.5,0.9,5.3,1.1c0.2,0.1,0.5,0.1,0.7,0.1c0.3,0,0.6,0.1,0.8,0.2h0.5c0.2,0.1,0.5,0.2,0.8,0.2
					c3.4,0.9,6.7,1.5,10,2.4c5,1.5,10,2.9,15,4.5c2.9,1,5.7,2.3,8.6,3.3c0.5,0.2,1,0.2,1.4,0.6c6.1,2.4,12,5.2,17.7,8.3
					c1.4,0.8,2.7,1.4,4.1,2.2c3.2,1.9,6.5,3.7,9.8,5.8c3.3,2.1,6.4,4.2,9.5,6.5c4.1,3.2,8.4,6.2,12.3,9.7c2.4,2.2,4.9,4.4,7.3,6.7
					c0.2,0.1,0.5,0.4,0.6,0.6l5.7,5.5c0.2,0.3,0.4,0.4,0.6,0.6l1.6,1.7c0.2,0.3,0.4,0.4,0.6,0.6c0.9,1.1,1.8,2.2,2.6,3.3
					c0.2,0.1,0.4,0.3,0.5,0.5c1.6,2.1,3.5,4.1,5.1,6.3c0.2,0.3,0.4,0.4,0.6,0.6l1.1,1.4c0.2,0.3,0.4,0.7,0.7,0.9
					c1.1,1.5,2.1,3,3,4.7c0.3,0.2,0.5,0.4,0.5,0.6l2.3,3.5c0.3,0.2,0.5,0.6,0.7,0.9c1.2,2.1,2.3,4.3,3.7,6.3c0.7,1,0.9,2.4,1.6,3.5
					c0.7,1,1.3,2.3,1.8,3.5c0.5,0.6,0.6,1.4,1,2c0.2,0.4,0.3,0.8,0.5,1.2c0.5,0.4,0.5,1.2,0.9,1.6c0.5,1.6,1.1,3.1,1.8,4.5
					c0.7,1.4,0.8,3,1.5,4.5c1,2,1.3,3,1.9,5.1c0.2,0.8,0.3,1.5,0.4,2c0.4,0.9,0.8,1.7,1.2,2.6c0.8,1.8,1.6,3.6,2.4,5.3
					c0.4,0.6,1.2,1.8,2.8,2.3c0.3,0.1,0.6,0.2,0.9,0.2c0.4-0.3,0.9-0.7,1.7-1.2c0.9-0.5,1.6-0.8,1.8-0.9c0.9-0.4,1.6-2.6,0.5-10.5
					c0-0.4-0.1-0.8-0.1-1.1c-1.6-5-3.3-10-4.8-15c-0.4-0.9-0.7-1.6-0.9-2.5c-0.5-1.5-1.2-2.9-2-4.3c-0.4-0.2-0.6-0.6-0.7-0.9
					l-0.3-0.8c-0.6-2-1.6-3.9-2.8-5.6c-0.6-0.2-0.5-0.9-0.7-1.3c-0.2-1.2-1.3-2-1.8-3.1c-1-2.2-2.6-4.1-3.8-6.2
					c-0.2-0.4-0.5-0.8-0.7-1.2c-0.3-0.5-0.6-0.8-1-1.3c-0.4-0.2-0.5-0.5-0.6-0.8c0-0.3-0.2-0.6-0.5-0.8c-0.4-0.3-0.7-0.7-0.7-1
					c-1.7-2.5-3.4-4.8-5.4-7c-0.3-0.2-0.5-0.4-0.7-0.7c-0.1-0.2-0.2-0.3-0.4-0.4c-0.3-0.2-0.5-0.4-0.6-0.7c-0.4-1-1-1.8-1.7-2.5
					c-0.2-0.1-0.5-0.5-0.7-0.8c-0.6-0.8-1.5-1.5-2.1-2.4c-0.3-0.2-0.5-0.4-0.6-0.6c-0.1-0.2-0.2-0.4-0.4-0.5
					c-0.2-0.1-0.5-0.4-0.7-0.7c-2.4-2.8-4.9-5.2-7.4-7.7c-1-1-2-2.1-3.1-3c-0.4-0.4-0.9-0.8-1.5-1.2c-0.3-0.1-0.5-0.2-0.6-0.4
					c-0.1-0.2-0.2-0.3-0.4-0.4c-0.3-0.2-0.5-0.4-0.7-0.7c-0.6-0.8-1.4-1.5-2.2-2c-0.6-0.4-1.2-1-1.7-1.6
					C257.1,115.1,256.9,114.8,257.5,113.9z"/>
				<path class="st1" d="M247.2,42.9c-0.1-0.2-0.3-0.6-0.6-1.1c-0.4-0.2-0.6-0.6-0.7-0.9c-0.1-0.4-0.2-0.7-0.5-0.9
					c-0.4-0.2-0.6-0.6-0.7-0.9c-0.4-0.5-0.8-1.1-1.2-1.7c-0.1-0.2-0.4-0.4-0.5-0.6c-0.1-0.2-0.3-0.5-0.5-0.8
					c-0.3-0.2-0.5-0.6-0.7-0.9c-0.7-1.3-1.7-2.3-2.6-3.6c-0.3-0.2-0.4-0.5-0.6-0.8c-1.3-1.5-2.5-3.1-4-4.5c-0.3-0.2-0.5-0.5-0.7-0.8
					c-1.3-1.4-2.6-2.8-4.1-3.9c-0.2-0.1-0.5-0.4-0.6-0.6c-1.8-1.5-3.6-3-5.4-4.5c-0.4-0.3-0.8-0.5-1.1-0.7
					c-3.8-2.9-7.8-5.2-12.2-7.1c-2.3-1-4.7-1.7-7-2.6c-2.7-1.1-5.5-1.9-8.4-2.5c-0.4-0.2-0.9-0.2-1.3-0.2c-0.3,0-0.6-0.1-0.8-0.2
					c-3.2-0.7-6.6-1.2-9.8-1.4c-0.4,0.1-0.5,0-0.8-0.1c-0.2,0-0.2,0-0.3-0.1c-0.3,0-0.6-0.1-0.8-0.1c-0.1,0.1-0.4,0.1-0.5,0.1
					c-0.3,0-0.7,0-0.9-0.2c-1.5-0.2-3-0.3-4.5-0.2c-0.4,0.1-0.8,0-1.1,0c-0.4,0-0.8-0.1-1.3,0s-0.9,0.1-1.2,0
					c-1.4,0.1-2.8,0.1-4.2,0.2c-0.5,0.1-0.9,0.1-1.2,0c-2-0.1-3.9,0-5.8,0.3c-0.4,0.1-0.8,0-1.2,0c-3,0.2-6,0.7-9.1,0.8
					c-2.3,0.1-4.4,0.5-6.5,0.9c-0.7,0.1-1.6,0.2-2.3,0.3c-2.3,0.1-4.3,1.1-6.5,0.9c-1.2,0-2.2,0.2-3.2,0.6c-2.2,0.7-4.8,0.6-6.9,1.6
					c-0.9,0.3-1.6,0.8-2.6,0.5c-1.8,0.1-3.7,0.4-5.4,1c-3.5,1.2-7.2,1.5-10.7,2.8c-2.6,1-5.5,0.9-8,2c-0.5,0.2-1.2,0.4-1.7,0.6
					c-0.8,0-1.4,0.3-2.1,0.7c-1.9,0.3-3.5,1.1-5.3,1.5c-1,0.2-1.9,0.3-2.8,0.7c-9.3,2.9-18.6,6-28,8.8c-4.9,1.5-9.8,3.2-14.7,4.6
					c-5.4,1.5-10.7,3.5-16.1,5c-4.1,1.1-8.1,2.5-12.1,3.9c-1.3,0.9-2,2.4-1.8,4l1.8,5.4c0.2,0.3,0.4,0.7,0.6,1.1
					c1.2,2.8,2.8,5.5,4.4,8c0.2,0.4,0.5,0.8,0.6,1.3c0.3,0.6,0.5,1.2,0.9,1.6c0.9,1.6,1.9,3.3,2.8,4.9c0.6,1,1.1,2.1,1.6,3.1
					c0.3,0.3,0.6,0.8,0.8,1.2l0.5,1.2c0.3,0.2,0.5,0.6,0.7,0.9c0.4,0.7,0.8,1.4,1.2,2.1c0.3,0.3,0.6,0.8,0.8,1.2l1.2,2.1
					c0.2,0.4,0.5,0.6,0.7,0.9l0.7,1.5c0.2,0.1,0.5,0.4,0.5,0.6l0.2,0.3c0.2,0.4,0.4,0.7,0.6,1.1c0.4,0.9,1.2,1.4,1.5,2.4
					c0.2,0.3,0.5,0.6,0.7,0.9s0.4,0.7,0.7,0.9c0.6,1.1,1.3,2,2.1,3c0.4,0.4,0.6,0.8,0.8,1.2c1,1.7,2,3.2,3.2,4.8
					c0.2,0.4,0.4,0.7,0.6,1.1c1.1,1.4,2,2.8,3.1,4.3s2.3,3.1,3.4,4.6c0.3,0.1,0.5,0.4,0.6,0.6l3.4,4.6c0.2,0.1,0.5,0.4,0.6,0.6
					c1.1,1.7,2.5,3.1,3.6,4.7c0.2,0.4,0.6,0.6,0.8,0.9c0.1,0.1,0.2,0,0.2,0.1c0.3,0.1,0.5,0.4,0.6,0.6c1.7,2.1,3.6,4,5.3,6.2
					c0.9,1.3,1.9,2.5,3.1,3.6c0.1,0.2,0.4,0.4,0.6,0.6c0.1,0.5,0.5,0.8,0.8,1c0.1,0.2,0.4,0.4,0.6,0.6c1.9,2.1,3.8,3.9,5.7,5.9
					s3.9,3.9,5.9,5.8c0.2,0,0.4,0.3,0.5,0.5l5.1,4.3c0.2,0.1,0.5,0.4,0.6,0.6c3.3,2.5,6.5,5.1,9.7,7.6c1.8,1.3,3.7,2.4,5.6,3.6
					c3.2,2,6.6,4.2,10,6.1c3.8,1.9,7.7,3.8,11.7,5.4c4.1,1.6,8.3,3,12.5,4.2c0.2,0.1,0.5,0.2,0.8,0.2l6.4,1.6
					c0.3,0.1,0.6,0.2,0.9,0.2c2.4,0.5,4.8,0.8,7.3,1c1.3,0.3,2.7,0.3,4.1,0.3c0.3,0.1,0.6,0.1,0.8,0.1l0.4-0.1
					c0.3-0.2,0.6-0.1,0.8,0.1c3.5,0.2,7.2,0.3,10.8,0.1c0.4-0.1,0.7-0.1,1.1-0.2c0.4-0.1,0.8,0,1.1,0l6.2-0.8
					c0.6,0.1,1.1-0.4,1.7-0.2l0.9-0.3c0.5,0,1-0.2,1.4-0.3c0.6-0.2,1.2-0.3,1.8-0.3c7-1.5,13.8-3.5,20.3-6.3c0.4-0.4,1-0.6,1.5-0.7
					c0.4-0.1,0.7-0.3,1-0.6c2.4-0.8,4.6-2,6.8-3.2c3.3-1.8,6.4-3.8,9.5-6c0.2-0.5,0.7-0.3,1.1-0.6c1.1-0.5,1.9-1.5,3-2.1
					c0.1-0.3,0.3-0.6,0.6-0.6l0.3-0.2c0.2-0.1,0.4-0.4,0.6-0.6c0.7-0.6,4.5-3.7,7.4-6.1c0.3-0.3,1.3-1.1,2.4-2.3c1-1,1.4-1.6,2-2.2
					c1-1.1,1.6-2.7,1.4-4.3c0-0.9-0.3-1.9-0.9-2.7c-1.3-2.5-5.2-4-7.5-2.6c-1.5,0.8-2.7,2.1-3.6,3.5c-0.2,0.1-0.4,0.4-0.6,0.6
					c-0.3,0.3-0.7,0.8-1.3,1c-0.2,0.1-0.4,0.2-0.5,0.5l-0.4,0.4c-0.1,0.2-0.4,0.5-0.6,0.6l-1.7,1.6c-0.1,0.3-0.4,0.5-0.6,0.6
					c-0.5,0.1-0.8,0.5-1,0.8c-0.4,0.2-0.6,0.5-0.9,0.7l-5.5,3.7c-0.3,0-0.4,0.2-0.5,0.4l-1.1,0.5c-0.4,0.2-0.6,0.5-0.9,0.7l-2.1,1.2
					c-0.3,0.3-0.7,0.4-0.9,0.7c-2.8,1.7-5.7,3-8.6,4.6c-0.8,0.5-1.7,0.7-2.5,1.1c-0.5,0.3-1,0.6-1.5,0.7c-0.4,0.1-0.8,0.2-1,0.5
					l-1.8,0.8c-0.6,0.5-1.3,0.7-2,0.9c-2.8,1-5.7,1.7-8.6,2.4l-3.6,1c-0.8-0.1-1.5,0.3-2.2,0.3c-3.2,0.5-6.5,0.9-9.8,1.1
					c-1.6,0.1-3.2,0.1-4.8,0.3c-0.3,0.2-0.6,0.1-0.8-0.1l-2.4,0.2c-0.4,0-0.8,0-1.2,0l-1.5-0.2c-0.2-0.1-0.6-0.1-0.8-0.2H158
					c-0.3,0-0.7,0-1.1,0c-0.9-0.2-1.7-0.2-2.6-0.2c-0.2,0.1-0.5-0.1-0.7-0.1c-4.4-0.4-8.9-1.3-13.1-2.5c-0.3-0.1-0.6-0.2-0.9-0.2
					c-0.4-0.3-0.9-0.4-1.4-0.5c-0.2-0.1-0.5-0.2-0.8-0.2c-4.8-1.4-9.5-3.2-14.1-5.5c-4.6-2.1-9.1-4.6-13.3-7.4
					c-5.2-3.4-10.3-7.2-15.1-11.2c-0.2-0.1-0.5-0.4-0.6-0.6c-1.7-1.1-2.9-2.8-4.6-4.1c-0.2-0.1-0.5-0.4-0.6-0.6
					c-2.8-2.3-5.4-4.8-7.9-7.4c-0.1-0.2-0.3-0.3-0.5-0.5c-0.1-0.2-0.4-0.4-0.6-0.6l-0.3-0.5c-0.3,0-0.4-0.3-0.5-0.5
					c-1.3-1.9-2.9-3.7-4.6-5.3c-2.1-2.4-4.1-4.7-6.1-7c-0.2-0.3-0.4-0.4-0.6-0.6c-1.7-2.3-3.6-4.6-5.3-6.9c-1.6-2.1-3.4-4.2-4.9-6.4
					c-0.3-0.2-0.5-0.6-0.8-0.9c-0.1-0.2-0.2-0.3-0.3-0.5c-0.3-0.1-0.5-0.4-0.6-0.6c-0.6-1.4-1.4-2.7-2.4-3.8
					c-0.2-0.1-0.4-0.4-0.4-0.7c-0.1-0.4-0.3-0.6-0.6-0.8c-0.7-0.9-1.4-2-2-3.1c-0.3-0.2-0.5-0.6-0.8-0.9l-0.3-0.5
					c-0.2-0.3-0.5-0.6-0.7-0.9L46.7,78c-1.2-1.8-2.3-3.7-3.5-5.6c-0.2-0.4-0.5-0.6-0.7-0.9s-0.3-0.8-0.5-1.2
					c-0.3-0.3-0.5-0.6-0.7-0.9l-2.5-4c-0.2-0.4-0.6-0.8-0.8-1.2c-1.2-2-2.3-4.2-3.4-6.2c-0.2-0.3-0.4-0.7-0.7-0.9
					c-0.2-0.3-0.3-0.8-0.5-1.2c-0.3-0.3-0.6-0.7-0.8-1.1c-0.6-1-1.2-2-1.5-3.1c-0.4-0.3-0.4-1-0.8-1.2l-0.5-0.8
					c-0.4-0.4-0.6-0.8-0.8-1.2c-0.3-1.3-0.1-1.8,1.2-1.8c0.4-0.1,0.8-0.2,1.1-0.4c4.1-1.3,8.2-2.7,12.5-4c5.5-1.6,10.8-3.5,16.3-5.1
					c5-1.4,9.9-3.3,14.9-4.6c3.8-1,7.3-2.5,11-3.3c4.6-1.2,9-2.7,13.6-3.8c3.5-0.8,6.8-1.9,10.2-2.5c1.9-0.4,3.6-1,5.5-1.4
					c0.9-0.1,1.7-0.3,2.4-0.6c0.7-0.1,1.4-0.5,2.1-0.4c2.7-0.9,5.8-1.1,8.5-1.8c2.7-0.8,5.4-1,8.1-1.8c1.3-0.3,2.7-0.1,3.9-0.7
					c0.6,0.1,1.1-0.4,1.7-0.2c2.5-0.5,5-0.6,7.4-1.3c0.5,0.1,0.9-0.3,1.4,0l0.6-0.1c0.2,0,0.5,0,0.8,0c0.5-0.1,0.9-0.3,1.3-0.2
					c1.7,0,3.5-0.1,5.2-0.5c0.4-0.1,0.8,0,1.1,0l0.6-0.2c0.4-0.1,0.7,0,1.1,0l1-0.2c0.5,0,0.9,0,1.4,0c0.9-0.1,1.6,0.1,2.4-0.2
					c0.4-0.1,0.8,0,1.1,0c0.8-0.2,1.6,0.3,2.4-0.2c0.3,0.1,0.7-0.1,1,0.2c0.7,0,1.2,0.3,1.9,0.1c0.3,0.1,0.5,0.2,0.8,0.2
					c1.6-0.1,3.2-0.1,4.8,0c1.1,0,2.1,0.1,3.3,0.2c0.2-0.1,0.5,0,0.7,0.1h0.5c0.2,0.1,0.5,0.1,0.7,0.1c2.1,0.1,4.2,0.4,6.1,1.1
					c0.3,0.1,0.6,0.1,0.9,0.2h0.5c0.3,0.2,0.5,0.2,0.8,0.2s0.6,0.1,0.8,0.2c4.1,1.1,8.2,2,11.9,3.9c4.1,2.2,8.4,4.1,12.1,7.2
					c0.4,0.3,0.8,0.5,1.2,0.8c0.2,0.1,0.5,0.4,0.6,0.6c1,0.6,2,1.4,2.8,2.3c0.2,0.1,0.5,0.4,0.6,0.6c1.8,1.3,3.5,2.9,4.8,4.7
					c0.5,0.6,1,1.1,1.5,1.8c0.1,0.2,0.4,0.4,0.6,0.6c1.4,1.7,2.7,3.4,4,5.2c0.9,1.2,1.7,2.5,2.5,3.7c0.2,0.3,0.4,0.7,0.7,0.9
					c0.8,1.8,1.9,3.3,2.6,5c0.5,0.5,0.7,1.4,1.1,1.9l0.9,2.5c0.7,1,0.9,2.3,1.5,3.3c1,3,2,5.9,2.8,8.9c0.9,3.1,1.6,6.3,2.2,9.4
					c0.3,1.6,0.2,3.2,0.6,4.9c-0.1,0.3,0.1,0.8,0,1.1c0.3,0.8,0.4,1.5,0.3,2.4c0,0.4,0,0.9,0,1.4c0.3,0.8-0.1,1.7,0.2,2.4
					c0.1,0.4,0.1,0.6,0,0.8c0.2,1.2-0.3,2.4,0,3.7c0.1,0.2,0,0.5-0.1,0.7c-0.5,2.5-0.5,5.1-1.1,7.6c0,0.3-0.1,0.6-0.2,0.8
					c-0.3,1.8-0.4,2.3-0.8,2.2c3.2,3.2,6.8,5,10.9,7.8c0-0.3,0-0.5,0-0.8c0.4-1.4,0.8-2.9,1.3-4.2c0.2-0.4,0.3-0.8,0.3-1.4
					c0-0.3,0.1-0.6,0.2-0.8c0.5-1.8,0.9-3.7,1-5.5c-0.1-0.4,0-0.7,0.1-1c0-0.3,0-0.4,0-0.7c-0.1-0.4,0-0.7,0.2-1
					c0.2-0.8,0.3-1.5,0.3-2.3c0-0.3,0-0.5,0-0.8c0.1-0.6,0-1.2-0.1-1.7c0-0.3,0-0.7,0.1-0.9c0.1-0.3,0.1-0.6,0-0.8
					c-0.1-0.4-0.1-0.8,0-1.2c-0.1-4.2-0.4-8.3-1-12.5c-0.4-2.7-0.9-5.5-1.3-8.2c-0.3-1.4-0.8-2.9-1.3-4.3c-1.2-2.9-1.9-6-2.8-9
					c-0.4-1.1-0.7-2.1-1-3.1c-0.2-0.8-0.6-1.7-1-2.5c-0.5-0.6-0.8-1.4-1-2.2c-0.2-0.6-0.4-1.2-0.7-1.7c-0.4-0.5-0.7-1-0.9-1.6
					c-0.1-0.2-0.2-0.4-0.3-0.6c-0.3-0.2-0.4-0.5-0.5-0.8c-0.1-0.4-0.1-0.5-0.2-0.9C247.9,44.1,247.8,43.9,247.2,42.9z"/>
			</g>
		</g>
		<g id="Layer_2_1_">
			<path class="st1" d="M195.6,164.9c-12.2,2.2-36.7,6.6-65.1-3.2c-18.9-6.6-30.3-16.3-47.9-31.5c-12-10.3-6.6-7.8-51.2-64.6
				c-3.8-4.8-11-13.9-8.1-20.5c2.4-5.4,10.7-6.4,13.8-6.9C75,33,78.6,17.7,143.3,11.8c32.5-3,48.8-4.3,62.1,2.1
				c24.2,11.8,35.5,35.7,42.6,50.9c5.8,12.1,13.9,30,9,49c-1.8,6.9-5.1,13.1-6.8,16.1c-2.1,3.8-8.4,13.8-19.6,22
				C218.4,160.7,206.7,162.9,195.6,164.9z"/>
		</g>
	</g>
</g>
<g>
	<g>
		<g>
			<path class="st2" d="M57.7,65.6l0.9-1.2c1,0.8,2,1.3,3.3,1.3c1.5,0,2.2-0.8,2.2-1.7c0-1.1-1.3-1.7-2.6-2.1
				c-1.6-0.6-3.3-1.3-3.3-3.2c0-1.8,1.4-3.2,3.9-3.2c1.4,0,2.6,0.6,3.5,1.3L64.7,58c-0.8-0.6-1.6-1-2.5-1c-1.4,0-2.1,0.8-2.1,1.6
				c0,1.1,1.2,1.5,2.5,1.9c1.6,0.6,3.4,1.3,3.4,3.4c0,1.8-1.4,3.3-4.1,3.3C60.3,67.2,58.8,66.5,57.7,65.6z"/>
			<path class="st2" d="M69.2,50.5h1.9V55L71,57.3c1-1,2.2-1.8,3.7-1.8c2.4,0,3.4,1.5,3.4,4.4V67h-1.9v-7c0-2.1-0.6-3-2.1-3
				c-1.1,0-1.9,0.6-3.1,1.7v8.1h-1.9L69.2,50.5L69.2,50.5z"/>
			<path class="st2" d="M81.5,61.3c0-3.7,2.4-5.9,5.2-5.9c2.7,0,5.2,2.1,5.2,5.9c0,3.7-2.4,5.9-5.2,5.9C84,67.2,81.5,65,81.5,61.3z
				 M89.9,61.3c0-2.6-1.3-4.3-3.2-4.3c-1.9,0-3.2,1.7-3.2,4.3s1.3,4.3,3.2,4.3S89.9,63.9,89.9,61.3z"/>
			<path class="st2" d="M95.4,55.7H97l0.2,1.3h0.1c1-0.8,2.3-1.6,3.6-1.6c2.9,0,4.4,2.2,4.4,5.7c0,3.8-2.3,6-4.8,6
				c-1,0-2.1-0.5-3.1-1.3l0.1,2v3.8h-1.9V55.7H95.4z M103.3,61.1c0-2.5-0.8-4.1-2.9-4.1c-0.9,0-1.9,0.5-3,1.5v5.9
				c1,0.9,2,1.2,2.7,1.2C101.9,65.6,103.3,63.9,103.3,61.1z"/>
			<path class="st2" d="M114.4,63.4v-6.2h-1.7v-1.4l1.7-0.1l0.2-3.1h1.6v3.1h3v1.5h-3v6.2c0,1.4,0.4,2.2,1.7,2.2
				c0.4,0,0.9-0.2,1.3-0.3l0.4,1.4c-0.6,0.2-1.4,0.4-2.1,0.4C115.2,67.2,114.4,65.7,114.4,63.4z"/>
			<path class="st2" d="M122.5,50.5h1.9V55l-0.1,2.3c1-1,2.2-1.8,3.7-1.8c2.4,0,3.4,1.5,3.4,4.4V67h-1.9v-7c0-2.1-0.6-3-2.1-3
				c-1.1,0-1.9,0.6-3.1,1.7v8.1h-1.9L122.5,50.5L122.5,50.5z"/>
			<path class="st2" d="M134.8,61.3c0-3.7,2.4-5.9,5.2-5.9c2.7,0,5.2,2.1,5.2,5.9c0,3.7-2.4,5.9-5.2,5.9S134.8,65,134.8,61.3z
				 M143.2,61.3c0-2.6-1.3-4.3-3.2-4.3s-3.2,1.7-3.2,4.3s1.3,4.3,3.2,4.3S143.2,63.9,143.2,61.3z"/>
			<path class="st2" d="M148.5,62.8v-7.1h1.9v6.8c0,2.1,0.6,3,2.1,3c1.1,0,1.9-0.6,3-1.9v-7.9h1.9v11.2h-1.6l-0.2-1.8h-0.1
				c-1,1.2-2.2,2-3.7,2C149.6,67.2,148.5,65.6,148.5,62.8z"/>
			<path class="st2" d="M161,69c0-1,0.6-1.9,1.6-2.5v-0.1c-0.6-0.4-1-1-1-1.8c0-0.9,0.7-1.7,1.2-2.1v-0.1c-0.7-0.6-1.4-1.7-1.4-3
				c0-2.4,1.9-4,4.2-4c0.6,0,1.2,0.1,1.6,0.3h3.9v1.5h-2.3c0.5,0.5,0.9,1.3,0.9,2.3c0,2.4-1.8,3.9-4.1,3.9c-0.5,0-1.2-0.1-1.7-0.4
				c-0.4,0.3-0.7,0.7-0.7,1.3c0,0.7,0.5,1.2,2,1.2h2.2c2.6,0,3.9,0.8,3.9,2.7c0,2.1-2.2,3.9-5.7,3.9C162.8,72,161,71,161,69z
				 M169.4,68.4c0-1-0.8-1.4-2.3-1.4h-1.9c-0.4,0-1,0-1.5-0.2c-0.8,0.6-1.1,1.2-1.1,1.9c0,1.2,1.2,2,3.2,2
				C168,70.7,169.4,69.6,169.4,68.4z M167.9,59.4c0-1.6-1.1-2.6-2.4-2.6c-1.3,0-2.4,1-2.4,2.6s1.1,2.7,2.4,2.7S167.9,61,167.9,59.4z
				"/>
			<path class="st2" d="M174,50.5h1.9V55l-0.1,2.3c1-1,2.2-1.8,3.7-1.8c2.4,0,3.4,1.5,3.4,4.4V67H181v-7c0-2.1-0.6-3-2.1-3
				c-1.1,0-1.9,0.6-3.1,1.7v8.1H174V50.5z"/>
			<path class="st2" d="M187.5,63.4v-6.2h-1.7v-1.4l1.7-0.1l0.2-3.1h1.6v3.1h3v1.5h-3v6.2c0,1.4,0.4,2.2,1.7,2.2
				c0.4,0,0.9-0.2,1.3-0.3l0.4,1.4c-0.6,0.2-1.4,0.4-2.1,0.4C188.3,67.2,187.5,65.7,187.5,63.4z"/>
			<path class="st2" d="M194.3,55.8l1.6-0.1h4.2v1.5h-5.8V55.8z M195.9,53.9c0-2.3,1-3.7,3.3-3.7c0.7,0,1.3,0.2,1.9,0.4l-0.4,1.4
				c-0.4-0.2-0.9-0.3-1.3-0.3c-1.1,0-1.6,0.7-1.6,2.2v12.9h-1.9V53.9z"/>
			<path class="st2" d="M202.7,62.8v-7.1h1.9v6.8c0,2.1,0.6,3,2.1,3c1.1,0,1.9-0.6,3-1.9v-7.9h1.9v11.2H210l-0.2-1.8h-0.1
				c-1,1.2-2.2,2-3.7,2C203.8,67.2,202.7,65.6,202.7,62.8z"/>
			<path class="st2" d="M216,64.6V50.5h1.9v14.3c0,0.6,0.3,0.8,0.5,0.8c0.1,0,0.2,0,0.4,0l0.3,1.4c-0.3,0.1-0.6,0.2-1.1,0.2
				C216.6,67.2,216,66.3,216,64.6z"/>
			<path class="st2" d="M222.5,64.6V50.5h1.9v14.3c0,0.6,0.3,0.8,0.5,0.8c0.1,0,0.2,0,0.4,0l0.3,1.4c-0.3,0.1-0.6,0.2-1.1,0.2
				C223.1,67.2,222.5,66.3,222.5,64.6z"/>
			<path class="st2" d="M227.9,71.5l0.4-1.5c0.2,0.1,0.6,0.2,0.9,0.2c1.3,0,2.1-1,2.5-2.4L232,67l-4.5-11.2h2l2.3,6.2
				c0.4,1,0.7,2.1,1.1,3.1h0.1c0.3-1,0.6-2.2,0.9-3.1l2-6.2h1.9l-4.2,12.1c-0.8,2.2-1.9,3.9-4.2,3.9
				C228.7,71.7,228.2,71.6,227.9,71.5z"/>
			<path class="st2" d="M128.5,83.3h1.9l1.7,6.5c0.2,1.1,0.5,2.1,0.7,3.1h0.1c0.2-1.1,0.5-2.1,0.8-3.1l1.7-6.5h1.8l1.7,6.5
				c0.3,1.1,0.5,2.1,0.8,3.1h0.1c0.2-1.1,0.5-2.1,0.7-3.1l1.6-6.5h1.8l-3,11.2h-2.3l-1.6-6c-0.3-1.1-0.5-2.1-0.8-3.2h-0.1
				c-0.2,1.1-0.5,2.2-0.8,3.2l-1.6,6h-2.2L128.5,83.3z"/>
			<path class="st2" d="M146.6,79.8c0-0.7,0.6-1.2,1.3-1.2s1.3,0.5,1.3,1.2s-0.6,1.2-1.3,1.2S146.6,80.5,146.6,79.8z M146.9,83.3
				h1.9v11.2h-1.9V83.3z"/>
			<path class="st2" d="M153.5,91v-6.2h-1.7v-1.4l1.7-0.1l0.2-3.1h1.6v3.1h3v1.5h-3V91c0,1.4,0.4,2.2,1.7,2.2c0.4,0,0.9-0.1,1.3-0.3
				l0.4,1.4c-0.6,0.2-1.4,0.4-2.1,0.4C154.3,94.8,153.5,93.3,153.5,91z"/>
			<path class="st2" d="M161.6,78.1h1.9v4.5l-0.1,2.3c1-1,2.2-1.8,3.7-1.8c2.4,0,3.4,1.5,3.4,4.4v7.1h-1.9v-6.8c0-2.1-0.6-3-2.1-3
				c-1.1,0-1.9,0.6-3.1,1.7v8.1h-1.9V78.1H161.6z"/>
		</g>
	</g>
	<g>
		<g>
			<g>
				<path class="st2" d="M95.3,127.1l1.4-1.7c1.3,1.5,3.1,2.4,5,2.4c2.4,0,3.8-1.3,3.8-3.2c0-2-1.3-2.7-3-3.5l-2.6-1.2
					c-1.7-0.8-3.7-2.2-3.7-5.1c0-3,2.4-5.2,5.7-5.2c2.2,0,4.1,1,5.3,2.4l-1.2,1.6c-1.1-1.1-2.4-1.8-4.1-1.8c-2,0-3.4,1.1-3.4,2.9
					c0,1.9,1.6,2.6,3,3.3l2.6,1.2c2.1,1,3.7,2.3,3.7,5.3c0,3.1-2.4,5.6-6.2,5.6C99.1,130,96.9,128.9,95.3,127.1z"/>
				<path class="st2" d="M111,124.3V115h2.3v8.9c0,2.7,0.8,3.9,2.5,3.9c1.4,0,2.3-0.7,3.6-2.5V115h2.3v14.6h-1.9l-0.2-2.3h-0.1
					c-1.2,1.6-2.6,2.6-4.4,2.6C112.2,130,111,128,111,124.3z"/>
				<path class="st2" d="M124.7,128l1.1-1.6c1.2,1,2.4,1.7,4,1.7c1.8,0,2.6-1,2.6-2.3c0-1.5-1.6-2.2-3.1-2.8c-1.9-0.7-4-1.8-4-4.2
					c0-2.3,1.7-4.1,4.6-4.1c1.7,0,3.1,0.7,4.2,1.6l-1.1,1.6c-0.9-0.7-1.9-1.3-3.1-1.3c-1.7,0-2.5,1-2.5,2.1c0,1.4,1.5,1.9,3,2.5
					c1.9,0.8,4.1,1.6,4.1,4.4c0,2.4-1.7,4.3-4.9,4.3C127.8,130,126,129.1,124.7,128z"/>
				<path class="st2" d="M138.2,125.1V117h-2v-1.9l2.1-0.1l0.3-4.1h1.9v4.1h3.6v2h-3.6v8.1c0,1.8,0.5,2.8,2.1,2.8
					c0.5,0,1.1-0.2,1.5-0.4l0.4,1.9c-0.8,0.3-1.7,0.5-2.5,0.5C139.2,130,138.2,128,138.2,125.1z"/>
				<path class="st2" d="M146.3,125.9c0-3.2,2.5-4.8,8.3-5.4c0-1.9-0.6-3.7-2.8-3.7c-1.6,0-3,0.8-4,1.6l-0.9-1.7
					c1.2-0.9,3.1-1.9,5.3-1.9c3.3,0,4.7,2.4,4.7,6v9H155l-0.2-1.7h-0.1c-1.3,1.2-2.8,2.1-4.4,2.1C148,130,146.3,128.5,146.3,125.9z
					 M154.6,126.1V122c-4.5,0.6-6,1.8-6,3.6c0,1.7,1,2.3,2.4,2.3C152.2,128,153.3,127.3,154.6,126.1z"/>
				<path class="st2" d="M160.7,110.5c0-1,0.7-1.6,1.6-1.6s1.6,0.6,1.6,1.6c0,0.9-0.7,1.6-1.6,1.6S160.7,111.4,160.7,110.5z
					 M161.1,115h2.3v14.6h-2.3V115z"/>
				<path class="st2" d="M167.9,115h1.9l0.2,2.1h0.1c1.3-1.4,2.7-2.5,4.5-2.5c2.8,0,4.1,2,4.1,5.7v9.2h-2.3v-8.9
					c0-2.7-0.8-3.9-2.5-3.9c-1.4,0-2.3,0.8-3.7,2.2v10.6h-2.3V115z"/>
			</g>
		</g>
		<g>
			<g>
				<path class="st2" d="M187.9,115c3,0,4.2,2.3,4.2,5.3c0,1.2-0.3,2.3-0.5,2.8h-8.7c-0.5,3.8,1.3,5.4,3.6,5.4c1.1,0,2.2-0.6,3-1.3
					l0.8,1.5c-1.1,0.8-2.6,1.6-4.3,1.6c-3.2,0-5.3-2.2-5.3-6.1C180.8,118.8,184.5,115,187.9,115z M190.2,121.6
					c0.1-0.5,0.1-0.9,0.1-1.5c0-1.7-0.7-3.2-2.6-3.2c-2,0-3.9,1.9-4.6,4.7H190.2z"/>
				<path class="st2" d="M205.1,114.3l1.1-5.7h2.1l-4,21.4h-1.7l0.2-2.2h-0.1c-1.3,1.5-3,2.5-4.7,2.5c-2.4,0-3.9-1.9-3.9-5.3
					c0-5.6,3.5-10,7.3-10c1.4,0,2.5,0.8,3.2,2.1h0.1L205.1,114.3z M203,125.7l1.2-6.5c-0.8-1.5-1.7-2.2-2.8-2.2
					c-2.7,0-5.2,3.7-5.2,7.8c0,2.5,1,3.7,2.5,3.7C200.2,128.4,201.7,127.5,203,125.7z"/>
			</g>
		</g>
	</g>
</g>
</svg>
