<?xml version="1.0" encoding="utf-8"?>
<!-- Generator: Adobe Illustrator 24.3.0, SVG Export Plug-In . SVG Version: 6.00 Build 0)  -->
<svg version="1.1" id="Layer_1" xmlns="http://www.w3.org/2000/svg" xmlns:xlink="http://www.w3.org/1999/xlink" x="0px" y="0px"
	 viewBox="0 0 1411.4 360" style="enable-background:new 0 0 1411.4 360;" xml:space="preserve">
<style type="text/css">
	.st0{fill:#CC7070;}
	.st1{fill:#87B767;}
</style>
<g id="Layer_1_1_">
	<g id="Layer_4">
		<path class="st0" d="M231.5,140.9c0.1-0.6,0.3-1.3,0.6-1.9c0.4-0.7,0.7-1.5,0.8-2.4c0-0.3,0.1-0.5,0.2-0.8
			c0.1-0.2,0.1-0.3,0.1-0.5s0.1-0.4,0.3-0.6c0.3-0.5,0.5-1,0.6-1.5c0.4-1.2,0.7-2.4,1-3.6c0.8-3,1.7-5.9,2.3-9
			c0-0.3,0.1-0.6,0.2-0.8c0.1-0.2,0.1-0.4,0.1-0.6s0.1-0.4,0.2-0.7c0.1-0.9,0.5-1.8,0.6-2.7c0-0.3,0.1-0.7,0.2-0.9
			c0.2-0.8,0.3-1.7,0.2-2.6c-0.1-0.3,0-0.5,0.1-0.8c0.1-0.2,0.1-0.3,0.1-0.5c0-0.3,0.1-0.5,0.2-0.8c0.5-2.5,0.8-5,1-7.6
			c-0.1-0.3-0.1-0.7,0.1-1.1c0.1-0.3,0.1-0.6,0-0.8c-0.1-0.3-0.1-0.6,0.1-0.9c0.1-0.5,0.2-0.9,0.2-1.4c0-0.4,0-0.8,0-1.2
			c0-2.1,0.4-4.2,0.2-6.3c-0.1-1,0.4-2.1,0-3.1c0-0.4-0.4-0.9,0-1.3c0.2-1.8,0.1-3.6-0.3-5.4l-0.1-0.7c-0.1-0.3-0.1-0.7,0.1-1
			c0-1.4-0.1-2.8-0.4-4.1c-0.2-0.8-0.3-1.5-0.4-2.3c-1-4.4-1.9-8.9-2.9-13.3c-0.1-0.3-0.2-0.6-0.4-0.9c-0.5-1.1-1.5-1.3-2.5-1.6
			c-1.5,0.2-3,0.5-4.5,0.9c-0.1,0.2-0.3,0.4-0.6,0.5c-0.3,0.6-1,0.9-1.1,1.6c-0.1,0.2-0.2,0.4-0.2,0.7c-0.1,0.5-0.2,1-0.1,1.5
			c-0.1,0.4,0,0.9,0.1,1.3c0.3,1.5,0.6,3,0.8,4.6c0.1,1.4,0.7,2.7,0.8,4c0.1,1.4,0.3,2.8,0.6,4.2c-0.1,0.5,0.2,1.1,0,1.6
			c0,0.4,0.1,0.7,0.1,1.1c-0.1,0.6,0.2,1.2,0.1,1.9c0.2,1.1,0.3,2.3,0.2,3.4s0.4,2.2,0.3,3.3c-0.2,2.1-0.1,4.2-0.1,6.3
			c0,0.3,0,0.7-0.1,1l-0.2,3.6c0.1,0.2,0,0.4-0.1,0.7c0.1,1.6,0,3.2-0.2,4.8c-0.1,0.3-0.1,0.7-0.1,1l-0.2,1.5
			c-0.1,0.2-0.2,0.4-0.2,0.7c-0.2,2.3-0.8,4.6-1.1,6.9c0,0.2-0.1,0.4-0.2,0.6c-0.1,1.2-0.3,2.4-0.5,3.6c-0.1,0.2-0.2,0.4-0.2,0.7
			l-0.5,2c-0.1,0.2-0.2,0.4-0.2,0.7l-1.9,6.6c0,0.2-0.1,0.5-0.2,0.7c-0.8,2.8-1.7,5.5-2.6,8.2c-1.4,4.3-3.4,8.4-5.1,12.6
			c-1.3,3.1-2.8,6-4.4,9s-3.3,5.8-4.9,8.6c-0.7,1.2-1.5,2.2-2.2,3.4c-3,4.8-6.3,9.5-9.9,13.9c-0.1,0.5-0.5,0.7-0.8,1.1
			c-1.8,2-3.3,4.2-5.1,6.2c-3.1,3.4-6.3,6.6-9.5,9.9c-2.1,2.1-4.4,4-6.6,6.1c-0.2,0.1-0.4,0.3-0.5,0.5l-0.4,0.2
			c-0.1,0.2-0.3,0.4-0.5,0.5l0,0c-0.2,0.1-0.4,0.2-0.5,0.4c-1.3,0.9-2.5,1.9-3.6,3.1c-0.2,0.1-0.4,0.3-0.6,0.4l-4.7,3.2
			c-0.3,0.2-0.6,0.4-0.8,0.6l-2.3,1.3c-0.2,0.2-0.5,0.4-0.8,0.5c-0.3,0-0.5,0.1-0.8,0.3c-1.1,0.6-2,1.6-3.4,2
			c-0.3,0.1-0.6,0.3-0.8,0.5l-0.4,0.2c-0.2,0.3-0.6,0.3-0.8,0.5l-4.7,1.9c-0.4,0.3-1,0.3-1.4,0.6c-2,0.2-3.6,1.5-5.6,1.8
			c-1.5,0.3-2.8,1.4-3.3,2.8c-0.1,0.2-0.2,0.4-0.2,0.6c-0.4,2.6,1,6.1,4.2,6.4c0.3,0,0.6,0.2,1,0.1l1.2-0.2c2.6-0.4,5-1.6,7.5-2.2
			c0.5-0.2,1-0.4,1.4-0.6l0.9-0.2c0.4-0.2,0.8-0.3,1.2-0.6l3.8-1.7c0.3-0.2,0.6-0.3,0.8-0.5l0.9-0.5c0.3-0.2,0.5-0.4,0.8-0.5
			c0.4-0.3,0.8-0.5,1.3-0.7c0.3-0.1,0.5-0.4,0.8-0.5c1.6-1,3.3-1.9,4.9-2.9c2.2-1.4,4.2-3,6.3-4.6c0.2-0.1,0.4-0.3,0.5-0.4
			c0.9-0.7,1.9-1.5,2.8-2.2s2-1.8,3.1-2.5c0.1-0.2,0.3-0.3,0.6-0.5c1.2-1.1,2.3-2.2,3.5-3.3c4-3.6,7.8-7.4,11.4-11.4
			c1.9-2.3,3.9-4.6,5.8-6.9s3.9-4.9,5.8-7.4c1.3-1.8,2.7-3.5,3.9-5.4c2.5-4,5.1-7.9,7.4-12c1.8-3.1,3.4-6.2,5-9.4
			c0.9-1.9,1.9-3.7,2.7-5.6c0.2-0.5,0.4-1.1,0.7-1.5c1-3.8,2.9-6.8,4.9-10.6C231.5,141.4,231.5,141.1,231.5,140.9z"/>
		<path class="st0" d="M255.7,198c-0.1-0.5-0.4-1-0.2-1.6c0-0.2,0-0.4,0-0.6c-0.1-0.5-0.1-1,0-1.6c0-0.5-0.1-1.1-0.2-1.6
			c-0.2-0.7-0.3-1.4-0.2-2.1c0-0.8-0.1-1.6-0.3-2.3c-0.2-0.9-0.4-1.8-0.6-2.8c-0.6-2.7-1.4-5.3-1.8-8c-0.2-1.3-0.5-2.6-0.9-3.8
			c-0.9-2.2-1.7-4.5-2.6-6.7c-1.4-3.4-2.9-6.6-4.7-9.8c-0.2-0.3-0.4-0.6-0.5-0.9c-0.1-0.2-0.2-0.4-0.4-0.6c-0.2-0.1-0.4-0.4-0.5-0.6
			c-0.2-0.4-0.4-0.9-0.7-1.3c-0.2-0.2-0.3-0.4-0.4-0.6c-0.3-0.6-0.7-1.1-1.2-1.6c-0.3-0.2-0.5-0.4-0.6-0.7c-0.1-0.2-0.2-0.3-0.3-0.5
			c-0.2-0.2-0.4-0.4-0.5-0.7c-0.9-1.3-2-2.6-3.2-3.7c-0.2-0.1-0.4-0.3-0.5-0.5c-0.2-0.4-0.5-0.7-0.8-0.9c-0.9-0.8-1.9-1.7-2.8-2.6
			c-0.2-0.2-0.3-0.4-0.4-0.6c-1.9,3.9-3.9,6.8-4.9,10.6c0.3-0.3,0.6,0.1,1.6,1.3c0.2,0.1,0.4,0.3,0.5,0.5c1.6,1.6,2.7,3.5,4.2,5.2
			c0.2,0.1,0.4,0.3,0.4,0.5c0.3,1.1,1.2,1.8,1.6,2.8c0.2,0.1,0.3,0.3,0.4,0.6c0.1,0.7,0.8,1.2,0.9,1.9c0.2,0.4,0.4,0.8,0.6,1.1
			c0.4,0.6,0.7,1.2,0.8,1.9c0.2,0.2,0.3,0.6,0.5,0.8c0.4,1.4,1.2,2.6,1.7,3.9c1,2.6,1.8,5.3,2.5,8c0.7,2.6,1.2,5.2,1.8,7.9
			c0,1,0.4,2,0.3,3.1l0.4,2.3c-0.1,0.6,0.2,1.3,0,1.9c0.2,1.6,0,3.2,0.2,4.9c-0.1,0.3-0.1,0.7-0.1,1c-0.1,1.3-0.1,2.6-0.3,3.9
			c-0.2,1.9-0.5,3.7-0.8,5.6c-0.1,0.2-0.2,0.5-0.2,0.7c-0.1,0.7-0.3,1.3-0.4,2c-0.2,1.9-0.8,3.8-1.6,5.6c0,0.2-0.1,0.5-0.2,0.7
			c-0.2,1-0.6,2-1.1,2.9c0,0.2-0.1,0.5-0.2,0.7c-0.2,0.4-0.4,0.7-0.6,1.1c-1.5,3.9-3.9,7.2-6.1,10.6c-2,3.1-4.8,5.5-7.4,8.1
			c-0.1,0.2-0.3,0.4-0.5,0.5s-0.4,0.2-0.5,0.5l-0.4,0.2c-0.2,0.2-0.4,0.3-0.6,0.5c-1.2,1.4-2.6,2.5-4.2,3.5
			c-0.2,0.1-0.4,0.2-0.5,0.4l-0.4,0.2c-0.1,0.2-0.3,0.4-0.5,0.4c-0.8,0.6-1.6,1.1-2.4,1.6c-1.2,0.8-2.4,1.5-3.7,2.1
			c-0.2,0.1-0.3,0.3-0.5,0.5c-0.6,0.1-0.9,0.6-1.4,0.9c-0.1,0.4-0.5,0.4-0.7,0.6c-0.8,0-1.2,0.7-1.9,0.9c-0.2,0.2-0.5,0.4-0.8,0.5
			c-0.7,0.1-1.2,0.6-1.9,0.9c-0.4,0.2-0.7,0.4-1.1,0.6l-0.8,0.3c-0.3,0.2-0.5,0.4-0.8,0.5l-0.6,0.1c-0.2,0.2-0.5,0.4-0.8,0.5
			c-1.5,0.5-2.9,1.2-4.2,1.9c-0.3,0.2-0.7,0.3-1.1,0.4c-0.2,0.1-0.5,0.2-0.6,0.3l-0.5,0.2c-0.3,0.4-0.8,0.3-1.1,0.6
			c-2.1,0.5-4.1,1.5-6.2,2.2c-0.4,0.4-1,0.3-1.4,0.6c-1.2,0.1-2.2,0.9-3.3,1.2c-2.4,0.6-4.6,1.6-7,2.2s-4.8,1.8-7.3,2.3
			c-0.5,0.4-1.2,0.4-1.8,0.6c-0.7,0.1-1.4,0.3-2.1,0.6c-1.6,0.5-3.2,0.8-4.8,1.3c-2.9,1-5.9,1.6-8.9,2.5c-4,1.1-8.1,1.9-12.1,3
			c-3.2,1-6.6,1.4-9.9,2.3c-4.4,1.2-9,1.9-13.4,3c-4.9,1.2-9.8,2-14.7,3.2c-3.8,0.9-7.6,1.6-11.3,2.4c-0.3,0-0.7,0.1-1,0.2
			c-1,0.6-1.4,0.3-1.7-0.8c0-0.4,0-0.8,0.1-1.3v-0.8c0.2-0.4-0.1-0.9,0.1-1.3c-0.2-1-0.2-2-0.2-3c0-0.4,0-0.8,0.1-1.2
			c0-0.4-0.1-0.8-0.1-1.1c0.1-0.3,0.1-0.7,0.1-1c0-2-0.1-4.1-0.1-6.1c0-0.4,0.1-0.9,0.1-1.3l0.1-4.1c0-0.3,0-0.6,0.1-1
			c0-0.4-0.1-0.8-0.1-1.1s0.1-0.6,0.1-1c0.1-1.9,0.1-3.8,0.2-5.7l0.2-4c0-0.3,0.1-0.7,0.1-1v-0.5c0.1-0.3,0.1-0.7,0.2-1
			c0-1.1,0.1-2.2,0.2-3.2c0.1-0.3,0.2-0.6,0.1-0.9c-0.1-0.2-0.1-0.5,0-0.7c0.3-1.3,0.4-2.6,0.2-3.9c0-0.2,0-0.5,0.2-0.7
			c0-0.2,0-0.3,0-0.5c0.1-0.3,0.1-0.7,0.2-1c0.1-2.3,0.6-4.6,0.9-6.9c0.3-2.5,0.7-5,1-7.5c0.1-0.2,0.2-0.4,0.2-0.7
			c0.5-2.6,1-5.2,1.6-7.9c0.6-2,1-4,1.2-6c0-0.2,0-0.5,0.2-0.6v-0.5c0.1-0.2,0.2-0.5,0.2-0.7c0.1-0.2,0.2-0.4,0.2-0.6
			c0.8-3.1,1.7-6.1,2.8-9c0-0.2,0.1-0.5,0.2-0.7c0.7-1.7,0.9-3.5,1.7-5.1c0-0.2,0.1-0.5,0.2-0.7c1.9-5.1,4.1-10.1,6.6-14.9
			c2-3.9,4.3-7.7,6.9-11.3c2.5-3.7,5.3-7.1,8.4-10.2c0.2-0.1,0.4-0.3,0.5-0.5c0.3-0.3,0.6-0.6,0.8-1c0.2-0.1,0.4-0.3,0.6-0.5
			c2.7-2.7,5.7-5.3,8.9-7.5c0.2-0.1,0.3-0.4,0.5-0.4c0.7-0.4,1.3-0.8,1.9-1.3c0.3-0.2,0.6-0.4,0.8-0.5l0.4-0.2
			c0.1-0.2,0.4-0.3,0.5-0.5l1.1-0.8c0.3-0.2,0.6-0.3,0.9-0.5l1.9-0.9c0.1-0.2,0.3-0.4,0.6-0.4c1.3-0.5,2.5-1.2,3.8-1.8
			c2.6-1.3,5.3-2.4,8-3.4c0.5-0.3,1.2-0.3,1.8-0.7l3.2-0.8c2.5-0.7,5-1.4,7.6-1.9c0.6-0.2,1.2-0.3,1.9-0.2l1.7-0.2
			c0.3,0.1,0.7,0,1-0.1c0.5-0.1,1-0.1,1.5-0.1c0.8-0.1,1.6-0.3,2.4-0.3c2.9-0.1,5.7-0.4,8.6-0.3c0.3,0.1,0.6,0,1,0.1h2.1
			c0.3,0,0.6,0.1,1,0.1l1.1-0.1c0.2,0.1,0.4,0.2,0.6,0.1l5.8,0.4c0.3,0,0.6,0.1,1,0.1c0.3,0.2,0.7,0.3,1.1,0.2c0.2,0,0.5,0,0.7,0.2
			l2,0.5c0.2,0,0.5,0.1,0.7,0.2l0.5,0.1c0.2,0.2,0.4,0.2,0.6,0.2c0.5-0.1,1,0.1,1.4,0.2c0.2,0.1,0.5,0.2,0.7,0.2
			c1.3,0.7,2.8,1.1,4.3,1.1c2.4,0,4.7-2.8,4.6-5.2c0.1-0.8-0.1-1.7-0.5-2.4c-0.6-1.3-1.7-2.2-3-2.6c-0.7-0.2-1.3-0.5-2.5-0.8
			c-1.4-0.4-2.5-0.6-2.9-0.7c-3.3-0.6-7.6-1.3-8.4-1.4c-0.2-0.1-0.5-0.2-0.7-0.2h-0.3c-0.2,0.1-0.5,0-0.7-0.2
			c-1.1,0-2.1-0.4-3.2-0.3c-0.4-0.1-0.7,0.3-1.1,0c-3.3-0.3-6.6-0.5-9.9-0.4c-2.2,0-4.4,0.1-6.6,0.5c-0.3-0.1-0.7-0.1-1,0
			c-0.5,0.1-1,0.2-1.5,0.1c-6.2,0.7-12.3,2.1-18.3,4c-0.5,0.2-0.9,0.4-1.5,0.5c-0.4,0.1-0.8,0.2-1.2,0.4l-0.8,0.2
			c-0.4,0.4-1,0.3-1.4,0.6l-5.1,2.1c-0.2,0.2-0.6,0.5-1,0.6c-0.2,0.1-0.5,0.2-0.7,0.3c-2.8,1.4-5.6,3-8.2,4.7
			c-0.1,0.2-0.3,0.4-0.6,0.4l-0.3,0.1c-0.2,0.1-0.4,0.2-0.6,0.4c-1.1,0.6-2.1,1.2-3,2c-1.8,1.2-3.5,2.5-5.1,3.9
			c-0.2,0.1-0.4,0.3-0.6,0.5l-4.2,4c-0.2,0.1-0.4,0.3-0.5,0.5c-2.7,2.7-5.3,5.5-7.7,8.5c-2.4,2.9-4.5,6-6.6,9.1
			c-1.8,2.9-3.4,6-5,8.9c-0.9,1.7-1.9,3.3-2.7,5.1c-1.4,3.3-2.7,6.6-4.1,9.9c0,0.2-0.1,0.5-0.2,0.7l-2,5.4c0,0.2-0.1,0.5-0.2,0.6
			c-0.7,2.3-1.4,4.6-2,6.9s-1.3,4.5-1.8,6.9c-0.1,0.2-0.2,0.5-0.2,0.7c-0.2,0.3-0.3,0.7-0.2,1.1c-0.1,0.2-0.2,0.5-0.2,0.7
			c-0.4,1.3-0.7,2.6-0.8,4c-0.3,2.3-0.9,4.6-1.3,6.9c0,0.2,0,0.5-0.2,0.7c0,0.1-0.1,0.1-0.1,0.2c0,0.3-0.2,0.6-0.2,1
			c-0.1,1.7-0.6,3.3-0.7,5.1c0,0.2-0.1,0.5-0.2,0.7l-0.6,4.9c0,0.2,0,0.5-0.2,0.7c-0.2,1.6-0.4,3.3-0.6,4.9s-0.3,3.1-0.5,4.6v1.1
			c-0.2,1.7-0.3,3.3-0.3,5c0,0.4,0,0.8-0.1,1.3c-0.2,1.1-0.3,2.1-0.3,3.2c-0.1,0.3-0.1,0.7-0.1,1s-0.1,0.7-0.1,1
			c0.2,0.9-0.2,1.7-0.1,2.5c0,0.4,0,0.7,0,1.1v0.3c0.1,0.2,0,0.5-0.1,0.7l0.1,1.4c0,0.3-0.1,0.6-0.1,1v2.1c0,0.4,0,0.9-0.1,1.3
			c0,0.7,0,1.4,0,2.1c0,0.3,0,0.7-0.1,1l0.1,1.1c0,0.4,0,0.9-0.1,1.3c0,1,0.1,2,0.1,3c0,1.6,0,3.3,0,4.9c-0.1,0.5,0,1,0,1.6
			c0.1,0.4,0.1,0.8,0.1,1.2c-0.1,2.6-0.1,5.3,0.2,7.9v1.1l1,4.8c0.5,1.3,1.7,2.1,3.1,2.2c3.7-0.7,7.4-1.4,11-2.3
			c4.8-1.2,9.7-2,14.5-3.2c4.4-1.1,8.9-1.9,13.3-2.9c8.4-2,16.9-3.7,25.3-5.5c0.8-0.1,1.6-0.4,2.4-0.7c1.5-0.5,3.1-0.6,4.7-1.2
			c0.7,0,1.3-0.1,1.9-0.4c0.5-0.1,1.1-0.2,1.6-0.3c2.4-0.3,4.6-1.6,7-2c3.2-0.5,6.2-1.9,9.4-2.5c1.6-0.3,3.2-0.9,4.6-1.6
			c0.6-0.6,1.4-0.5,2.2-0.7c2.1-0.2,4-1.4,6-1.8c0.9-0.1,1.8-0.4,2.7-0.9c1.6-1.1,3.6-1.2,5.4-2.1c0.6-0.3,1.3-0.6,1.9-0.8
			c1.8-0.6,3.6-1.2,5.4-2.1c2.4-1.2,4.9-2.1,7.3-3.3c0.3-0.2,0.6-0.4,0.9-0.5c1.6-0.6,3.1-1.4,4.6-2.3c0.2-0.2,0.5-0.4,0.9-0.5
			c1.1-0.6,2.2-1.2,3.3-1.7c0.2-0.2,0.5-0.4,0.9-0.5c0.4-0.2,0.7-0.4,1-0.6c0.2-0.2,0.5-0.4,0.8-0.5c1.2-0.6,2.3-1.3,3.4-2.1
			c0.1-0.2,0.4-0.4,0.6-0.5c0.1,0,0.3-0.1,0.4-0.1c0.2-0.1,0.4-0.3,0.6-0.4c0.1-0.1,0.1-0.1,0.2-0.2c0.2-0.2,0.3-0.3,0.6-0.4
			c2.4-1.6,4.8-3.4,6.9-5.3c0.1-0.2,0.3-0.4,0.5-0.5c0.3-0.2,0.7-0.4,0.9-0.7c1.9-1.7,3.7-3.5,5.3-5.5c1.3-1.7,2.9-3.3,4.2-5
			c2.5-3.3,4.6-6.8,6.2-10.6c0.1-0.3,0.3-0.6,0.5-1c0.8-1.9,1.5-3.8,2.2-5.7c0-0.2,0.1-0.5,0.2-0.7c0.6-1.5,1-3.1,1.4-4.7
			c0-0.3,0.1-0.6,0.2-0.9c0.5-1.7,0.8-3.4,1.1-5.1c0-0.3,0-0.6,0.1-0.9c0.1-1.3,0.4-2.5,0.4-3.8c0-0.3,0-0.7,0.1-1
			c0-0.3,0-0.6,0-0.8s0.1-0.5,0.1-0.7c0.1-0.6,0.1-1.2,0.2-1.8c-0.1-0.3-0.1-0.7,0.1-1c0.1-0.3,0.1-0.6,0-0.9
			c-0.1-0.3-0.1-0.7,0.1-1C255.1,191.9,262.4,241.9,255.7,198z"/>
	</g>
</g>
<g id="Layer_1_2_">
	<g id="Layer_4_1_">
		<path class="st1" d="M3670.5,203.6c0.3-0.8,1-1.7,2-2.5c1.3-0.9,2.3-1.9,2.7-3.1c0-0.4,0.3-0.7,0.7-1c0.3-0.3,0.3-0.4,0.3-0.6
			c0-0.3,0.3-0.5,1-0.8c1-0.6,1.7-1.3,2-1.9c1.3-1.6,2.3-3.1,3.3-4.7c2.7-3.9,5.6-7.7,7.6-11.7c0-0.4,0.3-0.8,0.7-1
			c0.3-0.3,0.3-0.5,0.3-0.8s0.3-0.5,0.7-0.9c0.3-1.2,1.7-2.3,2-3.5c0-0.4,0.3-0.9,0.7-1.2c0.7-1,1-2.2,0.7-3.4c-0.3-0.4,0-0.6,0.3-1
			c0.3-0.3,0.3-0.4,0.3-0.7c0-0.4,0.3-0.6,0.7-1c1.7-3.2,2.7-6.5,3.3-9.9c-0.3-0.4-0.3-0.9,0.3-1.4c0.3-0.4,0.3-0.8,0-1
			c-0.3-0.4-0.3-0.8,0.3-1.2c0.3-0.7,0.7-1.2,0.7-1.8c0-0.5,0-1,0-1.6c0-2.7,1.3-5.5,0.7-8.2c-0.3-1.3,1.3-2.7,0-4
			c0-0.5-1.3-1.2,0-1.7c0.7-2.3,0.3-4.7-1-7l-0.3-0.9c-0.3-0.4-0.3-0.9,0.3-1.3c0-1.8-0.3-3.6-1.3-5.3c-0.7-1-1-1.9-1.3-3
			c-3.3-5.7-6.3-11.6-9.6-17.3c-0.3-0.4-0.7-0.8-1.3-1.2c-1.7-1.4-5-1.7-8.3-2.1c-5,0.3-10,0.7-15,1.2c-0.3,0.3-1,0.5-2,0.7
			c-1,0.8-3.3,1.2-3.7,2.1c-0.3,0.3-0.7,0.5-0.7,0.9c-0.3,0.7-0.7,1.3-0.3,2c-0.3,0.5,0,1.2,0.3,1.7c1,1.9,2,3.9,2.7,6
			c0.3,1.8,2.3,3.5,2.7,5.2c0.3,1.8,1,3.6,2,5.5c-0.3,0.7,0.7,1.4,0,2.1c0,0.5,0.3,0.9,0.3,1.4c-0.3,0.8,0.7,1.6,0.3,2.5
			c0.7,1.4,1,3,0.7,4.4c-0.3,1.4,1.3,2.9,1,4.3c-0.7,2.7-0.3,5.5-0.3,8.2c0,0.4,0,0.9-0.3,1.3l-0.7,4.7c0.3,0.3,0,0.5-0.3,0.9
			c0.3,2.1,0,4.2-0.7,6.2c-0.3,0.4-0.3,0.9-0.3,1.3l-0.7,1.9c-0.3,0.3-0.7,0.5-0.7,0.9c-0.7,3-2.7,6-3.7,9c0,0.3-0.3,0.5-0.7,0.8
			c-0.3,1.6-1,3.1-1.7,4.7c-0.3,0.3-0.7,0.5-0.7,0.9l-1.7,2.6c-0.3,0.3-0.7,0.5-0.7,0.9l-6.3,8.6c0,0.3-0.3,0.6-0.7,0.9
			c-2.7,3.6-5.7,7.2-8.6,10.7c-4.7,5.6-11.3,10.9-16.9,16.4c-4.3,4-9.3,7.8-14.6,11.7s-11,7.5-16.3,11.2c-2.3,1.6-5,2.9-7.3,4.4
			c-10,6.2-20.9,12.3-32.9,18.1c-0.3,0.7-1.7,0.9-2.7,1.4c-6,2.6-11,5.5-16.9,8.1c-10.3,4.4-20.9,8.6-31.6,12.9
			c-7,2.7-14.6,5.2-21.9,7.9c-0.7,0.1-1.3,0.4-1.7,0.6l-1.3,0.3c-0.3,0.3-1,0.5-1.7,0.6l0,0c-0.7,0.1-1.3,0.3-1.7,0.5
			c-4.3,1.2-8.3,2.5-12,4c-0.7,0.1-1.3,0.4-2,0.5l-15.6,4.2c-1,0.3-2,0.5-2.7,0.8l-7.6,1.7c-0.7,0.3-1.7,0.5-2.7,0.6
			c-1,0-1.7,0.1-2.7,0.4c-3.7,0.8-6.6,2.1-11.3,2.6c-1,0.1-2,0.4-2.7,0.7l-1.3,0.3c-0.7,0.4-2,0.4-2.7,0.6l-15.6,2.5
			c-1.3,0.4-3.3,0.4-4.7,0.8c-6.6,0.3-12,2-18.6,2.3c-5,0.4-9.3,1.8-11,3.6c-0.3,0.3-0.7,0.5-0.7,0.8c-1.3,3.4,3.3,7.9,14,8.3
			c1,0,2,0.3,3.3,0.1l4-0.3c8.6-0.5,16.6-2.1,24.9-2.9c1.7-0.3,3.3-0.5,4.7-0.8l3-0.3c1.3-0.3,2.7-0.4,4-0.8l12.6-2.2
			c1-0.3,2-0.4,2.7-0.6l3-0.6c1-0.3,1.7-0.5,2.7-0.7c1.3-0.4,2.7-0.6,4.3-0.9c1-0.1,1.7-0.5,2.7-0.7c5.3-1.3,11-2.5,16.3-3.8
			c7.3-1.8,14-3.9,20.9-6c0.7-0.1,1.3-0.4,1.7-0.5c3-0.9,6.3-1.9,9.3-2.9s6.6-2.3,10.3-3.2c0.3-0.3,1-0.4,2-0.6
			c4-1.4,7.6-2.9,11.6-4.3c13.3-4.7,25.9-9.6,37.9-14.8c6.3-3,13-6,19.3-9s13-6.4,19.3-9.6c4.3-2.3,9-4.6,13-7
			c8.3-5.2,16.9-10.3,24.6-15.6c6-4,11.3-8.1,16.6-12.2c3-2.5,6.3-4.8,9-7.3c0.7-0.7,1.3-1.4,2.3-1.9c3.3-4.9,9.6-8.8,16.3-13.8
			C3670.5,204.2,3670.5,203.8,3670.5,203.6z"/>
		<path class="st1" d="M3751,277.8c-0.3-0.6-1.3-1.3-0.7-2.1c0-0.3,0-0.5,0-0.8c-0.3-0.6-0.3-1.3,0-2.1c0-0.7-0.3-1.4-0.7-2.1
			c-0.7-0.9-1-1.8-0.7-2.7c0-1-0.3-2.1-1-3c-0.7-1.2-1.3-2.3-2-3.6c-2-3.5-4.7-6.9-6-10.4c-0.7-1.7-1.7-3.4-3-4.9
			c-3-2.9-5.6-5.8-8.6-8.7c-4.7-4.4-9.6-8.6-15.6-12.7c-0.7-0.4-1.3-0.8-1.7-1.2c-0.3-0.3-0.7-0.5-1.3-0.8c-0.7-0.1-1.3-0.5-1.7-0.8
			c-0.7-0.5-1.3-1.2-2.3-1.7c-0.7-0.3-1-0.5-1.3-0.8c-1-0.8-2.3-1.4-4-2.1c-1-0.3-1.7-0.5-2-0.9c-0.3-0.3-0.7-0.4-1-0.7
			c-0.7-0.3-1.3-0.5-1.7-0.9c-3-1.7-6.6-3.4-10.6-4.8c-0.7-0.1-1.3-0.4-1.7-0.6c-0.7-0.5-1.7-0.9-2.7-1.2c-3-1-6.3-2.2-9.3-3.4
			c-0.7-0.3-1-0.5-1.3-0.8c-6.3,5.1-13,8.8-16.3,13.8c1-0.4,2,0.1,5.3,1.7c0.7,0.1,1.3,0.4,1.7,0.6c5.3,2.1,9,4.6,14,6.8
			c0.7,0.1,1.3,0.4,1.3,0.7c1,1.4,4,2.3,5.3,3.6c0.7,0.1,1,0.4,1.3,0.8c0.3,0.9,2.7,1.6,3,2.5c0.7,0.5,1.3,1,2,1.4
			c1.3,0.8,2.3,1.6,2.7,2.5c0.7,0.3,1,0.8,1.7,1c1.3,1.8,4,3.4,5.6,5.1c3.3,3.4,6,6.9,8.3,10.4c2.3,3.4,4,6.8,6,10.3
			c0,1.3,1.3,2.6,1,4l1.3,3c-0.3,0.8,0.7,1.7,0,2.5c0.7,2.1,0,4.2,0.7,6.4c-0.3,0.4-0.3,0.9-0.3,1.3c-0.3,1.7-0.3,3.4-1,5.1
			c-0.7,2.5-1.7,4.8-2.7,7.3c-0.3,0.3-0.7,0.6-0.7,0.9c-0.3,0.9-1,1.7-1.3,2.6c-0.7,2.5-2.7,4.9-5.3,7.3c0,0.3-0.3,0.6-0.7,0.9
			c-0.7,1.3-2,2.6-3.7,3.8c0,0.3-0.3,0.6-0.7,0.9c-0.7,0.5-1.3,0.9-2,1.4c-5,5.1-13,9.4-20.3,13.8c-6.6,4-16,7.1-24.6,10.5
			c-0.3,0.3-1,0.5-1.7,0.7c-0.7,0.1-1.3,0.3-1.7,0.6l-1.3,0.3c-0.7,0.3-1.3,0.4-2,0.7c-4,1.8-8.6,3.2-14,4.5
			c-0.7,0.1-1.3,0.3-1.7,0.5l-1.3,0.3c-0.3,0.3-1,0.5-1.7,0.5c-2.7,0.8-5.3,1.4-8,2.1c-4,1-8,2-12.3,2.7c-0.7,0.1-1,0.4-1.7,0.7
			c-2,0.1-3,0.8-4.7,1.2c-0.3,0.5-1.7,0.5-2.3,0.8c-2.7,0-4,0.9-6.3,1.2c-0.7,0.3-1.7,0.5-2.7,0.6c-2.3,0.1-4,0.8-6.3,1.2
			c-1.3,0.3-2.3,0.5-3.7,0.8l-2.7,0.4c-1,0.3-1.7,0.5-2.7,0.6l-2,0.1c-0.7,0.3-1.7,0.5-2.7,0.6c-5,0.7-9.6,1.6-14,2.5
			c-1,0.3-2.3,0.4-3.7,0.5c-0.7,0.1-1.7,0.3-2,0.4l-1.7,0.3c-1,0.5-2.7,0.4-3.7,0.8c-7,0.6-13.6,1.9-20.6,2.9
			c-1.3,0.5-3.3,0.4-4.7,0.8c-4,0.1-7.3,1.2-11,1.6c-8,0.8-15.3,2.1-23.3,2.9s-16,2.3-24.3,3c-1.7,0.5-4,0.5-6,0.8
			c-2.3,0.1-4.7,0.4-7,0.8c-5.3,0.6-10.6,1-16,1.7c-9.6,1.3-19.6,2.1-29.6,3.2c-13.3,1.4-26.9,2.5-40.2,3.9
			c-10.6,1.3-21.9,1.8-32.9,3c-14.6,1.6-29.9,2.5-44.5,3.9c-16.3,1.6-32.6,2.6-48.9,4.2c-12.6,1.2-25.3,2.1-37.6,3.1
			c-1,0-2.3,0.1-3.3,0.3c-3.3,0.8-4.7,0.4-5.7-1c0-0.5,0-1,0.3-1.7v-1c0.7-0.5-0.3-1.2,0.3-1.7c-0.7-1.3-0.7-2.6-0.7-3.9
			c0-0.5,0-1,0.3-1.6c0-0.5-0.3-1-0.3-1.4c0.3-0.4,0.3-0.9,0.3-1.3c0-2.6-0.3-5.3-0.3-7.9c0-0.5,0.3-1.2,0.3-1.7l0.3-5.3
			c0-0.4,0-0.8,0.3-1.3c0-0.5-0.3-1-0.3-1.4s0.3-0.8,0.3-1.3c0.3-2.5,0.3-4.9,0.7-7.4l0.7-5.2c0-0.4,0.3-0.9,0.3-1.3V351
			c0.3-0.4,0.3-0.9,0.7-1.3c0-1.4,0.3-2.9,0.7-4.2c0.3-0.4,0.7-0.8,0.3-1.2c-0.3-0.3-0.3-0.6,0-0.9c1-1.7,1.3-3.4,0.7-5.1
			c0-0.3,0-0.6,0.7-0.9c0-0.3,0-0.4,0-0.6c0.3-0.4,0.3-0.9,0.7-1.3c0.3-3,2-6,3-9c1-3.2,2.3-6.5,3.3-9.8c0.3-0.3,0.7-0.5,0.7-0.9
			c1.7-3.4,3.3-6.8,5.3-10.3c2-2.6,3.3-5.2,4-7.8c0-0.3,0-0.6,0.7-0.8v-0.6c0.3-0.3,0.7-0.6,0.7-0.9c0.3-0.3,0.7-0.5,0.7-0.8
			c2.7-4,5.6-7.9,9.3-11.7c0-0.3,0.3-0.7,0.7-0.9c2.3-2.2,3-4.6,5.6-6.6c0-0.3,0.3-0.6,0.7-0.9c6.3-6.6,13.6-13.1,21.9-19.4
			c6.6-5.1,14.3-10,22.9-14.7c8.3-4.8,17.6-9.2,27.9-13.3c0.7-0.1,1.3-0.4,1.7-0.6c1-0.4,2-0.8,2.7-1.3c0.7-0.1,1.3-0.4,2-0.7
			c9-3.5,18.9-6.9,29.6-9.8c0.7-0.1,1-0.5,1.7-0.5c2.3-0.5,4.3-1,6.3-1.7c1-0.3,2-0.5,2.7-0.6l1.3-0.3c0.3-0.3,1.3-0.4,1.7-0.7
			l3.7-1c1-0.3,2-0.4,3-0.6l6.3-1.2c0.3-0.3,1-0.5,2-0.5c4.3-0.6,8.3-1.6,12.6-2.3c8.6-1.7,17.6-3.1,26.6-4.4c1.7-0.4,4-0.4,6-0.9
			l10.6-1c8.3-0.9,16.6-1.8,25.3-2.5c2-0.3,4-0.4,6.3-0.3l5.7-0.3c1,0.1,2.3,0,3.3-0.1c1.7-0.1,3.3-0.1,5-0.1c2.7-0.1,5.3-0.4,8-0.4
			c9.6-0.1,18.9-0.5,28.6-0.4c1,0.1,2,0,3.3,0.1h7c1,0,2,0.1,3.3,0.1l3.7-0.1c0.7,0.1,1.3,0.3,2,0.1l19.3,0.5c1,0,2,0.1,3.3,0.1
			c1,0.3,2.3,0.4,3.7,0.3c0.7,0,1.7,0,2.3,0.3l6.6,0.7c0.7,0,1.7,0.1,2.3,0.3l1.7,0.1c0.7,0.3,1.3,0.3,2,0.3
			c1.7-0.1,3.3,0.1,4.7,0.3c0.7,0.1,1.7,0.3,2.3,0.3c4.3,0.9,9.3,1.4,14.3,1.4c8,0,15.6-3.6,15.3-6.8c0.3-1-0.3-2.2-1.7-3.1
			c-2-1.7-5.6-2.9-10-3.4c-2.3-0.3-4.3-0.7-8.3-1c-4.7-0.5-8.3-0.8-9.6-0.9c-11-0.8-25.3-1.7-27.9-1.8c-0.7-0.1-1.7-0.3-2.3-0.3h-1
			c-0.7,0.1-1.7,0-2.3-0.3c-3.7,0-7-0.5-10.6-0.4c-1.3-0.1-2.3,0.4-3.7,0c-11-0.4-21.9-0.7-32.9-0.5c-7.3,0-14.6,0.1-21.9,0.6
			c-1-0.1-2.3-0.1-3.3,0c-1.7,0.1-3.3,0.3-5,0.1c-20.6,0.9-40.9,2.7-60.8,5.2c-1.7,0.3-3,0.5-5,0.6c-1.3,0.1-2.7,0.3-4,0.5l-2.7,0.3
			c-1.3,0.5-3.3,0.4-4.7,0.8l-17,2.7c-0.7,0.3-1.7,0.5-2.7,0.6s-2,0.3-3,0.4c-9.3,1.8-18.6,3.9-27.3,6.1c-0.3,0.3-1,0.5-2,0.5
			l-1,0.1c-0.7,0.1-1.3,0.3-2,0.5c-3.7,0.8-7,1.6-10,2.6c-6,1.6-11.6,3.2-17,5.1c-0.7,0.1-1.3,0.4-2,0.6l-14,5.2
			c-0.7,0.1-1.3,0.4-1.7,0.7c-9,3.5-17.6,7.1-25.6,11c-8,3.8-15,7.8-21.9,11.8c-6,3.8-11.3,7.8-16.6,11.6c-3,2.2-6.3,4.3-9,6.6
			c-4.7,4.3-9,8.6-13.6,12.9c0,0.3-0.3,0.7-0.7,0.9l-6.6,7c0,0.3-0.3,0.6-0.7,0.8c-2.3,3-4.7,6-6.6,9s-4.3,5.9-6,9
			c-0.3,0.3-0.7,0.6-0.7,0.9c-0.7,0.4-1,0.9-0.7,1.4c-0.3,0.3-0.7,0.6-0.7,0.9c-1.3,1.7-2.3,3.4-2.7,5.2c-1,3-3,6-4.3,9
			c0,0.3,0,0.6-0.7,0.9c0,0.1-0.3,0.1-0.3,0.3c0,0.4-0.7,0.8-0.7,1.3c-0.3,2.2-2,4.3-2.3,6.6c0,0.3-0.3,0.6-0.7,0.9l-2,6.4
			c0,0.3,0,0.6-0.7,0.9c-0.7,2.1-1.3,4.3-2,6.4s-1,4-1.7,6c0,0.5,0,0.9,0,1.4c-0.7,2.2-1,4.3-1,6.5c0,0.5,0,1-0.3,1.7
			c-0.7,1.4-1,2.7-1,4.2c-0.3,0.4-0.3,0.9-0.3,1.3s-0.3,0.9-0.3,1.3c0.7,1.2-0.7,2.2-0.3,3.2c0,0.5,0,0.9,0,1.4v0.4
			c0.3,0.3,0,0.6-0.3,0.9l0.3,1.8c0,0.4-0.3,0.8-0.3,1.3v2.7c0,0.5,0,1.2-0.3,1.7c0,0.9,0,1.8,0,2.7c0,0.4,0,0.9-0.3,1.3l0.3,1.4
			c0,0.5,0,1.2-0.3,1.7c0,1.3,0.3,2.6,0.3,3.9c0,2.1,0,4.3,0,6.4c-0.3,0.6,0,1.3,0,2.1c0.3,0.5,0.3,1,0.3,1.6
			c-0.3,3.4-0.3,6.9,0.7,10.3c0,0.5,0,1,0,1.4l3.3,6.2c1.7,1.7,5.6,2.7,10.3,2.9c12.3-0.9,24.6-1.8,36.6-3c16-1.6,32.2-2.6,48.2-4.2
			c14.6-1.4,29.6-2.5,44.2-3.8c27.9-2.6,56.2-4.8,84.1-7.1c2.7-0.1,5.3-0.5,8-0.9c5-0.7,10.3-0.8,15.6-1.6c2.3,0,4.3-0.1,6.3-0.5
			c1.7-0.1,3.7-0.3,5.3-0.4c8-0.4,15.3-2.1,23.3-2.6c10.6-0.6,20.6-2.5,31.2-3.2c5.3-0.4,10.6-1.2,15.3-2.1c2-0.8,4.7-0.6,7.3-0.9
			c7-0.3,13.3-1.8,19.9-2.3c3-0.1,6-0.5,9-1.2c5.3-1.4,12-1.6,17.9-2.7c2-0.4,4.3-0.8,6.3-1c6-0.8,12-1.6,17.9-2.7
			c8-1.6,16.3-2.7,24.3-4.3c1-0.3,2-0.5,3-0.6c5.3-0.8,10.3-1.8,15.3-3c0.7-0.3,1.7-0.5,3-0.6c3.7-0.8,7.3-1.6,11-2.2
			c0.7-0.3,1.7-0.5,3-0.6c1.3-0.3,2.3-0.5,3.3-0.8c0.7-0.3,1.7-0.5,2.7-0.6c4-0.8,7.6-1.7,11.3-2.7c0.3-0.3,1.3-0.5,2-0.6
			c0.3,0,1-0.1,1.3-0.1c0.7-0.1,1.3-0.4,2-0.5c0.3-0.1,0.3-0.1,0.7-0.3c0.7-0.3,1-0.4,2-0.5c8-2.1,16-4.4,22.9-6.9
			c0.3-0.3,1-0.5,1.7-0.6c1-0.3,2.3-0.5,3-0.9c6.3-2.2,12.3-4.5,17.6-7.1c4.3-2.2,9.6-4.3,14-6.5c8.3-4.3,15.3-8.8,20.6-13.8
			c0.3-0.4,1-0.8,1.7-1.3c2.7-2.5,5-4.9,7.3-7.4c0-0.3,0.3-0.6,0.7-0.9c2-2,3.3-4,4.7-6.1c0-0.4,0.3-0.8,0.7-1.2
			c1.7-2.2,2.7-4.4,3.7-6.6c0-0.4,0-0.8,0.3-1.2c0.3-1.7,1.3-3.2,1.3-4.9c0-0.4,0-0.9,0.3-1.3c0-0.4,0-0.8,0-1
			c0-0.3,0.3-0.6,0.3-0.9c0.3-0.8,0.3-1.6,0.7-2.3c-0.3-0.4-0.3-0.9,0.3-1.3c0.3-0.4,0.3-0.8,0-1.2c-0.3-0.4-0.3-0.9,0.3-1.3
			C3749,269.9,3773.2,334.9,3751,277.8z"/>
	</g>
</g>
<g id="Layer_2_2_">
	<path class="st1" d="M3549.6,182.9c40.5,1.7,71.1,7.9,82.1,10.4c8.6,1.9,26.3,6.1,40.9,11.8c40.2,15.7,45.9,37.7,48.9,52.8
		c4,18.9,10.3,48.5-33.9,73.6c-24.6,13.8-67.8,21.6-154.9,36.9c-173.2,30.7-204.7,17.8-308.8,33.9c-8.6,1.3-31.2,4.9-45.2,1
		c-16.9-4.8-12-17.8-9.3-24.6c30.2-80.5,20.3-75,35.6-91.8c22.6-24.7,37.2-40.6,75.8-57.6c57.8-25.5,126.6-35,160.9-39.6
		C3472.5,185.5,3505.7,181.1,3549.6,182.9z"/>
</g>
<g id="Layer_1_3_">
	<g id="Layer_4_2_">
		<path class="st0" d="M493.7,140.9c0.1-0.6,0.3-1.3,0.6-1.9c0.4-0.7,0.7-1.5,0.8-2.4c0-0.3,0.1-0.5,0.2-0.8
			c0.1-0.2,0.1-0.3,0.1-0.5s0.1-0.4,0.3-0.6c0.3-0.5,0.5-1,0.6-1.5c0.4-1.2,0.7-2.4,1-3.6c0.8-3,1.7-5.9,2.3-9
			c0-0.3,0.1-0.6,0.2-0.8c0.1-0.2,0.1-0.4,0.1-0.6s0.1-0.4,0.2-0.7c0.1-0.9,0.5-1.8,0.6-2.7c0-0.3,0.1-0.7,0.2-0.9
			c0.2-0.8,0.3-1.7,0.2-2.6c-0.1-0.3,0-0.5,0.1-0.8c0.1-0.2,0.1-0.3,0.1-0.5c0-0.3,0.1-0.5,0.2-0.8c0.5-2.5,0.8-5,1-7.6
			c-0.1-0.3-0.1-0.7,0.1-1.1c0.1-0.3,0.1-0.6,0-0.8c-0.1-0.3-0.1-0.6,0.1-0.9c0.1-0.5,0.2-0.9,0.2-1.4c0-0.4,0-0.8,0-1.2
			c0-2.1,0.4-4.2,0.2-6.3c-0.1-1,0.4-2.1,0-3.1c0-0.4-0.4-0.9,0-1.3c0.2-1.8,0.1-3.6-0.3-5.4l-0.1-0.7c-0.1-0.3-0.1-0.7,0.1-1
			c0-1.4-0.1-2.8-0.4-4.1c-0.2-0.8-0.3-1.5-0.4-2.3c-1-4.4-1.9-8.9-2.9-13.3c-0.1-0.3-0.2-0.6-0.4-0.9c-0.5-1.1-1.5-1.3-2.5-1.6
			c-1.5,0.2-3,0.5-4.5,0.9c-0.1,0.2-0.3,0.4-0.6,0.5c-0.3,0.6-1,0.9-1.1,1.6c-0.1,0.2-0.2,0.4-0.2,0.7c-0.1,0.5-0.2,1-0.1,1.5
			c-0.1,0.4,0,0.9,0.1,1.3c0.3,1.5,0.6,3,0.8,4.6c0.1,1.4,0.7,2.7,0.8,4c0.1,1.4,0.3,2.8,0.6,4.2c-0.1,0.5,0.2,1.1,0,1.6
			c0,0.4,0.1,0.7,0.1,1.1c-0.1,0.6,0.2,1.2,0.1,1.9c0.2,1.1,0.3,2.3,0.2,3.4s0.4,2.2,0.3,3.3c-0.2,2.1-0.1,4.2-0.1,6.3
			c0,0.3,0,0.7-0.1,1l-0.2,3.6c0.1,0.2,0,0.4-0.1,0.7c0.1,1.6,0,3.2-0.2,4.8c-0.1,0.3-0.1,0.7-0.1,1l-0.2,1.5
			c-0.1,0.2-0.2,0.4-0.2,0.7c-0.2,2.3-0.8,4.6-1.1,6.9c0,0.2-0.1,0.4-0.2,0.6c-0.1,1.2-0.3,2.4-0.5,3.6c-0.1,0.2-0.2,0.4-0.2,0.7
			l-0.5,2c-0.1,0.2-0.2,0.4-0.2,0.7l-1.9,6.6c0,0.2-0.1,0.5-0.2,0.7c-0.8,2.8-1.7,5.5-2.6,8.2c-1.4,4.3-3.4,8.4-5.1,12.6
			c-1.3,3.1-2.8,6-4.4,9s-3.3,5.8-4.9,8.6c-0.7,1.2-1.5,2.2-2.2,3.4c-3,4.8-6.3,9.5-9.9,13.9c-0.1,0.5-0.5,0.7-0.8,1.1
			c-1.8,2-3.3,4.2-5.1,6.2c-3.1,3.4-6.3,6.6-9.5,9.9c-2.1,2.1-4.4,4-6.6,6.1c-0.2,0.1-0.4,0.3-0.5,0.5l-0.4,0.2
			c-0.1,0.2-0.3,0.4-0.5,0.5l0,0c-0.2,0.1-0.4,0.2-0.5,0.4c-1.3,0.9-2.5,1.9-3.6,3.1c-0.2,0.1-0.4,0.3-0.6,0.4l-4.7,3.2
			c-0.3,0.2-0.6,0.4-0.8,0.6l-2.3,1.3c-0.2,0.2-0.5,0.4-0.8,0.5c-0.3,0-0.5,0.1-0.8,0.3c-1.1,0.6-2,1.6-3.4,2
			c-0.3,0.1-0.6,0.3-0.8,0.5l-0.4,0.2c-0.2,0.3-0.6,0.3-0.8,0.5l-4.7,1.9c-0.4,0.3-1,0.3-1.4,0.6c-2,0.2-3.6,1.5-5.6,1.8
			c-1.5,0.3-2.8,1.4-3.3,2.8c-0.1,0.2-0.2,0.4-0.2,0.6c-0.4,2.6,1,6.1,4.2,6.4c0.3,0,0.6,0.2,1,0.1l1.2-0.2c2.6-0.4,5-1.6,7.5-2.2
			c0.5-0.2,1-0.4,1.4-0.6l0.9-0.2c0.4-0.2,0.8-0.3,1.2-0.6l3.8-1.7c0.3-0.2,0.6-0.3,0.8-0.5l0.9-0.5c0.3-0.2,0.5-0.4,0.8-0.5
			c0.4-0.3,0.8-0.5,1.3-0.7c0.3-0.1,0.5-0.4,0.8-0.5c1.6-1,3.3-1.9,4.9-2.9c2.2-1.4,4.2-3,6.3-4.6c0.2-0.1,0.4-0.3,0.5-0.4
			c0.9-0.7,1.9-1.5,2.8-2.2s2-1.8,3.1-2.5c0.1-0.2,0.3-0.3,0.6-0.5c1.2-1.1,2.3-2.2,3.5-3.3c4-3.6,7.8-7.4,11.4-11.4
			c1.9-2.3,3.9-4.6,5.8-6.9c1.9-2.3,3.9-4.9,5.8-7.4c1.3-1.8,2.7-3.5,3.9-5.4c2.5-4,5.1-7.9,7.4-12c1.8-3.1,3.4-6.2,5-9.4
			c0.9-1.9,1.9-3.7,2.7-5.6c0.2-0.5,0.4-1.1,0.7-1.5c1-3.8,2.9-6.8,4.9-10.6C493.7,141.4,493.7,141.1,493.7,140.9z"/>
		<path class="st0" d="M517.9,198c-0.1-0.5-0.4-1-0.2-1.6c0-0.2,0-0.4,0-0.6c-0.1-0.5-0.1-1,0-1.6c0-0.5-0.1-1.1-0.2-1.6
			c-0.2-0.7-0.3-1.4-0.2-2.1c0-0.8-0.1-1.6-0.3-2.3c-0.2-0.9-0.4-1.8-0.6-2.8c-0.6-2.7-1.4-5.3-1.8-8c-0.2-1.3-0.5-2.6-0.9-3.8
			c-0.9-2.2-1.7-4.5-2.6-6.7c-1.4-3.4-2.9-6.6-4.7-9.8c-0.2-0.3-0.4-0.6-0.5-0.9c-0.1-0.2-0.2-0.4-0.4-0.6c-0.2-0.1-0.4-0.4-0.5-0.6
			c-0.2-0.4-0.4-0.9-0.7-1.3c-0.2-0.2-0.3-0.4-0.4-0.6c-0.3-0.6-0.7-1.1-1.2-1.6c-0.3-0.2-0.5-0.4-0.6-0.7c-0.1-0.2-0.2-0.3-0.3-0.5
			c-0.2-0.2-0.4-0.4-0.5-0.7c-0.9-1.3-2-2.6-3.2-3.7c-0.2-0.1-0.4-0.3-0.5-0.5c-0.2-0.4-0.5-0.7-0.8-0.9c-0.9-0.8-1.9-1.7-2.8-2.6
			c-0.2-0.2-0.3-0.4-0.4-0.6c-1.9,3.9-3.9,6.8-4.9,10.6c0.3-0.3,0.6,0.1,1.6,1.3c0.2,0.1,0.4,0.3,0.5,0.5c1.6,1.6,2.7,3.5,4.2,5.2
			c0.2,0.1,0.4,0.3,0.4,0.5c0.3,1.1,1.2,1.8,1.6,2.8c0.2,0.1,0.3,0.3,0.4,0.6c0.1,0.7,0.8,1.2,0.9,1.9c0.2,0.4,0.4,0.8,0.6,1.1
			c0.4,0.6,0.7,1.2,0.8,1.9c0.2,0.2,0.3,0.6,0.5,0.8c0.4,1.4,1.2,2.6,1.7,3.9c1,2.6,1.8,5.3,2.5,8c0.7,2.6,1.2,5.2,1.8,7.9
			c0,1,0.4,2,0.3,3.1l0.4,2.3c-0.1,0.6,0.2,1.3,0,1.9c0.2,1.6,0,3.2,0.2,4.9c-0.1,0.3-0.1,0.7-0.1,1c-0.1,1.3-0.1,2.6-0.3,3.9
			c-0.2,1.9-0.5,3.7-0.8,5.6c-0.1,0.2-0.2,0.5-0.2,0.7c-0.1,0.7-0.3,1.3-0.4,2c-0.2,1.9-0.8,3.8-1.6,5.6c0,0.2-0.1,0.5-0.2,0.7
			c-0.2,1-0.6,2-1.1,2.9c0,0.2-0.1,0.5-0.2,0.7c-0.2,0.4-0.4,0.7-0.6,1.1c-1.5,3.9-3.9,7.2-6.1,10.6c-2,3.1-4.8,5.5-7.4,8.1
			c-0.1,0.2-0.3,0.4-0.5,0.5s-0.4,0.2-0.5,0.5l-0.4,0.2c-0.2,0.2-0.4,0.3-0.6,0.5c-1.2,1.4-2.6,2.5-4.2,3.5
			c-0.2,0.1-0.4,0.2-0.5,0.4l-0.4,0.2c-0.1,0.2-0.3,0.4-0.5,0.4c-0.8,0.6-1.6,1.1-2.4,1.6c-1.2,0.8-2.4,1.5-3.7,2.1
			c-0.2,0.1-0.3,0.3-0.5,0.5c-0.6,0.1-0.9,0.6-1.4,0.9c-0.1,0.4-0.5,0.4-0.7,0.6c-0.8,0-1.2,0.7-1.9,0.9c-0.2,0.2-0.5,0.4-0.8,0.5
			c-0.7,0.1-1.2,0.6-1.9,0.9c-0.4,0.2-0.7,0.4-1.1,0.6l-0.8,0.3c-0.3,0.2-0.5,0.4-0.8,0.5l-0.6,0.1c-0.2,0.2-0.5,0.4-0.8,0.5
			c-1.5,0.5-2.9,1.2-4.2,1.9c-0.3,0.2-0.7,0.3-1.1,0.4c-0.2,0.1-0.5,0.2-0.6,0.3l-0.5,0.2c-0.3,0.4-0.8,0.3-1.1,0.6
			c-2.1,0.5-4.1,1.5-6.2,2.2c-0.4,0.4-1,0.3-1.4,0.6c-1.2,0.1-2.2,0.9-3.3,1.2c-2.4,0.6-4.6,1.6-7,2.2s-4.8,1.8-7.3,2.3
			c-0.5,0.4-1.2,0.4-1.8,0.6c-0.7,0.1-1.4,0.3-2.1,0.6c-1.6,0.5-3.2,0.8-4.8,1.3c-2.9,1-5.9,1.6-8.9,2.5c-4,1.1-8.1,1.9-12.1,3
			c-3.2,1-6.6,1.4-9.9,2.3c-4.4,1.2-9,1.9-13.4,3c-4.9,1.2-9.8,2-14.7,3.2c-3.8,0.9-7.6,1.6-11.3,2.4c-0.3,0-0.7,0.1-1,0.2
			c-1,0.6-1.4,0.3-1.7-0.8c0-0.4,0-0.8,0.1-1.3v-0.8c0.2-0.4-0.1-0.9,0.1-1.3c-0.2-1-0.2-2-0.2-3c0-0.4,0-0.8,0.1-1.2
			c0-0.4-0.1-0.8-0.1-1.1c0.1-0.3,0.1-0.7,0.1-1c0-2-0.1-4.1-0.1-6.1c0-0.4,0.1-0.9,0.1-1.3l0.1-4.1c0-0.3,0-0.6,0.1-1
			c0-0.4-0.1-0.8-0.1-1.1s0.1-0.6,0.1-1c0.1-1.9,0.1-3.8,0.2-5.7l0.2-4c0-0.3,0.1-0.7,0.1-1v-0.5c0.1-0.3,0.1-0.7,0.2-1
			c0-1.1,0.1-2.2,0.2-3.2c0.1-0.3,0.2-0.6,0.1-0.9c-0.1-0.2-0.1-0.5,0-0.7c0.3-1.3,0.4-2.6,0.2-3.9c0-0.2,0-0.5,0.2-0.7
			c0-0.2,0-0.3,0-0.5c0.1-0.3,0.1-0.7,0.2-1c0.1-2.3,0.6-4.6,0.9-6.9c0.3-2.5,0.7-5,1-7.5c0.1-0.2,0.2-0.4,0.2-0.7
			c0.5-2.6,1-5.2,1.6-7.9c0.6-2,1-4,1.2-6c0-0.2,0-0.5,0.2-0.6v-0.5c0.1-0.2,0.2-0.5,0.2-0.7c0.1-0.2,0.2-0.4,0.2-0.6
			c0.8-3.1,1.7-6.1,2.8-9c0-0.2,0.1-0.5,0.2-0.7c0.7-1.7,0.9-3.5,1.7-5.1c0-0.2,0.1-0.5,0.2-0.7c1.9-5.1,4.1-10.1,6.6-14.9
			c2-3.9,4.3-7.7,6.9-11.3c2.5-3.7,5.3-7.1,8.4-10.2c0.2-0.1,0.4-0.3,0.5-0.5c0.3-0.3,0.6-0.6,0.8-1c0.2-0.1,0.4-0.3,0.6-0.5
			c2.7-2.7,5.7-5.3,8.9-7.5c0.2-0.1,0.3-0.4,0.5-0.4c0.7-0.4,1.3-0.8,1.9-1.3c0.3-0.2,0.6-0.4,0.8-0.5l0.4-0.2
			c0.1-0.2,0.4-0.3,0.5-0.5l1.1-0.8c0.3-0.2,0.6-0.3,0.9-0.5l1.9-0.9c0.1-0.2,0.3-0.4,0.6-0.4c1.3-0.5,2.5-1.2,3.8-1.8
			c2.6-1.3,5.3-2.4,8-3.4c0.5-0.3,1.2-0.3,1.8-0.7l3.2-0.8c2.5-0.7,5-1.4,7.6-1.9c0.6-0.2,1.2-0.3,1.9-0.2l1.7-0.2
			c0.3,0.1,0.7,0,1-0.1c0.5-0.1,1-0.1,1.5-0.1c0.8-0.1,1.6-0.3,2.4-0.3c2.9-0.1,5.7-0.4,8.6-0.3c0.3,0.1,0.6,0,1,0.1h2.1
			c0.3,0,0.6,0.1,1,0.1l1.1-0.1c0.2,0.1,0.4,0.2,0.6,0.1l5.8,0.4c0.3,0,0.6,0.1,1,0.1c0.3,0.2,0.7,0.3,1.1,0.2c0.2,0,0.5,0,0.7,0.2
			l2,0.5c0.2,0,0.5,0.1,0.7,0.2l0.5,0.1c0.2,0.2,0.4,0.2,0.6,0.2c0.5-0.1,1,0.1,1.4,0.2c0.2,0.1,0.5,0.2,0.7,0.2
			c1.3,0.7,2.8,1.1,4.3,1.1c2.4,0,4.7-2.8,4.6-5.2c0.1-0.8-0.1-1.7-0.5-2.4c-0.6-1.3-1.7-2.2-3-2.6c-0.7-0.2-1.3-0.5-2.5-0.8
			c-1.4-0.4-2.5-0.6-2.9-0.7c-3.3-0.6-7.6-1.3-8.4-1.4c-0.2-0.1-0.5-0.2-0.7-0.2h-0.3c-0.2,0.1-0.5,0-0.7-0.2
			c-1.1,0-2.1-0.4-3.2-0.3c-0.4-0.1-0.7,0.3-1.1,0c-3.3-0.3-6.6-0.5-9.9-0.4c-2.2,0-4.4,0.1-6.6,0.5c-0.3-0.1-0.7-0.1-1,0
			c-0.5,0.1-1,0.2-1.5,0.1c-6.2,0.7-12.3,2.1-18.3,4c-0.5,0.2-0.9,0.4-1.5,0.5c-0.4,0.1-0.8,0.2-1.2,0.4l-0.8,0.2
			c-0.4,0.4-1,0.3-1.4,0.6l-5.1,2.1c-0.2,0.2-0.6,0.5-1,0.6c-0.2,0.1-0.5,0.2-0.7,0.3c-2.8,1.4-5.6,3-8.2,4.7
			c-0.1,0.2-0.3,0.4-0.6,0.4l-0.3,0.1c-0.2,0.1-0.4,0.2-0.6,0.4c-1.1,0.6-2.1,1.2-3,2c-1.8,1.2-3.5,2.5-5.1,3.9
			c-0.2,0.1-0.4,0.3-0.6,0.5l-4.2,4c-0.2,0.1-0.4,0.3-0.5,0.5c-2.7,2.7-5.3,5.5-7.7,8.5c-2.4,2.9-4.5,6-6.6,9.1
			c-1.8,2.9-3.4,6-5,8.9c-0.9,1.7-1.9,3.3-2.7,5.1c-1.4,3.3-2.7,6.6-4.1,9.9c0,0.2-0.1,0.5-0.2,0.7l-2,5.4c0,0.2-0.1,0.5-0.2,0.6
			c-0.7,2.3-1.4,4.6-2,6.9c-0.6,2.3-1.3,4.5-1.8,6.9c-0.1,0.2-0.2,0.5-0.2,0.7c-0.2,0.3-0.3,0.7-0.2,1.1c-0.1,0.2-0.2,0.5-0.2,0.7
			c-0.4,1.3-0.7,2.6-0.8,4c-0.3,2.3-0.9,4.6-1.3,6.9c0,0.2,0,0.5-0.2,0.7c0,0.1-0.1,0.1-0.1,0.2c0,0.3-0.2,0.6-0.2,1
			c-0.1,1.7-0.6,3.3-0.7,5.1c0,0.2-0.1,0.5-0.2,0.7l-0.6,4.9c0,0.2,0,0.5-0.2,0.7c-0.2,1.6-0.4,3.3-0.6,4.9
			c-0.2,1.6-0.3,3.1-0.5,4.6v1.1c-0.2,1.7-0.3,3.3-0.3,5c0,0.4,0,0.8-0.1,1.3c-0.2,1.1-0.3,2.1-0.3,3.2c-0.1,0.3-0.1,0.7-0.1,1
			s-0.1,0.7-0.1,1c0.2,0.9-0.2,1.7-0.1,2.5c0,0.4,0,0.7,0,1.1v0.3c0.1,0.2,0,0.5-0.1,0.7l0.1,1.4c0,0.3-0.1,0.6-0.1,1v2.1
			c0,0.4,0,0.9-0.1,1.3c0,0.7,0,1.4,0,2.1c0,0.3,0,0.7-0.1,1l0.1,1.1c0,0.4,0,0.9-0.1,1.3c0,1,0.1,2,0.1,3c0,1.6,0,3.3,0,4.9
			c-0.1,0.5,0,1,0,1.6c0.1,0.4,0.1,0.8,0.1,1.2c-0.1,2.6-0.1,5.3,0.2,7.9v1.1l1,4.8c0.5,1.3,1.7,2.1,3.1,2.2c3.7-0.7,7.4-1.4,11-2.3
			c4.8-1.2,9.7-2,14.5-3.2c4.4-1.1,8.9-1.9,13.3-2.9c8.4-2,16.9-3.7,25.3-5.5c0.8-0.1,1.6-0.4,2.4-0.7c1.5-0.5,3.1-0.6,4.7-1.2
			c0.7,0,1.3-0.1,1.9-0.4c0.5-0.1,1.1-0.2,1.6-0.3c2.4-0.3,4.6-1.6,7-2c3.2-0.5,6.2-1.9,9.4-2.5c1.6-0.3,3.2-0.9,4.6-1.6
			c0.6-0.6,1.4-0.5,2.2-0.7c2.1-0.2,4-1.4,6-1.8c0.9-0.1,1.8-0.4,2.7-0.9c1.6-1.1,3.6-1.2,5.4-2.1c0.6-0.3,1.3-0.6,1.9-0.8
			c1.8-0.6,3.6-1.2,5.4-2.1c2.4-1.2,4.9-2.1,7.3-3.3c0.3-0.2,0.6-0.4,0.9-0.5c1.6-0.6,3.1-1.4,4.6-2.3c0.2-0.2,0.5-0.4,0.9-0.5
			c1.1-0.6,2.2-1.2,3.3-1.7c0.2-0.2,0.5-0.4,0.9-0.5c0.4-0.2,0.7-0.4,1-0.6c0.2-0.2,0.5-0.4,0.8-0.5c1.2-0.6,2.3-1.3,3.4-2.1
			c0.1-0.2,0.4-0.4,0.6-0.5c0.1,0,0.3-0.1,0.4-0.1c0.2-0.1,0.4-0.3,0.6-0.4c0.1-0.1,0.1-0.1,0.2-0.2c0.2-0.2,0.3-0.3,0.6-0.4
			c2.4-1.6,4.8-3.4,6.9-5.3c0.1-0.2,0.3-0.4,0.5-0.5c0.3-0.2,0.7-0.4,0.9-0.7c1.9-1.7,3.7-3.5,5.3-5.5c1.3-1.7,2.9-3.3,4.2-5
			c2.5-3.3,4.6-6.8,6.2-10.6c0.1-0.3,0.3-0.6,0.5-1c0.8-1.9,1.5-3.8,2.2-5.7c0-0.2,0.1-0.5,0.2-0.7c0.6-1.5,1-3.1,1.4-4.7
			c0-0.3,0.1-0.6,0.2-0.9c0.5-1.7,0.8-3.4,1.1-5.1c0-0.3,0-0.6,0.1-0.9c0.1-1.3,0.4-2.5,0.4-3.8c0-0.3,0-0.7,0.1-1
			c0-0.3,0-0.6,0-0.8s0.1-0.5,0.1-0.7c0.1-0.6,0.1-1.2,0.2-1.8c-0.1-0.3-0.1-0.7,0.1-1c0.1-0.3,0.1-0.6,0-0.9
			c-0.1-0.3-0.1-0.7,0.1-1C517.3,191.9,524.6,241.9,517.9,198z"/>
	</g>
</g>
<g id="Layer_1_4_">
	<g id="Layer_4_3_">
		<path class="st0" d="M755.9,140.9c0.1-0.6,0.3-1.3,0.6-1.9c0.4-0.7,0.7-1.5,0.8-2.4c0-0.3,0.1-0.5,0.2-0.8
			c0.1-0.2,0.1-0.3,0.1-0.5s0.1-0.4,0.3-0.6c0.3-0.5,0.5-1,0.6-1.5c0.4-1.2,0.7-2.4,1-3.6c0.8-3,1.7-5.9,2.3-9
			c0-0.3,0.1-0.6,0.2-0.8c0.1-0.2,0.1-0.4,0.1-0.6s0.1-0.4,0.2-0.7c0.1-0.9,0.5-1.8,0.6-2.7c0-0.3,0.1-0.7,0.2-0.9
			c0.2-0.8,0.3-1.7,0.2-2.6c-0.1-0.3,0-0.5,0.1-0.8c0.1-0.2,0.1-0.3,0.1-0.5c0-0.3,0.1-0.5,0.2-0.8c0.5-2.5,0.8-5,1-7.6
			c-0.1-0.3-0.1-0.7,0.1-1.1c0.1-0.3,0.1-0.6,0-0.8c-0.1-0.3-0.1-0.6,0.1-0.9c0.1-0.5,0.2-0.9,0.2-1.4c0-0.4,0-0.8,0-1.2
			c0-2.1,0.4-4.2,0.2-6.3c-0.1-1,0.4-2.1,0-3.1c0-0.4-0.4-0.9,0-1.3c0.2-1.8,0.1-3.6-0.3-5.4l-0.1-0.7c-0.1-0.3-0.1-0.7,0.1-1
			c0-1.4-0.1-2.8-0.4-4.1c-0.2-0.8-0.3-1.5-0.4-2.3c-1-4.4-1.9-8.9-2.9-13.3c-0.1-0.3-0.2-0.6-0.4-0.9c-0.5-1.1-1.5-1.3-2.5-1.6
			c-1.5,0.2-3,0.5-4.5,0.9c-0.1,0.2-0.3,0.4-0.6,0.5c-0.3,0.6-1,0.9-1.1,1.6c-0.1,0.2-0.2,0.4-0.2,0.7c-0.1,0.5-0.2,1-0.1,1.5
			c-0.1,0.4,0,0.9,0.1,1.3c0.3,1.5,0.6,3,0.8,4.6c0.1,1.4,0.7,2.7,0.8,4c0.1,1.4,0.3,2.8,0.6,4.2c-0.1,0.5,0.2,1.1,0,1.6
			c0,0.4,0.1,0.7,0.1,1.1c-0.1,0.6,0.2,1.2,0.1,1.9c0.2,1.1,0.3,2.3,0.2,3.4s0.4,2.2,0.3,3.3c-0.2,2.1-0.1,4.2-0.1,6.3
			c0,0.3,0,0.7-0.1,1l-0.2,3.6c0.1,0.2,0,0.4-0.1,0.7c0.1,1.6,0,3.2-0.2,4.8c-0.1,0.3-0.1,0.7-0.1,1l-0.2,1.5
			c-0.1,0.2-0.2,0.4-0.2,0.7c-0.2,2.3-0.8,4.6-1.1,6.9c0,0.2-0.1,0.4-0.2,0.6c-0.1,1.2-0.3,2.4-0.5,3.6c-0.1,0.2-0.2,0.4-0.2,0.7
			l-0.5,2c-0.1,0.2-0.2,0.4-0.2,0.7l-1.9,6.6c0,0.2-0.1,0.5-0.2,0.7c-0.8,2.8-1.7,5.5-2.6,8.2c-1.4,4.3-3.4,8.4-5.1,12.6
			c-1.3,3.1-2.8,6-4.4,9c-1.6,3-3.3,5.8-4.9,8.6c-0.7,1.2-1.5,2.2-2.2,3.4c-3,4.8-6.3,9.5-9.9,13.9c-0.1,0.5-0.5,0.7-0.8,1.1
			c-1.8,2-3.3,4.2-5.1,6.2c-3.1,3.4-6.3,6.6-9.5,9.9c-2.1,2.1-4.4,4-6.6,6.1c-0.2,0.1-0.4,0.3-0.5,0.5l-0.4,0.2
			c-0.1,0.2-0.3,0.4-0.5,0.5l0,0c-0.2,0.1-0.4,0.2-0.5,0.4c-1.3,0.9-2.5,1.9-3.6,3.1c-0.2,0.1-0.4,0.3-0.6,0.4l-4.7,3.2
			c-0.3,0.2-0.6,0.4-0.8,0.6l-2.3,1.3c-0.2,0.2-0.5,0.4-0.8,0.5c-0.3,0-0.5,0.1-0.8,0.3c-1.1,0.6-2,1.6-3.4,2
			c-0.3,0.1-0.6,0.3-0.8,0.5l-0.4,0.2c-0.2,0.3-0.6,0.3-0.8,0.5l-4.7,1.9c-0.4,0.3-1,0.3-1.4,0.6c-2,0.2-3.6,1.5-5.6,1.8
			c-1.5,0.3-2.8,1.4-3.3,2.8c-0.1,0.2-0.2,0.4-0.2,0.6c-0.4,2.6,1,6.1,4.2,6.4c0.3,0,0.6,0.2,1,0.1l1.2-0.2c2.6-0.4,5-1.6,7.5-2.2
			c0.5-0.2,1-0.4,1.4-0.6l0.9-0.2c0.4-0.2,0.8-0.3,1.2-0.6l3.8-1.7c0.3-0.2,0.6-0.3,0.8-0.5l0.9-0.5c0.3-0.2,0.5-0.4,0.8-0.5
			c0.4-0.3,0.8-0.5,1.3-0.7c0.3-0.1,0.5-0.4,0.8-0.5c1.6-1,3.3-1.9,4.9-2.9c2.2-1.4,4.2-3,6.3-4.6c0.2-0.1,0.4-0.3,0.5-0.4
			c0.9-0.7,1.9-1.5,2.8-2.2s2-1.8,3.1-2.5c0.1-0.2,0.3-0.3,0.6-0.5c1.2-1.1,2.3-2.2,3.5-3.3c4-3.6,7.8-7.4,11.4-11.4
			c1.9-2.3,3.9-4.6,5.8-6.9s3.9-4.9,5.8-7.4c1.3-1.8,2.7-3.5,3.9-5.4c2.5-4,5.1-7.9,7.4-12c1.8-3.1,3.4-6.2,5-9.4
			c0.9-1.9,1.9-3.7,2.7-5.6c0.2-0.5,0.4-1.1,0.7-1.5c1-3.8,2.9-6.8,4.9-10.6C755.9,141.4,755.9,141.1,755.9,140.9z"/>
		<path class="st0" d="M780.1,198c-0.1-0.5-0.4-1-0.2-1.6c0-0.2,0-0.4,0-0.6c-0.1-0.5-0.1-1,0-1.6c0-0.5-0.1-1.1-0.2-1.6
			c-0.2-0.7-0.3-1.4-0.2-2.1c0-0.8-0.1-1.6-0.3-2.3c-0.2-0.9-0.4-1.8-0.6-2.8c-0.6-2.7-1.4-5.3-1.8-8c-0.2-1.3-0.5-2.6-0.9-3.8
			c-0.9-2.2-1.7-4.5-2.6-6.7c-1.4-3.4-2.9-6.6-4.7-9.8c-0.2-0.3-0.4-0.6-0.5-0.9c-0.1-0.2-0.2-0.4-0.4-0.6c-0.2-0.1-0.4-0.4-0.5-0.6
			c-0.2-0.4-0.4-0.9-0.7-1.3c-0.2-0.2-0.3-0.4-0.4-0.6c-0.3-0.6-0.7-1.1-1.2-1.6c-0.3-0.2-0.5-0.4-0.6-0.7c-0.1-0.2-0.2-0.3-0.3-0.5
			c-0.2-0.2-0.4-0.4-0.5-0.7c-0.9-1.3-2-2.6-3.2-3.7c-0.2-0.1-0.4-0.3-0.5-0.5c-0.2-0.4-0.5-0.7-0.8-0.9c-0.9-0.8-1.9-1.7-2.8-2.6
			c-0.2-0.2-0.3-0.4-0.4-0.6c-1.9,3.9-3.9,6.8-4.9,10.6c0.3-0.3,0.6,0.1,1.6,1.3c0.2,0.1,0.4,0.3,0.5,0.5c1.6,1.6,2.7,3.5,4.2,5.2
			c0.2,0.1,0.4,0.3,0.4,0.5c0.3,1.1,1.2,1.8,1.6,2.8c0.2,0.1,0.3,0.3,0.4,0.6c0.1,0.7,0.8,1.2,0.9,1.9c0.2,0.4,0.4,0.8,0.6,1.1
			c0.4,0.6,0.7,1.2,0.8,1.9c0.2,0.2,0.3,0.6,0.5,0.8c0.4,1.4,1.2,2.6,1.7,3.9c1,2.6,1.8,5.3,2.5,8c0.7,2.6,1.2,5.2,1.8,7.9
			c0,1,0.4,2,0.3,3.1l0.4,2.3c-0.1,0.6,0.2,1.3,0,1.9c0.2,1.6,0,3.2,0.2,4.9c-0.1,0.3-0.1,0.7-0.1,1c-0.1,1.3-0.1,2.6-0.3,3.9
			c-0.2,1.9-0.5,3.7-0.8,5.6c-0.1,0.2-0.2,0.5-0.2,0.7c-0.1,0.7-0.3,1.3-0.4,2c-0.2,1.9-0.8,3.8-1.6,5.6c0,0.2-0.1,0.5-0.2,0.7
			c-0.2,1-0.6,2-1.1,2.9c0,0.2-0.1,0.5-0.2,0.7c-0.2,0.4-0.4,0.7-0.6,1.1c-1.5,3.9-3.9,7.2-6.1,10.6c-2,3.1-4.8,5.5-7.4,8.1
			c-0.1,0.2-0.3,0.4-0.5,0.5s-0.4,0.2-0.5,0.5l-0.4,0.2c-0.2,0.2-0.4,0.3-0.6,0.5c-1.2,1.4-2.6,2.5-4.2,3.5
			c-0.2,0.1-0.4,0.2-0.5,0.4l-0.4,0.2c-0.1,0.2-0.3,0.4-0.5,0.4c-0.8,0.6-1.6,1.1-2.4,1.6c-1.2,0.8-2.4,1.5-3.7,2.1
			c-0.2,0.1-0.3,0.3-0.5,0.5c-0.6,0.1-0.9,0.6-1.4,0.9c-0.1,0.4-0.5,0.4-0.7,0.6c-0.8,0-1.2,0.7-1.9,0.9c-0.2,0.2-0.5,0.4-0.8,0.5
			c-0.7,0.1-1.2,0.6-1.9,0.9c-0.4,0.2-0.7,0.4-1.1,0.6l-0.8,0.3c-0.3,0.2-0.5,0.4-0.8,0.5l-0.6,0.1c-0.2,0.2-0.5,0.4-0.8,0.5
			c-1.5,0.5-2.9,1.2-4.2,1.9c-0.3,0.2-0.7,0.3-1.1,0.4c-0.2,0.1-0.5,0.2-0.6,0.3l-0.5,0.2c-0.3,0.4-0.8,0.3-1.1,0.6
			c-2.1,0.5-4.1,1.5-6.2,2.2c-0.4,0.4-1,0.3-1.4,0.6c-1.2,0.1-2.2,0.9-3.3,1.2c-2.4,0.6-4.6,1.6-7,2.2s-4.8,1.8-7.3,2.3
			c-0.5,0.4-1.2,0.4-1.8,0.6c-0.7,0.1-1.4,0.3-2.1,0.6c-1.6,0.5-3.2,0.8-4.8,1.3c-2.9,1-5.9,1.6-8.9,2.5c-4,1.1-8.1,1.9-12.1,3
			c-3.2,1-6.6,1.4-9.9,2.3c-4.4,1.2-9,1.9-13.4,3c-4.9,1.2-9.8,2-14.7,3.2c-3.8,0.9-7.6,1.6-11.3,2.4c-0.3,0-0.7,0.1-1,0.2
			c-1,0.6-1.4,0.3-1.7-0.8c0-0.4,0-0.8,0.1-1.3v-0.8c0.2-0.4-0.1-0.9,0.1-1.3c-0.2-1-0.2-2-0.2-3c0-0.4,0-0.8,0.1-1.2
			c0-0.4-0.1-0.8-0.1-1.1c0.1-0.3,0.1-0.7,0.1-1c0-2-0.1-4.1-0.1-6.1c0-0.4,0.1-0.9,0.1-1.3l0.1-4.1c0-0.3,0-0.6,0.1-1
			c0-0.4-0.1-0.8-0.1-1.1s0.1-0.6,0.1-1c0.1-1.9,0.1-3.8,0.2-5.7l0.2-4c0-0.3,0.1-0.7,0.1-1v-0.5c0.1-0.3,0.1-0.7,0.2-1
			c0-1.1,0.1-2.2,0.2-3.2c0.1-0.3,0.2-0.6,0.1-0.9c-0.1-0.2-0.1-0.5,0-0.7c0.3-1.3,0.4-2.6,0.2-3.9c0-0.2,0-0.5,0.2-0.7
			c0-0.2,0-0.3,0-0.5c0.1-0.3,0.1-0.7,0.2-1c0.1-2.3,0.6-4.6,0.9-6.9c0.3-2.5,0.7-5,1-7.5c0.1-0.2,0.2-0.4,0.2-0.7
			c0.5-2.6,1-5.2,1.6-7.9c0.6-2,1-4,1.2-6c0-0.2,0-0.5,0.2-0.6v-0.5c0.1-0.2,0.2-0.5,0.2-0.7c0.1-0.2,0.2-0.4,0.2-0.6
			c0.8-3.1,1.7-6.1,2.8-9c0-0.2,0.1-0.5,0.2-0.7c0.7-1.7,0.9-3.5,1.7-5.1c0-0.2,0.1-0.5,0.2-0.7c1.9-5.1,4.1-10.1,6.6-14.9
			c2-3.9,4.3-7.7,6.9-11.3c2.5-3.7,5.3-7.1,8.4-10.2c0.2-0.1,0.4-0.3,0.5-0.5c0.3-0.3,0.6-0.6,0.8-1c0.2-0.1,0.4-0.3,0.6-0.5
			c2.7-2.7,5.7-5.3,8.9-7.5c0.2-0.1,0.3-0.4,0.5-0.4c0.7-0.4,1.3-0.8,1.9-1.3c0.3-0.2,0.6-0.4,0.8-0.5l0.4-0.2
			c0.1-0.2,0.4-0.3,0.5-0.5l1.1-0.8c0.3-0.2,0.6-0.3,0.9-0.5l1.9-0.9c0.1-0.2,0.3-0.4,0.6-0.4c1.3-0.5,2.5-1.2,3.8-1.8
			c2.6-1.3,5.3-2.4,8-3.4c0.5-0.3,1.2-0.3,1.8-0.7l3.2-0.8c2.5-0.7,5-1.4,7.6-1.9c0.6-0.2,1.2-0.3,1.9-0.2l1.7-0.2
			c0.3,0.1,0.7,0,1-0.1c0.5-0.1,1-0.1,1.5-0.1c0.8-0.1,1.6-0.3,2.4-0.3c2.9-0.1,5.7-0.4,8.6-0.3c0.3,0.1,0.6,0,1,0.1h2.1
			c0.3,0,0.6,0.1,1,0.1l1.1-0.1c0.2,0.1,0.4,0.2,0.6,0.1l5.8,0.4c0.3,0,0.6,0.1,1,0.1c0.3,0.2,0.7,0.3,1.1,0.2c0.2,0,0.5,0,0.7,0.2
			l2,0.5c0.2,0,0.5,0.1,0.7,0.2l0.5,0.1c0.2,0.2,0.4,0.2,0.6,0.2c0.5-0.1,1,0.1,1.4,0.2c0.2,0.1,0.5,0.2,0.7,0.2
			c1.3,0.7,2.8,1.1,4.3,1.1c2.4,0,4.7-2.8,4.6-5.2c0.1-0.8-0.1-1.7-0.5-2.4c-0.6-1.3-1.7-2.2-3-2.6c-0.7-0.2-1.3-0.5-2.5-0.8
			c-1.4-0.4-2.5-0.6-2.9-0.7c-3.3-0.6-7.6-1.3-8.4-1.4c-0.2-0.1-0.5-0.2-0.7-0.2h-0.3c-0.2,0.1-0.5,0-0.7-0.2
			c-1.1,0-2.1-0.4-3.2-0.3c-0.4-0.1-0.7,0.3-1.1,0c-3.3-0.3-6.6-0.5-9.9-0.4c-2.2,0-4.4,0.1-6.6,0.5c-0.3-0.1-0.7-0.1-1,0
			c-0.5,0.1-1,0.2-1.5,0.1c-6.2,0.7-12.3,2.1-18.3,4c-0.5,0.2-0.9,0.4-1.5,0.5c-0.4,0.1-0.8,0.2-1.2,0.4l-0.8,0.2
			c-0.4,0.4-1,0.3-1.4,0.6l-5.1,2.1c-0.2,0.2-0.6,0.5-1,0.6c-0.2,0.1-0.5,0.2-0.7,0.3c-2.8,1.4-5.6,3-8.2,4.7
			c-0.1,0.2-0.3,0.4-0.6,0.4l-0.3,0.1c-0.2,0.1-0.4,0.2-0.6,0.4c-1.1,0.6-2.1,1.2-3,2c-1.8,1.2-3.5,2.5-5.1,3.9
			c-0.2,0.1-0.4,0.3-0.6,0.5l-4.2,4c-0.2,0.1-0.4,0.3-0.5,0.5c-2.7,2.7-5.3,5.5-7.7,8.5c-2.4,2.9-4.5,6-6.6,9.1
			c-1.8,2.9-3.4,6-5,8.9c-0.9,1.7-1.9,3.3-2.7,5.1c-1.4,3.3-2.7,6.6-4.1,9.9c0,0.2-0.1,0.5-0.2,0.7l-2,5.4c0,0.2-0.1,0.5-0.2,0.6
			c-0.7,2.3-1.4,4.6-2,6.9s-1.3,4.5-1.8,6.9c-0.1,0.2-0.2,0.5-0.2,0.7c-0.2,0.3-0.3,0.7-0.2,1.1c-0.1,0.2-0.2,0.5-0.2,0.7
			c-0.4,1.3-0.7,2.6-0.8,4c-0.3,2.3-0.9,4.6-1.3,6.9c0,0.2,0,0.5-0.2,0.7c0,0.1-0.1,0.1-0.1,0.2c0,0.3-0.2,0.6-0.2,1
			c-0.1,1.7-0.6,3.3-0.7,5.1c0,0.2-0.1,0.5-0.2,0.7l-0.6,4.9c0,0.2,0,0.5-0.2,0.7c-0.2,1.6-0.4,3.3-0.6,4.9s-0.3,3.1-0.5,4.6v1.1
			c-0.2,1.7-0.3,3.3-0.3,5c0,0.4,0,0.8-0.1,1.3c-0.2,1.1-0.3,2.1-0.3,3.2c-0.1,0.3-0.1,0.7-0.1,1s-0.1,0.7-0.1,1
			c0.2,0.9-0.2,1.7-0.1,2.5c0,0.4,0,0.7,0,1.1v0.3c0.1,0.2,0,0.5-0.1,0.7l0.1,1.4c0,0.3-0.1,0.6-0.1,1v2.1c0,0.4,0,0.9-0.1,1.3
			c0,0.7,0,1.4,0,2.1c0,0.3,0,0.7-0.1,1l0.1,1.1c0,0.4,0,0.9-0.1,1.3c0,1,0.1,2,0.1,3c0,1.6,0,3.3,0,4.9c-0.1,0.5,0,1,0,1.6
			c0.1,0.4,0.1,0.8,0.1,1.2c-0.1,2.6-0.1,5.3,0.2,7.9v1.1l1,4.8c0.5,1.3,1.7,2.1,3.1,2.2c3.7-0.7,7.4-1.4,11-2.3
			c4.8-1.2,9.7-2,14.5-3.2c4.4-1.1,8.9-1.9,13.3-2.9c8.4-2,16.9-3.7,25.3-5.5c0.8-0.1,1.6-0.4,2.4-0.7c1.5-0.5,3.1-0.6,4.7-1.2
			c0.7,0,1.3-0.1,1.9-0.4c0.5-0.1,1.1-0.2,1.6-0.3c2.4-0.3,4.6-1.6,7-2c3.2-0.5,6.2-1.9,9.4-2.5c1.6-0.3,3.2-0.9,4.6-1.6
			c0.6-0.6,1.4-0.5,2.2-0.7c2.1-0.2,4-1.4,6-1.8c0.9-0.1,1.8-0.4,2.7-0.9c1.6-1.1,3.6-1.2,5.4-2.1c0.6-0.3,1.3-0.6,1.9-0.8
			c1.8-0.6,3.6-1.2,5.4-2.1c2.4-1.2,4.9-2.1,7.3-3.3c0.3-0.2,0.6-0.4,0.9-0.5c1.6-0.6,3.1-1.4,4.6-2.3c0.2-0.2,0.5-0.4,0.9-0.5
			c1.1-0.6,2.2-1.2,3.3-1.7c0.2-0.2,0.5-0.4,0.9-0.5c0.4-0.2,0.7-0.4,1-0.6c0.2-0.2,0.5-0.4,0.8-0.5c1.2-0.6,2.3-1.3,3.4-2.1
			c0.1-0.2,0.4-0.4,0.6-0.5c0.1,0,0.3-0.1,0.4-0.1c0.2-0.1,0.4-0.3,0.6-0.4c0.1-0.1,0.1-0.1,0.2-0.2c0.2-0.2,0.3-0.3,0.6-0.4
			c2.4-1.6,4.8-3.4,6.9-5.3c0.1-0.2,0.3-0.4,0.5-0.5c0.3-0.2,0.7-0.4,0.9-0.7c1.9-1.7,3.7-3.5,5.3-5.5c1.3-1.7,2.9-3.3,4.2-5
			c2.5-3.3,4.6-6.8,6.2-10.6c0.1-0.3,0.3-0.6,0.5-1c0.8-1.9,1.5-3.8,2.2-5.7c0-0.2,0.1-0.5,0.2-0.7c0.6-1.5,1-3.1,1.4-4.7
			c0-0.3,0.1-0.6,0.2-0.9c0.5-1.7,0.8-3.4,1.1-5.1c0-0.3,0-0.6,0.1-0.9c0.1-1.3,0.4-2.5,0.4-3.8c0-0.3,0-0.7,0.1-1
			c0-0.3,0-0.6,0-0.8s0.1-0.5,0.1-0.7c0.1-0.6,0.1-1.2,0.2-1.8c-0.1-0.3-0.1-0.7,0.1-1c0.1-0.3,0.1-0.6,0-0.9
			c-0.1-0.3-0.1-0.7,0.1-1C779.5,191.9,786.8,241.9,780.1,198z"/>
	</g>
</g>
<g id="Layer_1_5_">
	<g id="Layer_4_4_">
		<path class="st0" d="M1022.7,144.7c0.1-0.6,0.3-1.3,0.6-1.9c0.4-0.7,0.7-1.5,0.8-2.4c0-0.3,0.1-0.5,0.2-0.8
			c0.1-0.2,0.1-0.3,0.1-0.5s0.1-0.4,0.3-0.6c0.3-0.5,0.5-1,0.6-1.5c0.4-1.2,0.7-2.4,1-3.6c0.8-3,1.7-5.9,2.3-9
			c0-0.3,0.1-0.6,0.2-0.8c0.1-0.2,0.1-0.4,0.1-0.6s0.1-0.4,0.2-0.7c0.1-0.9,0.5-1.8,0.6-2.7c0-0.3,0.1-0.7,0.2-0.9
			c0.2-0.8,0.3-1.7,0.2-2.6c-0.1-0.3,0-0.5,0.1-0.8c0.1-0.2,0.1-0.3,0.1-0.5c0-0.3,0.1-0.5,0.2-0.8c0.5-2.5,0.8-5,1-7.6
			c-0.1-0.3-0.1-0.7,0.1-1.1c0.1-0.3,0.1-0.6,0-0.8c-0.1-0.3-0.1-0.6,0.1-0.9c0.1-0.5,0.2-0.9,0.2-1.4c0-0.4,0-0.8,0-1.2
			c0-2.1,0.4-4.2,0.2-6.3c-0.1-1,0.4-2.1,0-3.1c0-0.4-0.4-0.9,0-1.3c0.2-1.8,0.1-3.6-0.3-5.4l-0.1-0.7c-0.1-0.3-0.1-0.7,0.1-1
			c0-1.4-0.1-2.8-0.4-4.1c-0.2-0.8-0.3-1.5-0.4-2.3c-1-4.4-1.9-8.9-2.9-13.3c-0.1-0.3-0.2-0.6-0.4-0.9c-0.5-1.1-1.5-1.3-2.5-1.6
			c-1.5,0.2-3,0.5-4.5,0.9c-0.1,0.2-0.3,0.4-0.6,0.5c-0.3,0.6-1,0.9-1.1,1.6c-0.1,0.2-0.2,0.4-0.2,0.7c-0.1,0.5-0.2,1-0.1,1.5
			c-0.1,0.4,0,0.9,0.1,1.3c0.3,1.5,0.6,3,0.8,4.6c0.1,1.4,0.7,2.7,0.8,4c0.1,1.4,0.3,2.8,0.6,4.2c-0.1,0.5,0.2,1.1,0,1.6
			c0,0.4,0.1,0.7,0.1,1.1c-0.1,0.6,0.2,1.2,0.1,1.9c0.2,1.1,0.3,2.3,0.2,3.4s0.4,2.2,0.3,3.3c-0.2,2.1-0.1,4.2-0.1,6.3
			c0,0.3,0,0.7-0.1,1l-0.2,3.6c0.1,0.2,0,0.4-0.1,0.7c0.1,1.6,0,3.2-0.2,4.8c-0.1,0.3-0.1,0.7-0.1,1l-0.2,1.5
			c-0.1,0.2-0.2,0.4-0.2,0.7c-0.2,2.3-0.8,4.6-1.1,6.9c0,0.2-0.1,0.4-0.2,0.6c-0.1,1.2-0.3,2.4-0.5,3.6c-0.1,0.2-0.2,0.4-0.2,0.7
			l-0.5,2c-0.1,0.2-0.2,0.4-0.2,0.7l-1.9,6.6c0,0.2-0.1,0.5-0.2,0.7c-0.8,2.8-1.7,5.5-2.6,8.2c-1.4,4.3-3.4,8.4-5.1,12.6
			c-1.3,3.1-2.8,6-4.4,9s-3.3,5.8-4.9,8.6c-0.7,1.2-1.5,2.2-2.2,3.4c-3,4.8-6.3,9.5-9.9,13.9c-0.1,0.5-0.5,0.7-0.8,1.1
			c-1.8,2-3.3,4.2-5.1,6.2c-3.1,3.4-6.3,6.6-9.5,9.9c-2.1,2.1-4.4,4-6.6,6.1c-0.2,0.1-0.4,0.3-0.5,0.5l-0.4,0.2
			c-0.1,0.2-0.3,0.4-0.5,0.5l0,0c-0.2,0.1-0.4,0.2-0.5,0.4c-1.3,0.9-2.5,1.9-3.6,3.1c-0.2,0.1-0.4,0.3-0.6,0.4l-4.7,3.2
			c-0.3,0.2-0.6,0.4-0.8,0.6l-2.3,1.3c-0.2,0.2-0.5,0.4-0.8,0.5c-0.3,0-0.5,0.1-0.8,0.3c-1.1,0.6-2,1.6-3.4,2
			c-0.3,0.1-0.6,0.3-0.8,0.5l-0.4,0.2c-0.2,0.3-0.6,0.3-0.8,0.5l-4.7,1.9c-0.4,0.3-1,0.3-1.4,0.6c-2,0.2-3.6,1.5-5.6,1.8
			c-1.5,0.3-2.8,1.4-3.3,2.8c-0.1,0.2-0.2,0.4-0.2,0.6c-0.4,2.6,1,6.1,4.2,6.4c0.3,0,0.6,0.2,1,0.1l1.2-0.2c2.6-0.4,5-1.6,7.5-2.2
			c0.5-0.2,1-0.4,1.4-0.6l0.9-0.2c0.4-0.2,0.8-0.3,1.2-0.6l3.8-1.7c0.3-0.2,0.6-0.3,0.8-0.5l0.9-0.5c0.3-0.2,0.5-0.4,0.8-0.5
			c0.4-0.3,0.8-0.5,1.3-0.7c0.3-0.1,0.5-0.4,0.8-0.5c1.6-1,3.3-1.9,4.9-2.9c2.2-1.4,4.2-3,6.3-4.6c0.2-0.1,0.4-0.3,0.5-0.4
			c0.9-0.7,1.9-1.5,2.8-2.2c0.9-0.7,2-1.8,3.1-2.5c0.1-0.2,0.3-0.3,0.6-0.5c1.2-1.1,2.3-2.2,3.5-3.3c4-3.6,7.8-7.4,11.4-11.4
			c1.9-2.3,3.9-4.6,5.8-6.9s3.9-4.9,5.8-7.4c1.3-1.8,2.7-3.5,3.9-5.4c2.5-4,5.1-7.9,7.4-12c1.8-3.1,3.4-6.2,5-9.4
			c0.9-1.9,1.9-3.7,2.7-5.6c0.2-0.5,0.4-1.1,0.7-1.5c1-3.8,2.9-6.8,4.9-10.6C1022.7,145.2,1022.7,144.9,1022.7,144.7z"/>
		<path class="st0" d="M1046.9,201.8c-0.1-0.5-0.4-1-0.2-1.6c0-0.2,0-0.4,0-0.6c-0.1-0.5-0.1-1,0-1.6c0-0.5-0.1-1.1-0.2-1.6
			c-0.2-0.7-0.3-1.4-0.2-2.1c0-0.8-0.1-1.6-0.3-2.3c-0.2-0.9-0.4-1.8-0.6-2.8c-0.6-2.7-1.4-5.3-1.8-8c-0.2-1.3-0.5-2.6-0.9-3.8
			c-0.9-2.2-1.7-4.5-2.6-6.7c-1.4-3.4-2.9-6.6-4.7-9.8c-0.2-0.3-0.4-0.6-0.5-0.9c-0.1-0.2-0.2-0.4-0.4-0.6c-0.2-0.1-0.4-0.4-0.5-0.6
			c-0.2-0.4-0.4-0.9-0.7-1.3c-0.2-0.2-0.3-0.4-0.4-0.6c-0.3-0.6-0.7-1.1-1.2-1.6c-0.3-0.2-0.5-0.4-0.6-0.7c-0.1-0.2-0.2-0.3-0.3-0.5
			c-0.2-0.2-0.4-0.4-0.5-0.7c-0.9-1.3-2-2.6-3.2-3.7c-0.2-0.1-0.4-0.3-0.5-0.5c-0.2-0.4-0.5-0.7-0.8-0.9c-0.9-0.8-1.9-1.7-2.8-2.6
			c-0.2-0.2-0.3-0.4-0.4-0.6c-1.9,3.9-3.9,6.8-4.9,10.6c0.3-0.3,0.6,0.1,1.6,1.3c0.2,0.1,0.4,0.3,0.5,0.5c1.6,1.6,2.7,3.5,4.2,5.2
			c0.2,0.1,0.4,0.3,0.4,0.5c0.3,1.1,1.2,1.8,1.6,2.8c0.2,0.1,0.3,0.3,0.4,0.6c0.1,0.7,0.8,1.2,0.9,1.9c0.2,0.4,0.4,0.8,0.6,1.1
			c0.4,0.6,0.7,1.2,0.8,1.9c0.2,0.2,0.3,0.6,0.5,0.8c0.4,1.4,1.2,2.6,1.7,3.9c1,2.6,1.8,5.3,2.5,8c0.7,2.6,1.2,5.2,1.8,7.9
			c0,1,0.4,2,0.3,3.1l0.4,2.3c-0.1,0.6,0.2,1.3,0,1.9c0.2,1.6,0,3.2,0.2,4.9c-0.1,0.3-0.1,0.7-0.1,1c-0.1,1.3-0.1,2.6-0.3,3.9
			c-0.2,1.9-0.5,3.7-0.8,5.6c-0.1,0.2-0.2,0.5-0.2,0.7c-0.1,0.7-0.3,1.3-0.4,2c-0.2,1.9-0.8,3.8-1.6,5.6c0,0.2-0.1,0.5-0.2,0.7
			c-0.2,1-0.6,2-1.1,2.9c0,0.2-0.1,0.5-0.2,0.7c-0.2,0.4-0.4,0.7-0.6,1.1c-1.5,3.9-3.9,7.2-6.1,10.6c-2,3.1-4.8,5.5-7.4,8.1
			c-0.1,0.2-0.3,0.4-0.5,0.5s-0.4,0.2-0.5,0.5l-0.4,0.2c-0.2,0.2-0.4,0.3-0.6,0.5c-1.2,1.4-2.6,2.5-4.2,3.5
			c-0.2,0.1-0.4,0.2-0.5,0.4l-0.4,0.2c-0.1,0.2-0.3,0.4-0.5,0.4c-0.8,0.6-1.6,1.1-2.4,1.6c-1.2,0.8-2.4,1.5-3.7,2.1
			c-0.2,0.1-0.3,0.3-0.5,0.5c-0.6,0.1-0.9,0.6-1.4,0.9c-0.1,0.4-0.5,0.4-0.7,0.6c-0.8,0-1.2,0.7-1.9,0.9c-0.2,0.2-0.5,0.4-0.8,0.5
			c-0.7,0.1-1.2,0.6-1.9,0.9c-0.4,0.2-0.7,0.4-1.1,0.6l-0.8,0.3c-0.3,0.2-0.5,0.4-0.8,0.5l-0.6,0.1c-0.2,0.2-0.5,0.4-0.8,0.5
			c-1.5,0.5-2.9,1.2-4.2,1.9c-0.3,0.2-0.7,0.3-1.1,0.4c-0.2,0.1-0.5,0.2-0.6,0.3l-0.5,0.2c-0.3,0.4-0.8,0.3-1.1,0.6
			c-2.1,0.5-4.1,1.5-6.2,2.2c-0.4,0.4-1,0.3-1.4,0.6c-1.2,0.1-2.2,0.9-3.3,1.2c-2.4,0.6-4.6,1.6-7,2.2s-4.8,1.8-7.3,2.3
			c-0.5,0.4-1.2,0.4-1.8,0.6c-0.7,0.1-1.4,0.3-2.1,0.6c-1.6,0.5-3.2,0.8-4.8,1.3c-2.9,1-5.9,1.6-8.9,2.5c-4,1.1-8.1,1.9-12.1,3
			c-3.2,1-6.6,1.4-9.9,2.3c-4.4,1.2-9,1.9-13.4,3c-4.9,1.2-9.8,2-14.7,3.2c-3.8,0.9-7.6,1.6-11.3,2.4c-0.3,0-0.7,0.1-1,0.2
			c-1,0.6-1.4,0.3-1.7-0.8c0-0.4,0-0.8,0.1-1.3v-0.8c0.2-0.4-0.1-0.9,0.1-1.3c-0.2-1-0.2-2-0.2-3c0-0.4,0-0.8,0.1-1.2
			c0-0.4-0.1-0.8-0.1-1.1c0.1-0.3,0.1-0.7,0.1-1c0-2-0.1-4.1-0.1-6.1c0-0.4,0.1-0.9,0.1-1.3l0.1-4.1c0-0.3,0-0.6,0.1-1
			c0-0.4-0.1-0.8-0.1-1.1s0.1-0.6,0.1-1c0.1-1.9,0.1-3.8,0.2-5.7l0.2-4c0-0.3,0.1-0.7,0.1-1v-0.5c0.1-0.3,0.1-0.7,0.2-1
			c0-1.1,0.1-2.2,0.2-3.2c0.1-0.3,0.2-0.6,0.1-0.9c-0.1-0.2-0.1-0.5,0-0.7c0.3-1.3,0.4-2.6,0.2-3.9c0-0.2,0-0.5,0.2-0.7
			c0-0.2,0-0.3,0-0.5c0.1-0.3,0.1-0.7,0.2-1c0.1-2.3,0.6-4.6,0.9-6.9c0.3-2.5,0.7-5,1-7.5c0.1-0.2,0.2-0.4,0.2-0.7
			c0.5-2.6,1-5.2,1.6-7.9c0.6-2,1-4,1.2-6c0-0.2,0-0.5,0.2-0.6v-0.5c0.1-0.2,0.2-0.5,0.2-0.7c0.1-0.2,0.2-0.4,0.2-0.6
			c0.8-3.1,1.7-6.1,2.8-9c0-0.2,0.1-0.5,0.2-0.7c0.7-1.7,0.9-3.5,1.7-5.1c0-0.2,0.1-0.5,0.2-0.7c1.9-5.1,4.1-10.1,6.6-14.9
			c2-3.9,4.3-7.7,6.9-11.3c2.5-3.7,5.3-7.1,8.4-10.2c0.2-0.1,0.4-0.3,0.5-0.5c0.3-0.3,0.6-0.6,0.8-1c0.2-0.1,0.4-0.3,0.6-0.5
			c2.7-2.7,5.7-5.3,8.9-7.5c0.2-0.1,0.3-0.4,0.5-0.4c0.7-0.4,1.3-0.8,1.9-1.3c0.3-0.2,0.6-0.4,0.8-0.5l0.4-0.2
			c0.1-0.2,0.4-0.3,0.5-0.5l1.1-0.8c0.3-0.2,0.6-0.3,0.9-0.5l1.9-0.9c0.1-0.2,0.3-0.4,0.6-0.4c1.3-0.5,2.5-1.2,3.8-1.8
			c2.6-1.3,5.3-2.4,8-3.4c0.5-0.3,1.2-0.3,1.8-0.7l3.2-0.8c2.5-0.7,5-1.4,7.6-1.9c0.6-0.2,1.2-0.3,1.9-0.2l1.7-0.2
			c0.3,0.1,0.7,0,1-0.1c0.5-0.1,1-0.1,1.5-0.1c0.8-0.1,1.6-0.3,2.4-0.3c2.9-0.1,5.7-0.4,8.6-0.3c0.3,0.1,0.6,0,1,0.1h2.1
			c0.3,0,0.6,0.1,1,0.1l1.1-0.1c0.2,0.1,0.4,0.2,0.6,0.1l5.8,0.4c0.3,0,0.6,0.1,1,0.1c0.3,0.2,0.7,0.3,1.1,0.2c0.2,0,0.5,0,0.7,0.2
			l2,0.5c0.2,0,0.5,0.1,0.7,0.2l0.5,0.1c0.2,0.2,0.4,0.2,0.6,0.2c0.5-0.1,1,0.1,1.4,0.2c0.2,0.1,0.5,0.2,0.7,0.2
			c1.3,0.7,2.8,1.1,4.3,1.1c2.4,0,4.7-2.8,4.6-5.2c0.1-0.8-0.1-1.7-0.5-2.4c-0.6-1.3-1.7-2.2-3-2.6c-0.7-0.2-1.3-0.5-2.5-0.8
			c-1.4-0.4-2.5-0.6-2.9-0.7c-3.3-0.6-7.6-1.3-8.4-1.4c-0.2-0.1-0.5-0.2-0.7-0.2h-0.3c-0.2,0.1-0.5,0-0.7-0.2
			c-1.1,0-2.1-0.4-3.2-0.3c-0.4-0.1-0.7,0.3-1.1,0c-3.3-0.3-6.6-0.5-9.9-0.4c-2.2,0-4.4,0.1-6.6,0.5c-0.3-0.1-0.7-0.1-1,0
			c-0.5,0.1-1,0.2-1.5,0.1c-6.2,0.7-12.3,2.1-18.3,4c-0.5,0.2-0.9,0.4-1.5,0.5c-0.4,0.1-0.8,0.2-1.2,0.4l-0.8,0.2
			c-0.4,0.4-1,0.3-1.4,0.6l-5.1,2.1c-0.2,0.2-0.6,0.5-1,0.6c-0.2,0.1-0.5,0.2-0.7,0.3c-2.8,1.4-5.6,3-8.2,4.7
			c-0.1,0.2-0.3,0.4-0.6,0.4l-0.3,0.1c-0.2,0.1-0.4,0.2-0.6,0.4c-1.1,0.6-2.1,1.2-3,2c-1.8,1.2-3.5,2.5-5.1,3.9
			c-0.2,0.1-0.4,0.3-0.6,0.5l-4.2,4c-0.2,0.1-0.4,0.3-0.5,0.5c-2.7,2.7-5.3,5.5-7.7,8.5c-2.4,2.9-4.5,6-6.6,9.1
			c-1.8,2.9-3.4,6-5,8.9c-0.9,1.7-1.9,3.3-2.7,5.1c-1.4,3.3-2.7,6.6-4.1,9.9c0,0.2-0.1,0.5-0.2,0.7l-2,5.4c0,0.2-0.1,0.5-0.2,0.6
			c-0.7,2.3-1.4,4.6-2,6.9c-0.6,2.3-1.3,4.5-1.8,6.9c-0.1,0.2-0.2,0.5-0.2,0.7c-0.2,0.3-0.3,0.7-0.2,1.1c-0.1,0.2-0.2,0.5-0.2,0.7
			c-0.4,1.3-0.7,2.6-0.8,4c-0.3,2.3-0.9,4.6-1.3,6.9c0,0.2,0,0.5-0.2,0.7c0,0.1-0.1,0.1-0.1,0.2c0,0.3-0.2,0.6-0.2,1
			c-0.1,1.7-0.6,3.3-0.7,5.1c0,0.2-0.1,0.5-0.2,0.7l-0.6,4.9c0,0.2,0,0.5-0.2,0.7c-0.2,1.6-0.4,3.3-0.6,4.9
			c-0.2,1.6-0.3,3.1-0.5,4.6v1.1c-0.2,1.7-0.3,3.3-0.3,5c0,0.4,0,0.8-0.1,1.3c-0.2,1.1-0.3,2.1-0.3,3.2c-0.1,0.3-0.1,0.7-0.1,1
			s-0.1,0.7-0.1,1c0.2,0.9-0.2,1.7-0.1,2.5c0,0.4,0,0.7,0,1.1v0.3c0.1,0.2,0,0.5-0.1,0.7l0.1,1.4c0,0.3-0.1,0.6-0.1,1v2.1
			c0,0.4,0,0.9-0.1,1.3c0,0.7,0,1.4,0,2.1c0,0.3,0,0.7-0.1,1l0.1,1.1c0,0.4,0,0.9-0.1,1.3c0,1,0.1,2,0.1,3c0,1.6,0,3.3,0,4.9
			c-0.1,0.5,0,1,0,1.6c0.1,0.4,0.1,0.8,0.1,1.2c-0.1,2.6-0.1,5.3,0.2,7.9v1.1l1,4.8c0.5,1.3,1.7,2.1,3.1,2.2c3.7-0.7,7.4-1.4,11-2.3
			c4.8-1.2,9.7-2,14.5-3.2c4.4-1.1,8.9-1.9,13.3-2.9c8.4-2,16.9-3.7,25.3-5.5c0.8-0.1,1.6-0.4,2.4-0.7c1.5-0.5,3.1-0.6,4.7-1.2
			c0.7,0,1.3-0.1,1.9-0.4c0.5-0.1,1.1-0.2,1.6-0.3c2.4-0.3,4.6-1.6,7-2c3.2-0.5,6.2-1.9,9.4-2.5c1.6-0.3,3.2-0.9,4.6-1.6
			c0.6-0.6,1.4-0.5,2.2-0.7c2.1-0.2,4-1.4,6-1.8c0.9-0.1,1.8-0.4,2.7-0.9c1.6-1.1,3.6-1.2,5.4-2.1c0.6-0.3,1.3-0.6,1.9-0.8
			c1.8-0.6,3.6-1.2,5.4-2.1c2.4-1.2,4.9-2.1,7.3-3.3c0.3-0.2,0.6-0.4,0.9-0.5c1.6-0.6,3.1-1.4,4.6-2.3c0.2-0.2,0.5-0.4,0.9-0.5
			c1.1-0.6,2.2-1.2,3.3-1.7c0.2-0.2,0.5-0.4,0.9-0.5c0.4-0.2,0.7-0.4,1-0.6c0.2-0.2,0.5-0.4,0.8-0.5c1.2-0.6,2.3-1.3,3.4-2.1
			c0.1-0.2,0.4-0.4,0.6-0.5c0.1,0,0.3-0.1,0.4-0.1c0.2-0.1,0.4-0.3,0.6-0.4c0.1-0.1,0.1-0.1,0.2-0.2c0.2-0.2,0.3-0.3,0.6-0.4
			c2.4-1.6,4.8-3.4,6.9-5.3c0.1-0.2,0.3-0.4,0.5-0.5c0.3-0.2,0.7-0.4,0.9-0.7c1.9-1.7,3.7-3.5,5.3-5.5c1.3-1.7,2.9-3.3,4.2-5
			c2.5-3.3,4.6-6.8,6.2-10.6c0.1-0.3,0.3-0.6,0.5-1c0.8-1.9,1.5-3.8,2.2-5.7c0-0.2,0.1-0.5,0.2-0.7c0.6-1.5,1-3.1,1.4-4.7
			c0-0.3,0.1-0.6,0.2-0.9c0.5-1.7,0.8-3.4,1.1-5.1c0-0.3,0-0.6,0.1-0.9c0.1-1.3,0.4-2.5,0.4-3.8c0-0.3,0-0.7,0.1-1
			c0-0.3,0-0.6,0-0.8s0.1-0.5,0.1-0.7c0.1-0.6,0.1-1.2,0.2-1.8c-0.1-0.3-0.1-0.7,0.1-1c0.1-0.3,0.1-0.6,0-0.9
			c-0.1-0.3-0.1-0.7,0.1-1C1046.3,195.7,1053.6,245.7,1046.9,201.8z"/>
	</g>
</g>
<g id="Layer_1_6_">
	<g id="Layer_4_5_">
		<path class="st0" d="M1282.6,140.9c0.1-0.6,0.3-1.3,0.6-1.9c0.4-0.7,0.7-1.5,0.8-2.4c0-0.3,0.1-0.5,0.2-0.8
			c0.1-0.2,0.1-0.3,0.1-0.5s0.1-0.4,0.3-0.6c0.3-0.5,0.5-1,0.6-1.5c0.4-1.2,0.7-2.4,1-3.6c0.8-3,1.7-5.9,2.3-9
			c0-0.3,0.1-0.6,0.2-0.8c0.1-0.2,0.1-0.4,0.1-0.6s0.1-0.4,0.2-0.7c0.1-0.9,0.5-1.8,0.6-2.7c0-0.3,0.1-0.7,0.2-0.9
			c0.2-0.8,0.3-1.7,0.2-2.6c-0.1-0.3,0-0.5,0.1-0.8c0.1-0.2,0.1-0.3,0.1-0.5c0-0.3,0.1-0.5,0.2-0.8c0.5-2.5,0.8-5,1-7.6
			c-0.1-0.3-0.1-0.7,0.1-1.1c0.1-0.3,0.1-0.6,0-0.8c-0.1-0.3-0.1-0.6,0.1-0.9c0.1-0.5,0.2-0.9,0.2-1.4c0-0.4,0-0.8,0-1.2
			c0-2.1,0.4-4.2,0.2-6.3c-0.1-1,0.4-2.1,0-3.1c0-0.4-0.4-0.9,0-1.3c0.2-1.8,0.1-3.6-0.3-5.4l-0.1-0.7c-0.1-0.3-0.1-0.7,0.1-1
			c0-1.4-0.1-2.8-0.4-4.1c-0.2-0.8-0.3-1.5-0.4-2.3c-1-4.4-1.9-8.9-2.9-13.3c-0.1-0.3-0.2-0.6-0.4-0.9c-0.5-1.1-1.5-1.3-2.5-1.6
			c-1.5,0.2-3,0.5-4.5,0.9c-0.1,0.2-0.3,0.4-0.6,0.5c-0.3,0.6-1,0.9-1.1,1.6c-0.1,0.2-0.2,0.4-0.2,0.7c-0.1,0.5-0.2,1-0.1,1.5
			c-0.1,0.4,0,0.9,0.1,1.3c0.3,1.5,0.6,3,0.8,4.6c0.1,1.4,0.7,2.7,0.8,4c0.1,1.4,0.3,2.8,0.6,4.2c-0.1,0.5,0.2,1.1,0,1.6
			c0,0.4,0.1,0.7,0.1,1.1c-0.1,0.6,0.2,1.2,0.1,1.9c0.2,1.1,0.3,2.3,0.2,3.4c-0.1,1.1,0.4,2.2,0.3,3.3c-0.2,2.1-0.1,4.2-0.1,6.3
			c0,0.3,0,0.7-0.1,1l-0.2,3.6c0.1,0.2,0,0.4-0.1,0.7c0.1,1.6,0,3.2-0.2,4.8c-0.1,0.3-0.1,0.7-0.1,1l-0.2,1.5
			c-0.1,0.2-0.2,0.4-0.2,0.7c-0.2,2.3-0.8,4.6-1.1,6.9c0,0.2-0.1,0.4-0.2,0.6c-0.1,1.2-0.3,2.4-0.5,3.6c-0.1,0.2-0.2,0.4-0.2,0.7
			l-0.5,2c-0.1,0.2-0.2,0.4-0.2,0.7l-1.9,6.6c0,0.2-0.1,0.5-0.2,0.7c-0.8,2.8-1.7,5.5-2.6,8.2c-1.4,4.3-3.4,8.4-5.1,12.6
			c-1.3,3.1-2.8,6-4.4,9s-3.3,5.8-4.9,8.6c-0.7,1.2-1.5,2.2-2.2,3.4c-3,4.8-6.3,9.5-9.9,13.9c-0.1,0.5-0.5,0.7-0.8,1.1
			c-1.8,2-3.3,4.2-5.1,6.2c-3.1,3.4-6.3,6.6-9.5,9.9c-2.1,2.1-4.4,4-6.6,6.1c-0.2,0.1-0.4,0.3-0.5,0.5l-0.4,0.2
			c-0.1,0.2-0.3,0.4-0.5,0.5l0,0c-0.2,0.1-0.4,0.2-0.5,0.4c-1.3,0.9-2.5,1.9-3.6,3.1c-0.2,0.1-0.4,0.3-0.6,0.4l-4.7,3.2
			c-0.3,0.2-0.6,0.4-0.8,0.6l-2.3,1.3c-0.2,0.2-0.5,0.4-0.8,0.5c-0.3,0-0.5,0.1-0.8,0.3c-1.1,0.6-2,1.6-3.4,2
			c-0.3,0.1-0.6,0.3-0.8,0.5l-0.4,0.2c-0.2,0.3-0.6,0.3-0.8,0.5l-4.7,1.9c-0.4,0.3-1,0.3-1.4,0.6c-2,0.2-3.6,1.5-5.6,1.8
			c-1.5,0.3-2.8,1.4-3.3,2.8c-0.1,0.2-0.2,0.4-0.2,0.6c-0.4,2.6,1,6.1,4.2,6.4c0.3,0,0.6,0.2,1,0.1l1.2-0.2c2.6-0.4,5-1.6,7.5-2.2
			c0.5-0.2,1-0.4,1.4-0.6l0.9-0.2c0.4-0.2,0.8-0.3,1.2-0.6l3.8-1.7c0.3-0.2,0.6-0.3,0.8-0.5l0.9-0.5c0.3-0.2,0.5-0.4,0.8-0.5
			c0.4-0.3,0.8-0.5,1.3-0.7c0.3-0.1,0.5-0.4,0.8-0.5c1.6-1,3.3-1.9,4.9-2.9c2.2-1.4,4.2-3,6.3-4.6c0.2-0.1,0.4-0.3,0.5-0.4
			c0.9-0.7,1.9-1.5,2.8-2.2s2-1.8,3.1-2.5c0.1-0.2,0.3-0.3,0.6-0.5c1.2-1.1,2.3-2.2,3.5-3.3c4-3.6,7.8-7.4,11.4-11.4
			c1.9-2.3,3.9-4.6,5.8-6.9s3.9-4.9,5.8-7.4c1.3-1.8,2.7-3.5,3.9-5.4c2.5-4,5.1-7.9,7.4-12c1.8-3.1,3.4-6.2,5-9.4
			c0.9-1.9,1.9-3.7,2.7-5.6c0.2-0.5,0.4-1.1,0.7-1.5c1-3.8,2.9-6.8,4.9-10.6C1282.6,141.4,1282.6,141.1,1282.6,140.9z"/>
		<path class="st0" d="M1306.8,198c-0.1-0.5-0.4-1-0.2-1.6c0-0.2,0-0.4,0-0.6c-0.1-0.5-0.1-1,0-1.6c0-0.5-0.1-1.1-0.2-1.6
			c-0.2-0.7-0.3-1.4-0.2-2.1c0-0.8-0.1-1.6-0.3-2.3c-0.2-0.9-0.4-1.8-0.6-2.8c-0.6-2.7-1.4-5.3-1.8-8c-0.2-1.3-0.5-2.6-0.9-3.8
			c-0.9-2.2-1.7-4.5-2.6-6.7c-1.4-3.4-2.9-6.6-4.7-9.8c-0.2-0.3-0.4-0.6-0.5-0.9c-0.1-0.2-0.2-0.4-0.4-0.6c-0.2-0.1-0.4-0.4-0.5-0.6
			c-0.2-0.4-0.4-0.9-0.7-1.3c-0.2-0.2-0.3-0.4-0.4-0.6c-0.3-0.6-0.7-1.1-1.2-1.6c-0.3-0.2-0.5-0.4-0.6-0.7c-0.1-0.2-0.2-0.3-0.3-0.5
			c-0.2-0.2-0.4-0.4-0.5-0.7c-0.9-1.3-2-2.6-3.2-3.7c-0.2-0.1-0.4-0.3-0.5-0.5c-0.2-0.4-0.5-0.7-0.8-0.9c-0.9-0.8-1.9-1.7-2.8-2.6
			c-0.2-0.2-0.3-0.4-0.4-0.6c-1.9,3.9-3.9,6.8-4.9,10.6c0.3-0.3,0.6,0.1,1.6,1.3c0.2,0.1,0.4,0.3,0.5,0.5c1.6,1.6,2.7,3.5,4.2,5.2
			c0.2,0.1,0.4,0.3,0.4,0.5c0.3,1.1,1.2,1.8,1.6,2.8c0.2,0.1,0.3,0.3,0.4,0.6c0.1,0.7,0.8,1.2,0.9,1.9c0.2,0.4,0.4,0.8,0.6,1.1
			c0.4,0.6,0.7,1.2,0.8,1.9c0.2,0.2,0.3,0.6,0.5,0.8c0.4,1.4,1.2,2.6,1.7,3.9c1,2.6,1.8,5.3,2.5,8c0.7,2.6,1.2,5.2,1.8,7.9
			c0,1,0.4,2,0.3,3.1l0.4,2.3c-0.1,0.6,0.2,1.3,0,1.9c0.2,1.6,0,3.2,0.2,4.9c-0.1,0.3-0.1,0.7-0.1,1c-0.1,1.3-0.1,2.6-0.3,3.9
			c-0.2,1.9-0.5,3.7-0.8,5.6c-0.1,0.2-0.2,0.5-0.2,0.7c-0.1,0.7-0.3,1.3-0.4,2c-0.2,1.9-0.8,3.8-1.6,5.6c0,0.2-0.1,0.5-0.2,0.7
			c-0.2,1-0.6,2-1.1,2.9c0,0.2-0.1,0.5-0.2,0.7c-0.2,0.4-0.4,0.7-0.6,1.1c-1.5,3.9-3.9,7.2-6.1,10.6c-2,3.1-4.8,5.5-7.4,8.1
			c-0.1,0.2-0.3,0.4-0.5,0.5s-0.4,0.2-0.5,0.5l-0.4,0.2c-0.2,0.2-0.4,0.3-0.6,0.5c-1.2,1.4-2.6,2.5-4.2,3.5
			c-0.2,0.1-0.4,0.2-0.5,0.4l-0.4,0.2c-0.1,0.2-0.3,0.4-0.5,0.4c-0.8,0.6-1.6,1.1-2.4,1.6c-1.2,0.8-2.4,1.5-3.7,2.1
			c-0.2,0.1-0.3,0.3-0.5,0.5c-0.6,0.1-0.9,0.6-1.4,0.9c-0.1,0.4-0.5,0.4-0.7,0.6c-0.8,0-1.2,0.7-1.9,0.9c-0.2,0.2-0.5,0.4-0.8,0.5
			c-0.7,0.1-1.2,0.6-1.9,0.9c-0.4,0.2-0.7,0.4-1.1,0.6l-0.8,0.3c-0.3,0.2-0.5,0.4-0.8,0.5l-0.6,0.1c-0.2,0.2-0.5,0.4-0.8,0.5
			c-1.5,0.5-2.9,1.2-4.2,1.9c-0.3,0.2-0.7,0.3-1.1,0.4c-0.2,0.1-0.5,0.2-0.6,0.3l-0.5,0.2c-0.3,0.4-0.8,0.3-1.1,0.6
			c-2.1,0.5-4.1,1.5-6.2,2.2c-0.4,0.4-1,0.3-1.4,0.6c-1.2,0.1-2.2,0.9-3.3,1.2c-2.4,0.6-4.6,1.6-7,2.2s-4.8,1.8-7.3,2.3
			c-0.5,0.4-1.2,0.4-1.8,0.6c-0.7,0.1-1.4,0.3-2.1,0.6c-1.6,0.5-3.2,0.8-4.8,1.3c-2.9,1-5.9,1.6-8.9,2.5c-4,1.1-8.1,1.9-12.1,3
			c-3.2,1-6.6,1.4-9.9,2.3c-4.4,1.2-9,1.9-13.4,3c-4.9,1.2-9.8,2-14.7,3.2c-3.8,0.9-7.6,1.6-11.3,2.4c-0.3,0-0.7,0.1-1,0.2
			c-1,0.6-1.4,0.3-1.7-0.8c0-0.4,0-0.8,0.1-1.3v-0.8c0.2-0.4-0.1-0.9,0.1-1.3c-0.2-1-0.2-2-0.2-3c0-0.4,0-0.8,0.1-1.2
			c0-0.4-0.1-0.8-0.1-1.1c0.1-0.3,0.1-0.7,0.1-1c0-2-0.1-4.1-0.1-6.1c0-0.4,0.1-0.9,0.1-1.3l0.1-4.1c0-0.3,0-0.6,0.1-1
			c0-0.4-0.1-0.8-0.1-1.1s0.1-0.6,0.1-1c0.1-1.9,0.1-3.8,0.2-5.7l0.2-4c0-0.3,0.1-0.7,0.1-1v-0.5c0.1-0.3,0.1-0.7,0.2-1
			c0-1.1,0.1-2.2,0.2-3.2c0.1-0.3,0.2-0.6,0.1-0.9c-0.1-0.2-0.1-0.5,0-0.7c0.3-1.3,0.4-2.6,0.2-3.9c0-0.2,0-0.5,0.2-0.7
			c0-0.2,0-0.3,0-0.5c0.1-0.3,0.1-0.7,0.2-1c0.1-2.3,0.6-4.6,0.9-6.9c0.3-2.5,0.7-5,1-7.5c0.1-0.2,0.2-0.4,0.2-0.7
			c0.5-2.6,1-5.2,1.6-7.9c0.6-2,1-4,1.2-6c0-0.2,0-0.5,0.2-0.6v-0.5c0.1-0.2,0.2-0.5,0.2-0.7c0.1-0.2,0.2-0.4,0.2-0.6
			c0.8-3.1,1.7-6.1,2.8-9c0-0.2,0.1-0.5,0.2-0.7c0.7-1.7,0.9-3.5,1.7-5.1c0-0.2,0.1-0.5,0.2-0.7c1.9-5.1,4.1-10.1,6.6-14.9
			c2-3.9,4.3-7.7,6.9-11.3c2.5-3.7,5.3-7.1,8.4-10.2c0.2-0.1,0.4-0.3,0.5-0.5c0.3-0.3,0.6-0.6,0.8-1c0.2-0.1,0.4-0.3,0.6-0.5
			c2.7-2.7,5.7-5.3,8.9-7.5c0.2-0.1,0.3-0.4,0.5-0.4c0.7-0.4,1.3-0.8,1.9-1.3c0.3-0.2,0.6-0.4,0.8-0.5l0.4-0.2
			c0.1-0.2,0.4-0.3,0.5-0.5l1.1-0.8c0.3-0.2,0.6-0.3,0.9-0.5l1.9-0.9c0.1-0.2,0.3-0.4,0.6-0.4c1.3-0.5,2.5-1.2,3.8-1.8
			c2.6-1.3,5.3-2.4,8-3.4c0.5-0.3,1.2-0.3,1.8-0.7l3.2-0.8c2.5-0.7,5-1.4,7.6-1.9c0.6-0.2,1.2-0.3,1.9-0.2l1.7-0.2
			c0.3,0.1,0.7,0,1-0.1c0.5-0.1,1-0.1,1.5-0.1c0.8-0.1,1.6-0.3,2.4-0.3c2.9-0.1,5.7-0.4,8.6-0.3c0.3,0.1,0.6,0,1,0.1h2.1
			c0.3,0,0.6,0.1,1,0.1l1.1-0.1c0.2,0.1,0.4,0.2,0.6,0.1l5.8,0.4c0.3,0,0.6,0.1,1,0.1c0.3,0.2,0.7,0.3,1.1,0.2c0.2,0,0.5,0,0.7,0.2
			l2,0.5c0.2,0,0.5,0.1,0.7,0.2l0.5,0.1c0.2,0.2,0.4,0.2,0.6,0.2c0.5-0.1,1,0.1,1.4,0.2c0.2,0.1,0.5,0.2,0.7,0.2
			c1.3,0.7,2.8,1.1,4.3,1.1c2.4,0,4.7-2.8,4.6-5.2c0.1-0.8-0.1-1.7-0.5-2.4c-0.6-1.3-1.7-2.2-3-2.6c-0.7-0.2-1.3-0.5-2.5-0.8
			c-1.4-0.4-2.5-0.6-2.9-0.7c-3.3-0.6-7.6-1.3-8.4-1.4c-0.2-0.1-0.5-0.2-0.7-0.2h-0.3c-0.2,0.1-0.5,0-0.7-0.2
			c-1.1,0-2.1-0.4-3.2-0.3c-0.4-0.1-0.7,0.3-1.1,0c-3.3-0.3-6.6-0.5-9.9-0.4c-2.2,0-4.4,0.1-6.6,0.5c-0.3-0.1-0.7-0.1-1,0
			c-0.5,0.1-1,0.2-1.5,0.1c-6.2,0.7-12.3,2.1-18.3,4c-0.5,0.2-0.9,0.4-1.5,0.5c-0.4,0.1-0.8,0.2-1.2,0.4l-0.8,0.2
			c-0.4,0.4-1,0.3-1.4,0.6l-5.1,2.1c-0.2,0.2-0.6,0.5-1,0.6c-0.2,0.1-0.5,0.2-0.7,0.3c-2.8,1.4-5.6,3-8.2,4.7
			c-0.1,0.2-0.3,0.4-0.6,0.4l-0.3,0.1c-0.2,0.1-0.4,0.2-0.6,0.4c-1.1,0.6-2.1,1.2-3,2c-1.8,1.2-3.5,2.5-5.1,3.9
			c-0.2,0.1-0.4,0.3-0.6,0.5l-4.2,4c-0.2,0.1-0.4,0.3-0.5,0.5c-2.7,2.7-5.3,5.5-7.7,8.5c-2.4,2.9-4.5,6-6.6,9.1
			c-1.8,2.9-3.4,6-5,8.9c-0.9,1.7-1.9,3.3-2.7,5.1c-1.4,3.3-2.7,6.6-4.1,9.9c0,0.2-0.1,0.5-0.2,0.7l-2,5.4c0,0.2-0.1,0.5-0.2,0.6
			c-0.7,2.3-1.4,4.6-2,6.9s-1.3,4.5-1.8,6.9c-0.1,0.2-0.2,0.5-0.2,0.7c-0.2,0.3-0.3,0.7-0.2,1.1c-0.1,0.2-0.2,0.5-0.2,0.7
			c-0.4,1.3-0.7,2.6-0.8,4c-0.3,2.3-0.9,4.6-1.3,6.9c0,0.2,0,0.5-0.2,0.7c0,0.1-0.1,0.1-0.1,0.2c0,0.3-0.2,0.6-0.2,1
			c-0.1,1.7-0.6,3.3-0.7,5.1c0,0.2-0.1,0.5-0.2,0.7l-0.6,4.9c0,0.2,0,0.5-0.2,0.7c-0.2,1.6-0.4,3.3-0.6,4.9
			c-0.2,1.6-0.3,3.1-0.5,4.6v1.1c-0.2,1.7-0.3,3.3-0.3,5c0,0.4,0,0.8-0.1,1.3c-0.2,1.1-0.3,2.1-0.3,3.2c-0.1,0.3-0.1,0.7-0.1,1
			s-0.1,0.7-0.1,1c0.2,0.9-0.2,1.7-0.1,2.5c0,0.4,0,0.7,0,1.1v0.3c0.1,0.2,0,0.5-0.1,0.7l0.1,1.4c0,0.3-0.1,0.6-0.1,1v2.1
			c0,0.4,0,0.9-0.1,1.3c0,0.7,0,1.4,0,2.1c0,0.3,0,0.7-0.1,1l0.1,1.1c0,0.4,0,0.9-0.1,1.3c0,1,0.1,2,0.1,3c0,1.6,0,3.3,0,4.9
			c-0.1,0.5,0,1,0,1.6c0.1,0.4,0.1,0.8,0.1,1.2c-0.1,2.6-0.1,5.3,0.2,7.9v1.1l1,4.8c0.5,1.3,1.7,2.1,3.1,2.2c3.7-0.7,7.4-1.4,11-2.3
			c4.8-1.2,9.7-2,14.5-3.2c4.4-1.1,8.9-1.9,13.3-2.9c8.4-2,16.9-3.7,25.3-5.5c0.8-0.1,1.6-0.4,2.4-0.7c1.5-0.5,3.1-0.6,4.7-1.2
			c0.7,0,1.3-0.1,1.9-0.4c0.5-0.1,1.1-0.2,1.6-0.3c2.4-0.3,4.6-1.6,7-2c3.2-0.5,6.2-1.9,9.4-2.5c1.6-0.3,3.2-0.9,4.6-1.6
			c0.6-0.6,1.4-0.5,2.2-0.7c2.1-0.2,4-1.4,6-1.8c0.9-0.1,1.8-0.4,2.7-0.9c1.6-1.1,3.6-1.2,5.4-2.1c0.6-0.3,1.3-0.6,1.9-0.8
			c1.8-0.6,3.6-1.2,5.4-2.1c2.4-1.2,4.9-2.1,7.3-3.3c0.3-0.2,0.6-0.4,0.9-0.5c1.6-0.6,3.1-1.4,4.6-2.3c0.2-0.2,0.5-0.4,0.9-0.5
			c1.1-0.6,2.2-1.2,3.3-1.7c0.2-0.2,0.5-0.4,0.9-0.5c0.4-0.2,0.7-0.4,1-0.6c0.2-0.2,0.5-0.4,0.8-0.5c1.2-0.6,2.3-1.3,3.4-2.1
			c0.1-0.2,0.4-0.4,0.6-0.5c0.1,0,0.3-0.1,0.4-0.1c0.2-0.1,0.4-0.3,0.6-0.4c0.1-0.1,0.1-0.1,0.2-0.2c0.2-0.2,0.3-0.3,0.6-0.4
			c2.4-1.6,4.8-3.4,6.9-5.3c0.1-0.2,0.3-0.4,0.5-0.5c0.3-0.2,0.7-0.4,0.9-0.7c1.9-1.7,3.7-3.5,5.3-5.5c1.3-1.7,2.9-3.3,4.2-5
			c2.5-3.3,4.6-6.8,6.2-10.6c0.1-0.3,0.3-0.6,0.5-1c0.8-1.9,1.5-3.8,2.2-5.7c0-0.2,0.1-0.5,0.2-0.7c0.6-1.5,1-3.1,1.4-4.7
			c0-0.3,0.1-0.6,0.2-0.9c0.5-1.7,0.8-3.4,1.1-5.1c0-0.3,0-0.6,0.1-0.9c0.1-1.3,0.4-2.5,0.4-3.8c0-0.3,0-0.7,0.1-1
			c0-0.3,0-0.6,0-0.8s0.1-0.5,0.1-0.7c0.1-0.6,0.1-1.2,0.2-1.8c-0.1-0.3-0.1-0.7,0.1-1c0.1-0.3,0.1-0.6,0-0.9
			c-0.1-0.3-0.1-0.7,0.1-1C1306.2,191.9,1313.5,241.9,1306.8,198z"/>
	</g>
</g>
</svg>
